<?xml version="1.0" encoding="utf-8"?>
<!DOCTYPE svg PUBLIC "-//W3C//DTD SVG 1.0//EN" "http://www.w3.org/TR/2001/REC-SVG-20010904/DTD/svg10.dtd">
<svg version="1.0" xmlns="http://www.w3.org/2000/svg" width="500px" height="500px" viewBox="0 0 500 500" preserveAspectRatio="xMidYMid meet">
 <g fill="#fefefe">
  <path d="M0 250 l0 -250 250 0 250 0 0 250 0 250 -250 0 -250 0 0 -250z"/>
 </g>
 <g fill="#e3d8d5">
  <path d="M82.52 250.63 c-2.64 -0.44 -4.74 -1.32 -6.84 -2.78 l-2.20 -1.56 -3.17 1.12 c-3.47 1.22 -8.25 1.46 -11.33 0.63 -5.22 -1.46 -9.18 -6.40 -9.18 -11.43 0 -3.96 1.46 -4.69 4.88 -2.44 2.69 1.81 5.08 1.71 7.03 -0.24 l1.51 -1.51 0.34 -10.16 c0.34 -10.99 1.07 -14.99 3.71 -19.82 1.81 -3.37 5.91 -7.28 9.08 -8.79 1.51 -0.73 2.73 -1.51 2.73 -1.76 0 -0.88 3.13 -2.44 4.79 -2.44 1.76 0 4.49 1.22 4.49 1.95 0 0.59 5.42 3.08 5.81 2.69 0.15 -0.15 1.51 -2.98 3.03 -6.25 2.59 -5.47 2.93 -5.96 4.15 -5.96 2.64 0 2.54 1.12 -0.88 8.01 l-3.17 6.45 1.86 2 c3.76 4.10 5.42 9.08 6.25 18.55 0.59 6.49 1.42 8.84 3.96 10.55 1.42 0.98 2.20 1.12 5.47 1.03 4.64 -0.10 5.27 0.29 5.27 3.52 0 1.32 0.15 2.39 0.39 2.39 1.07 -0.05 1.90 -1.66 4.93 -9.81 1.81 -4.93 4.05 -10.74 4.98 -12.89 1.56 -3.56 1.86 -3.91 3.22 -4.05 1.46 -0.15 1.46 -0.15 3.91 6.10 1.32 3.42 3.61 9.38 5.08 13.23 2.15 5.71 2.83 7.03 3.71 7.23 0.83 0.24 1.12 0.63 1.12 1.71 l0 1.42 -4.88 0 -4.88 0 0 -1.42 c0 -1.03 0.29 -1.46 1.03 -1.66 1.07 -0.29 1.03 -0.78 -0.34 -4.10 l-0.63 -1.61 -4.83 0 -4.79 0 -0.83 2.59 c-1.03 3.27 -1.03 3.17 0.29 3.37 0.73 0.10 1.12 0.54 1.22 1.42 0.20 1.66 -0.29 1.76 -4.88 1.51 -3.71 -0.20 -3.81 -0.24 -3.86 -1.51 0 -1.12 -0.10 -1.03 -0.73 0.63 -3.08 8.40 -10.94 12.65 -19.43 10.50 -1.95 -0.49 -2.34 -0.39 -4.74 0.93 -3.71 2.10 -9.38 3.27 -12.65 2.69z m53.61 -26.12 c-2.29 -6.35 -3.03 -8.20 -3.27 -8.20 -0.29 0 -3.03 7.67 -2.98 8.45 0 0.20 1.46 0.34 3.22 0.34 2.39 0 3.17 -0.15 3.03 -0.59z"/>
  <path d="M173 245.85 c-2.05 -0.88 -5.37 -3.17 -8.15 -5.57 -1.71 -1.46 -2.83 -2 -5.18 -2.39 -5.18 -0.93 -9.23 -4.05 -11.43 -8.84 -1.42 -3.22 -1.42 -9.67 0.05 -12.84 1.46 -3.22 4.64 -6.45 7.62 -7.76 3.81 -1.71 9.47 -1.61 13.18 0.24 3.32 1.61 5.86 4.44 7.23 8.06 1.42 3.81 1.12 9.52 -0.68 13.04 -1.17 2.34 -3.61 4.88 -6.15 6.59 l-1.17 0.73 3.22 2.54 c1.76 1.42 4.05 2.83 5.08 3.22 1.56 0.54 1.86 0.83 1.86 2.05 0 1.32 -0.15 1.42 -1.95 1.51 -1.07 0.10 -2.69 -0.20 -3.52 -0.59z m-7.08 -12.65 c3.66 -1.90 5.47 -5.47 5.47 -10.69 0 -6.49 -3.03 -10.55 -8.11 -10.99 -3.47 -0.29 -4.74 0.10 -7.03 2.15 -5.27 4.79 -4.20 16.02 1.86 19.24 2.15 1.12 5.96 1.27 7.81 0.29z"/>
  <path d="M286.38 237.74 c-4.30 -0.54 -6.69 -2.34 -8.50 -6.30 -0.88 -1.95 -1.03 -3.22 -1.03 -10.84 0 -7.18 -0.15 -8.74 -0.78 -9.38 -0.39 -0.44 -0.98 -0.78 -1.22 -0.78 -0.29 0 -0.44 -0.59 -0.34 -1.32 l0.15 -1.37 4.79 -0.15 4.74 -0.15 0 1.76 c0 1.37 -0.20 1.71 -0.98 1.71 -0.93 0 -0.98 0.34 -0.98 8.69 0 9.81 0.39 11.33 3.47 12.94 2.34 1.27 6.35 0.93 8.06 -0.68 2.34 -2.10 2.64 -3.61 2.64 -12.60 0 -8.20 0 -8.30 -1.07 -8.45 -0.88 -0.10 -1.12 -0.49 -1.12 -1.61 l0 -1.46 4.54 -0.15 4.49 -0.15 0 1.46 c0 1.03 -0.29 1.56 -0.98 1.76 -0.88 0.29 -0.98 0.73 -0.98 6.01 -0.05 10.11 -0.59 13.48 -2.73 16.80 -2.05 3.17 -6.98 4.93 -12.16 4.25z"/>
  <path d="M188.23 236.91 c-2.93 -1.37 -5.42 -4.39 -6.05 -7.37 -0.29 -1.42 -0.54 -6.10 -0.54 -10.50 0 -7.57 -0.05 -8.01 -0.98 -8.25 -0.73 -0.20 -0.98 -0.68 -0.98 -1.76 l0 -1.51 4.59 0 c2.73 0 4.79 0.20 4.93 0.54 0.63 0.93 -0.20 2.88 -1.22 2.88 -0.93 0 -0.98 0.34 -0.98 7.96 0 8.94 0.34 10.79 2.44 12.79 1.95 1.90 6.25 2.29 8.64 0.78 2.98 -1.86 3.32 -3.22 3.32 -12.74 0 -8.50 0 -8.54 -1.07 -8.69 -0.93 -0.15 -1.12 -0.49 -1.12 -1.86 l0 -1.66 4.39 0 4.39 0 0 1.51 c0 1.07 -0.29 1.56 -0.93 1.76 -0.83 0.20 -0.93 0.98 -1.12 9.23 -0.24 8.69 -0.29 9.03 -1.66 11.77 -0.98 1.95 -2.10 3.32 -3.52 4.30 -1.90 1.32 -2.59 1.46 -6.35 1.61 -3.32 0.10 -4.69 -0.05 -6.20 -0.78z"/>
  <path d="M322.07 237.35 c-1.32 -0.29 -1.66 -0.88 -5.03 -9.08 -5.47 -13.38 -4.98 -12.99 -4.98 -3.76 -0.05 8.30 0.24 9.86 1.90 9.86 0.78 0 0.98 0.34 0.98 1.46 l0 1.46 -4.64 0 -4.64 0 0 -1.37 c0 -0.93 0.34 -1.46 1.12 -1.81 1.07 -0.49 1.07 -0.59 1.22 -11.57 0.10 -10.69 0.10 -11.08 -0.88 -11.62 -0.63 -0.34 -0.98 -1.03 -0.98 -1.95 l0 -1.46 3.91 0 3.86 0 1.03 2.34 c0.59 1.27 2.59 6.10 4.49 10.74 1.95 4.64 3.66 8.25 3.86 8.06 0.20 -0.24 2.34 -4.98 4.74 -10.64 l4.35 -10.25 2.93 -0.15 2.93 -0.15 -0.24 11.43 c-0.24 13.13 -0.10 14.60 1.61 15.38 1.32 0.63 1.66 2.25 0.54 2.88 -0.39 0.20 -2.69 0.34 -5.13 0.24 l-4.44 -0.15 0 -1.46 c0 -1.07 0.24 -1.46 1.22 -1.71 l1.22 -0.29 0 -8.64 0 -8.59 -1.12 2.69 c-4.83 11.62 -7.42 17.43 -7.86 17.87 -0.29 0.29 -1.17 0.39 -1.95 0.24z"/>
  <path d="M207.32 236.52 c-0.49 -1.27 -0.34 -1.66 0.88 -2.20 0.88 -0.44 1.61 -1.66 2.73 -4.79 0.88 -2.29 3.13 -8.20 5.03 -13.09 l3.42 -8.94 1.66 0 c1.46 0 1.76 0.24 2.25 1.51 6.74 17.97 9.52 24.66 10.50 25.10 0.73 0.34 1.07 0.93 1.07 1.81 l0 1.37 -4.88 0 -4.88 0 0 -1.42 c0 -1.03 0.29 -1.46 1.03 -1.66 1.07 -0.29 1.03 -0.78 -0.34 -4.10 l-0.63 -1.61 -4.83 0 -4.83 0 -0.59 2 c-0.34 1.12 -0.73 2.29 -0.88 2.69 -0.15 0.39 0.24 0.88 1.07 1.17 0.93 0.34 1.22 0.73 1.03 1.27 -0.15 0.44 -0.29 0.98 -0.29 1.22 0 0.24 -1.86 0.44 -4.10 0.44 -3.27 0 -4.15 -0.15 -4.39 -0.78z m16.31 -11.77 c0 -0.24 -0.73 -2.34 -1.66 -4.69 l-1.61 -4.35 -1.56 4.25 c-0.83 2.29 -1.51 4.39 -1.51 4.69 0 0.24 1.42 0.44 3.17 0.44 1.76 0 3.17 -0.15 3.17 -0.34z"/>
  <path d="M235.84 235.84 c0 -0.98 0.24 -1.46 0.73 -1.46 1.56 0 1.76 -1.81 1.51 -12.60 -0.10 -5.81 -0.24 -10.64 -0.24 -10.64 -0.05 -0.05 -0.49 -0.20 -1.07 -0.34 -0.78 -0.20 -0.98 -0.59 -0.83 -1.66 l0.15 -1.37 6.74 -0.15 c7.42 -0.15 9.81 0.29 12.06 2.15 2.05 1.76 2.93 3.61 2.93 6.30 0 3.37 -1.66 5.96 -4.98 7.62 l-1.32 0.68 3.08 4.64 c1.71 2.59 3.66 5.03 4.35 5.52 0.73 0.49 1.32 1.27 1.32 1.81 0 0.88 -0.34 0.98 -3.32 0.98 l-3.27 0 -2.69 -4.25 c-1.46 -2.39 -3.17 -5.13 -3.76 -6.10 -0.93 -1.51 -1.42 -1.86 -2.64 -1.86 -1.51 0 -1.51 0.05 -1.22 1.86 0.15 0.98 0.29 3.08 0.29 4.64 0 2.44 0.10 2.78 0.93 2.78 1.22 0 1.66 0.68 1.27 1.95 -0.29 0.88 -0.73 0.98 -5.18 0.98 l-4.83 0 0 -1.46z m14.55 -15.87 c1.90 -1.61 2.34 -3.61 1.32 -5.76 -0.98 -2.10 -2.49 -2.78 -5.86 -2.78 l-2.69 0 0 3.08 c0 1.66 0.15 3.86 0.29 4.88 l0.34 1.81 2.59 0 c2.05 0 2.88 -0.24 4 -1.22z"/>
  <path d="M262.21 235.89 c0 -1.03 0.29 -1.56 0.98 -1.76 0.93 -0.29 0.98 -0.73 0.98 -11.72 0 -10.94 -0.05 -11.38 -0.98 -11.62 -0.73 -0.20 -0.98 -0.68 -0.98 -1.76 l0 -1.51 4.93 0 4.88 0 -0.15 1.61 c-0.10 1.17 -0.39 1.61 -1.22 1.71 l-1.12 0.15 0 11.47 0 11.43 1.22 0.29 c0.93 0.24 1.22 0.63 1.22 1.71 l0 1.42 -4.88 0 -4.88 0 0 -1.42z"/>
  <path d="M126.66 205.52 c-2.05 -0.59 -4.44 -3.37 -4.88 -5.57 -1.07 -5.81 2.15 -10.06 7.57 -10.11 1.71 0 2.98 0.34 4.20 1.07 2 1.27 2.10 1.90 0.54 3.37 l-1.22 1.12 -1.32 -1.03 c-1.71 -1.37 -3.37 -1.32 -4.83 0.20 -2.54 2.49 -0.93 7.57 2.39 7.57 0.88 0 2 -0.34 2.54 -0.73 1.27 -0.98 1.76 -0.93 3.13 0.34 l1.12 1.07 -1.32 1.07 c-1.22 1.12 -4.20 2.20 -5.66 2.10 -0.39 0 -1.42 -0.24 -2.25 -0.49z"/>
  <path d="M141.11 205.52 c-3.08 -1.22 -4.88 -4.15 -4.88 -7.86 0 -4.83 2.93 -7.71 7.91 -7.71 2.54 0 3.03 0.15 4.79 1.76 2.34 2.10 3.17 4.59 2.73 7.71 -0.73 4.88 -6.01 7.91 -10.55 6.10z m6.20 -5.66 c0.88 -2.15 0.44 -4.25 -1.17 -5.52 -2.69 -2.10 -6.01 -0.24 -6.01 3.27 0 4.88 5.37 6.49 7.18 2.25z"/>
  <path d="M153.61 202.59 c-0.39 -3.81 -0.39 -10.84 0 -11.87 0.24 -0.63 1.07 -0.78 4.15 -0.78 4.69 0 6.69 0.73 8.50 3.17 1.17 1.46 1.37 2.25 1.37 4.69 0 2.49 -0.20 3.13 -1.46 4.74 -1.86 2.25 -3.81 2.98 -8.50 2.98 l-3.71 0.05 -0.34 -2.98z m9.08 -1.90 c0.49 -0.63 0.88 -1.90 0.88 -2.98 0 -2.54 -1.32 -3.86 -3.91 -3.86 l-1.95 0 0 4.20 0 4.25 2.05 -0.29 c1.32 -0.20 2.39 -0.68 2.93 -1.32z"/>
  <path d="M169.43 197.75 l0 -7.81 5.66 0 5.62 0 -0.15 1.81 -0.15 1.76 -3.52 -0.10 c-3.52 -0.10 -3.56 -0.10 -3.56 1.12 0 1.22 0.10 1.27 3.13 1.27 1.76 0 3.27 0.15 3.37 0.39 0.15 0.20 0.15 0.93 0 1.71 -0.24 1.22 -0.44 1.32 -2.59 1.32 -3.13 0 -3.91 0.34 -3.91 1.76 0 1.12 0.15 1.17 3.66 1.17 l3.66 0 0 1.71 0 1.71 -5.62 0 -5.62 0 0 -7.81z"/>
 </g>
 <g fill="#aaaaaa">
  <path d="M78.71 249.56 c-1.12 -0.54 -2.78 -1.51 -3.66 -2.20 l-1.56 -1.17 -3.42 1.17 c-6.30 2.15 -12.26 1.27 -16.21 -2.39 -1.27 -1.12 -2.64 -2.93 -3.13 -4 -1.03 -2.15 -1.22 -5.66 -0.44 -7.13 0.63 -1.07 2.54 -1.22 3.42 -0.24 0.29 0.39 1.51 1.07 2.64 1.51 1.90 0.73 2.29 0.73 3.86 0.10 2.83 -1.22 3.13 -2.34 3.42 -13.04 0.20 -6.10 0.54 -10.64 1.03 -12.60 1.71 -6.84 6.10 -12.79 11.52 -15.67 1.61 -0.88 3.13 -2 3.42 -2.49 0.63 -1.17 3.61 -2.15 5.52 -1.76 0.83 0.20 2.10 0.88 2.83 1.56 0.73 0.68 2.39 1.76 3.76 2.39 l2.44 1.12 3.03 -6.54 c3.17 -6.79 3.66 -7.28 5.66 -5.86 0.88 0.68 0.83 0.93 -2.39 7.37 l-3.32 6.69 1.95 2.10 c3.76 4.10 5.52 9.13 6.15 17.58 0.39 5.76 1.32 8.98 3.08 10.64 1.86 1.76 3.71 2.25 7.57 1.95 2.93 -0.24 3.22 -0.20 3.76 0.83 0.88 1.66 0.29 5.81 -1.27 9.03 -3.37 6.84 -10.69 10.25 -18.26 8.50 -2 -0.44 -2.44 -0.34 -6.10 1.37 -3.52 1.66 -4.35 1.86 -8.54 2 -3.81 0.10 -4.98 -0.05 -6.74 -0.83z"/>
  <path d="M172.41 245.36 c-1.42 -0.68 -4.25 -2.54 -6.25 -4.15 -2.39 -1.90 -4.30 -2.98 -5.42 -3.17 -5.66 -0.93 -9.42 -3.56 -11.82 -8.25 -1.56 -3.03 -1.71 -3.76 -1.71 -7.32 0.05 -4.93 1.61 -8.54 4.93 -11.47 5.66 -4.98 15.23 -4.83 20.46 0.24 6.98 6.79 5.86 19.19 -2.20 24.22 l-2.39 1.46 2.54 2.15 c2.39 2 5.32 3.71 7.32 4.30 0.98 0.29 1.12 1.76 0.24 2.64 -0.93 0.93 -2.83 0.68 -5.71 -0.63z m-6.49 -12.16 c1.71 -0.88 3.66 -3.03 4.79 -5.18 1.32 -2.59 1.17 -8.40 -0.24 -11.38 -2.05 -4.30 -6.01 -6.30 -10.16 -5.22 -3.03 0.73 -4.35 1.71 -5.91 4.35 -1.17 2 -1.32 2.73 -1.32 6.64 0 3.56 0.20 4.79 1.07 6.35 1.22 2.25 2.83 3.91 4.54 4.59 1.81 0.73 5.71 0.63 7.23 -0.15z"/>
  <path d="M188.77 237.11 c-2.49 -0.93 -4.59 -2.98 -5.86 -5.66 -0.88 -1.95 -1.03 -3.32 -1.17 -11.33 -0.20 -8.50 -0.24 -9.18 -1.12 -9.42 -0.63 -0.20 -0.93 -0.78 -0.93 -1.76 l0 -1.42 4.64 0 4.64 0 0 1.51 c0 1.07 -0.24 1.56 -0.98 1.76 -0.93 0.24 -0.98 0.68 -0.98 8.64 0 9.47 0.59 11.77 3.37 13.18 2.10 1.12 5.81 0.98 7.76 -0.20 2.93 -1.81 3.52 -3.96 3.52 -13.28 0 -8.06 0 -8.15 -1.07 -8.30 -0.88 -0.10 -1.17 -0.54 -1.27 -1.71 l-0.15 -1.61 4.39 0 4.44 0 0 1.51 c0 1.12 -0.24 1.56 -0.98 1.76 -1.32 0.34 -1.42 1.07 -1.56 10.64 -0.15 7.86 -0.20 8.50 -1.42 10.74 -1.86 3.61 -4.83 5.32 -9.67 5.52 -2.29 0.05 -4.44 -0.15 -5.62 -0.59z"/>
  <path d="M282.67 236.47 c-1.95 -1.03 -2.98 -1.95 -4.10 -3.76 l-1.46 -2.39 -0.15 -9.33 c-0.15 -9.18 -0.20 -9.33 -1.37 -10.30 -0.83 -0.73 -1.07 -1.27 -0.88 -2.05 0.29 -1.07 0.54 -1.12 4.88 -1.12 l4.59 0 0 1.46 c0 1.17 -0.29 1.61 -1.27 1.95 l-1.27 0.49 0.20 8.45 c0.20 9.38 0.63 10.84 3.47 12.55 2.10 1.32 5.81 1.27 7.91 0 2.78 -1.71 3.27 -3.61 3.56 -12.79 l0.24 -8.15 -1.32 -0.49 c-0.98 -0.39 -1.27 -0.83 -1.27 -2 l0 -1.46 4.39 0 4.39 0 0 1.37 c0 1.03 -0.34 1.56 -1.17 1.95 -1.17 0.54 -1.17 0.54 -1.37 9.72 -0.15 8.40 -0.24 9.38 -1.27 11.23 -2.25 4.25 -5.32 5.96 -10.64 6.01 -2.78 0 -3.91 -0.24 -6.10 -1.32z"/>
  <path d="M120.12 236.23 c0 -0.59 0.54 -1.51 1.17 -2.10 0.78 -0.63 2.20 -3.86 4.39 -9.77 1.76 -4.83 3.96 -10.55 4.83 -12.70 1.51 -3.52 1.81 -3.91 3.13 -4.05 l1.46 -0.15 3.71 9.67 c2 5.32 4.30 11.28 5.03 13.23 0.98 2.64 1.61 3.71 2.44 4.05 0.83 0.29 1.17 0.78 1.17 1.66 l0 1.22 -4.88 0 -4.88 0 0 -1.46 c0 -1.12 0.20 -1.46 0.98 -1.46 1.22 0 1.22 -0.78 0 -3.61 l-0.93 -2.25 -4.79 0 -4.79 0 -0.88 2.39 c-1.07 3.03 -1.03 3.47 0.10 3.47 1.22 0 1.66 0.68 1.27 1.95 -0.29 0.88 -0.73 0.98 -4.44 0.98 -3.91 0 -4.10 -0.05 -4.10 -1.07z m16.11 -11.43 c0 -0.68 -3.17 -8.98 -3.42 -8.98 -0.24 0.05 -2.98 8.25 -2.93 8.94 0 0.44 6.35 0.49 6.35 0.05z"/>
  <path d="M207.52 235.89 c0 -0.98 0.29 -1.46 0.93 -1.66 0.63 -0.15 1.42 -1.51 2.44 -4.30 0.88 -2.25 3.13 -8.25 5.08 -13.28 l3.52 -9.18 1.61 0.15 1.66 0.15 4.83 12.70 c3.52 9.13 5.22 12.99 6.05 13.67 0.68 0.59 1.22 1.51 1.22 2.10 0 1.03 -0.15 1.07 -4.88 1.07 l-4.88 0 0 -1.46 c0 -1.12 0.20 -1.46 0.98 -1.46 1.17 0 1.22 -0.44 0.15 -3.47 l-0.88 -2.39 -4.88 0 -4.93 0 -0.83 2.34 c-1.07 2.98 -1.03 3.52 0.15 3.52 0.78 0 0.98 0.34 0.98 1.46 l0 1.46 -4.15 0 -4.15 0 0 -1.42z m16.11 -11.13 c0 -0.20 -0.68 -2.29 -1.56 -4.69 -1.71 -4.83 -1.61 -4.88 -3.76 1.03 l-1.46 4 3.42 0 c1.86 0 3.37 -0.15 3.37 -0.34z"/>
  <path d="M235.84 236.13 c0 -0.68 0.49 -1.46 1.22 -1.95 l1.22 -0.78 0 -11.04 c0 -10.50 -0.05 -11.04 -0.93 -11.28 -1.17 -0.29 -1.56 -1.17 -1.17 -2.59 0.29 -1.03 0.44 -1.07 7.67 -0.88 6.79 0.15 7.52 0.24 9.52 1.37 3.27 1.86 4.20 3.42 4.20 7.03 0 2.59 -0.20 3.32 -1.32 4.79 -0.73 0.93 -2.10 2.10 -3.08 2.54 -1.07 0.54 -1.61 1.07 -1.37 1.42 2.73 4.59 4.98 7.76 6.59 9.28 1.07 1.03 1.86 2.10 1.71 2.44 -0.10 0.34 -1.37 0.63 -3.17 0.73 -2.98 0.15 -2.98 0.15 -4.35 -1.76 -0.73 -1.07 -2.44 -3.81 -3.81 -6.10 -2.29 -3.96 -2.54 -4.25 -4.05 -4.25 l-1.61 0 0.15 4.54 c0.15 4.25 0.20 4.49 1.27 4.64 0.83 0.15 1.07 0.49 1.07 1.61 l0 1.42 -4.88 0 c-4.83 0 -4.88 0 -4.88 -1.17z m14.36 -15.67 c2.15 -1.42 2.78 -4.15 1.51 -6.59 -1.03 -1.95 -2.10 -2.44 -5.57 -2.44 l-2.98 0 0 4.79 c0 2.64 0.15 4.98 0.39 5.18 0.54 0.59 5.37 -0.10 6.64 -0.93z"/>
  <path d="M262.21 235.94 c0 -0.93 0.34 -1.46 1.12 -1.81 1.07 -0.49 1.07 -0.59 1.22 -11.62 l0.10 -11.08 -1.22 -0.59 c-0.88 -0.39 -1.22 -0.93 -1.22 -1.95 l0 -1.42 4.79 0.15 c4.69 0.15 4.74 0.15 4.74 1.37 0 0.78 -0.39 1.37 -1.12 1.71 l-1.07 0.49 0.10 11.47 0.15 11.47 1.12 0.15 c0.83 0.15 1.07 0.49 1.07 1.61 l0 1.42 -4.88 0 -4.88 0 0 -1.37z"/>
  <path d="M305.66 235.89 c0 -1.07 0.24 -1.46 1.22 -1.71 l1.22 -0.29 0 -11.43 c0 -10.99 -0.05 -11.43 -0.98 -11.67 -0.73 -0.20 -0.98 -0.68 -0.98 -1.76 l0 -1.51 3.81 0 3.86 0 1.03 2.34 c0.59 1.27 2.69 6.25 4.69 11.04 l3.61 8.79 0.73 -1.71 c0.39 -0.88 1.90 -4.49 3.42 -8.01 1.46 -3.47 3.27 -7.67 3.91 -9.28 l1.22 -2.93 2.88 -0.15 2.83 -0.15 -0.15 13.13 -0.20 13.13 1.56 0.54 c1.12 0.44 1.51 0.78 1.27 1.37 -0.15 0.39 -0.29 0.98 -0.29 1.22 0 0.29 -1.95 0.44 -4.74 0.34 -4.54 -0.15 -4.79 -0.20 -4.93 -1.22 -0.10 -0.78 0.20 -1.27 1.07 -1.71 l1.27 -0.54 0 -8.59 -0.05 -8.59 -4.44 10.40 -4.44 10.35 -1.66 0 c-1.12 0 -1.76 -0.24 -1.95 -0.83 -0.39 -1.07 -7.32 -18.07 -7.96 -19.43 -0.24 -0.63 -0.44 2.25 -0.44 7.91 l-0.05 8.84 1.51 0.54 c1.17 0.39 1.46 0.73 1.32 1.61 -0.15 1.07 -0.39 1.12 -4.64 1.27 l-4.54 0.15 0 -1.46z"/>
 </g>
 <g fill="#e09285">
  <path d="M80.13 249.95 c-1.81 -0.54 -3.66 -1.61 -5.27 -3.03 -1.03 -0.93 -1.07 -0.93 -4.15 0.20 -6.20 2.25 -13.28 1.27 -17.19 -2.39 -3.08 -2.88 -4.74 -9.23 -2.93 -11.04 1.03 -1.07 1.71 -0.98 3.61 0.44 3.17 2.34 6.35 2 8.45 -0.83 0.88 -1.17 0.98 -2.20 1.12 -10.25 0.15 -10.25 0.88 -14.65 3.22 -19.43 1.86 -3.81 6.01 -8.15 9.42 -9.77 1.32 -0.63 2.93 -1.81 3.56 -2.54 1.03 -1.17 1.51 -1.37 3.81 -1.37 2.15 0 2.93 0.24 3.81 1.12 0.59 0.63 2.29 1.71 3.76 2.44 3.08 1.51 2.44 2.05 6.05 -5.62 2.98 -6.35 3.22 -6.59 4.88 -5.86 0.68 0.29 1.22 0.78 1.22 1.03 0 0.24 -1.46 3.32 -3.22 6.84 l-3.22 6.45 1.71 1.86 c3.91 4.35 5.47 8.59 6.20 17.09 0.68 7.37 1.27 9.57 3.22 11.52 1.86 1.86 3.96 2.39 8.01 1.90 2.88 -0.29 2.93 -0.29 3.42 1.07 1.27 3.27 -1.42 10.55 -4.98 13.57 -3.47 2.98 -5.96 3.91 -10.40 3.86 -2.15 0 -4.44 -0.24 -5.08 -0.49 -0.93 -0.34 -1.90 -0.10 -4.98 1.46 -3.47 1.71 -4.35 1.95 -8.15 2.10 -2.34 0.10 -4.98 -0.05 -5.91 -0.34z"/>
  <path d="M125.49 204.64 c-2.44 -1.27 -4.05 -4.49 -3.76 -7.52 0.20 -2.49 1.27 -4.30 3.47 -5.91 2 -1.51 6.35 -1.42 8.50 0.15 l1.66 1.17 -1.22 1.22 c-1.17 1.12 -1.27 1.17 -2.34 0.39 -1.32 -0.88 -3.47 -1.03 -4.83 -0.29 -0.54 0.29 -1.17 1.37 -1.46 2.44 -1.27 4.69 3.37 8.30 6.59 5.08 0.68 -0.73 0.88 -0.73 2 0.05 1.51 0.98 1.32 1.61 -0.78 3.08 -2 1.37 -5.42 1.42 -7.81 0.15z"/>
  <path d="M139.55 204.39 c-2.25 -1.56 -3.56 -4.79 -3.17 -7.71 0.93 -6.88 9.91 -9.13 13.82 -3.37 1.37 2.05 1.61 6.10 0.49 8.25 -1.42 2.69 -3.03 3.71 -6.30 3.91 -2.59 0.15 -3.27 0 -4.83 -1.07z m6.98 -3.17 c3.71 -3.76 -0.34 -9.86 -4.93 -7.37 -1.42 0.73 -2.15 3.56 -1.46 5.62 1.07 3.32 4 4.10 6.40 1.76z"/>
  <path d="M154 204.93 c-0.10 -0.34 -0.15 -3.81 -0.10 -7.67 l0.15 -7.08 1.46 -0.15 c0.78 -0.10 2.88 -0.05 4.59 0.15 2.69 0.29 3.37 0.59 5.08 2.15 1.71 1.61 2 2.15 2.20 4.54 0.34 4.49 -1.81 7.37 -6.20 8.20 -3.66 0.68 -6.88 0.63 -7.18 -0.15z m8.79 -4.30 c1.71 -2 1.66 -4.05 -0.15 -5.86 -1.12 -1.12 -1.90 -1.42 -3.42 -1.42 l-2 0 0 4.39 0 4.39 2.15 0 c1.81 0 2.34 -0.24 3.42 -1.51z"/>
  <path d="M169.92 197.75 l0 -7.86 5.27 0.15 5.22 0.15 0.15 1.61 0.15 1.56 -3.66 0 -3.71 0 0 1.46 0 1.46 3.17 0 3.17 0 0 1.46 0 1.46 -3.17 0 -3.17 0 0 1.46 0 1.42 3.56 0.15 3.52 0.15 0 1.46 0 1.46 -5.22 0.15 -5.27 0.15 0 -7.86z"/>
 </g>
 <g fill="#d66b49">
  <path d="M80.13 249.95 c-1.81 -0.54 -3.66 -1.61 -5.27 -3.03 -1.03 -0.93 -1.07 -0.93 -4.15 0.20 -6.20 2.25 -13.28 1.27 -17.19 -2.39 -3.08 -2.88 -4.74 -9.23 -2.93 -11.04 1.03 -1.07 1.71 -0.98 3.61 0.44 3.17 2.34 6.35 2 8.45 -0.83 0.88 -1.17 0.98 -2.20 1.12 -10.25 0.15 -10.25 0.88 -14.65 3.22 -19.43 1.86 -3.81 6.01 -8.15 9.42 -9.77 1.32 -0.63 2.93 -1.81 3.56 -2.54 1.03 -1.17 1.51 -1.37 3.81 -1.37 2.15 0 2.93 0.24 3.81 1.12 0.59 0.63 2.29 1.71 3.76 2.44 3.08 1.51 2.44 2.05 6.05 -5.62 2.98 -6.35 3.22 -6.59 4.88 -5.86 0.68 0.29 1.22 0.78 1.22 1.03 0 0.24 -1.46 3.32 -3.22 6.84 l-3.22 6.45 1.71 1.86 c3.91 4.35 5.47 8.59 6.20 17.09 0.68 7.37 1.27 9.57 3.22 11.52 1.86 1.86 3.96 2.39 8.01 1.90 2.88 -0.29 2.93 -0.29 3.42 1.07 1.27 3.27 -1.42 10.55 -4.98 13.57 -3.47 2.98 -5.96 3.91 -10.40 3.86 -2.15 0 -4.44 -0.24 -5.08 -0.49 -0.93 -0.34 -1.90 -0.10 -4.98 1.46 -3.47 1.71 -4.35 1.95 -8.15 2.10 -2.34 0.10 -4.98 -0.05 -5.91 -0.34z m11.18 -3.42 l1.71 -0.78 -2.69 -1.37 c-3.61 -1.81 -6.98 -4.10 -10.50 -7.03 -1.56 -1.37 -3.08 -2.49 -3.27 -2.49 -0.78 0 -1.86 2.98 -1.86 5.18 0 2.83 1.46 4.98 4.49 6.49 1.76 0.93 2.73 1.03 6.25 0.88 2.29 -0.10 4.93 -0.49 5.86 -0.88z m-22.17 -1.76 l2.39 -0.88 -3.76 -0.34 c-6.15 -0.59 -9.81 -1.86 -13.04 -4.54 -1.22 -1.03 -1.51 -1.12 -1.51 -0.49 0 2.10 2.88 5.32 5.86 6.54 1.95 0.78 7.42 0.63 10.06 -0.29z m38.82 -0.73 c2.73 -0.93 5.71 -3.22 7.03 -5.47 0.68 -1.12 1.22 -2.25 1.22 -2.44 0 -0.15 -1.46 0.88 -3.22 2.34 -1.76 1.46 -4.69 3.42 -6.49 4.39 -2.93 1.56 -3.08 1.71 -1.71 1.76 0.83 0 2.25 -0.24 3.17 -0.59z m-20.56 -18.46 c0.54 -0.54 0.98 -1.51 0.98 -2.20 0 -1.61 -2.05 -3.66 -3.66 -3.66 -2.83 0 -4.69 3.91 -2.83 5.96 1.12 1.22 4.25 1.17 5.52 -0.10z"/>
  <path d="M82.96 224.32 c-0.44 -0.54 -0.49 -0.98 -0.10 -1.56 1.22 -2 4.20 -0.68 3.08 1.32 -0.63 1.22 -2.05 1.32 -2.98 0.24z"/>
  <path d="M126.03 204.69 c-4.10 -2.05 -5.42 -7.57 -2.73 -11.62 0.88 -1.42 4.25 -3.08 6.05 -3.13 1.56 0 5.42 1.86 5.42 2.64 0 0.34 -0.44 1.03 -0.98 1.51 -0.88 0.78 -0.98 0.78 -2.25 -0.20 -0.73 -0.59 -1.81 -1.03 -2.39 -1.03 -1.66 0 -3.56 1.81 -3.96 3.66 -0.88 4.79 2.73 7.62 6.69 5.27 1.32 -0.78 1.42 -0.78 2.34 0.05 1.22 1.12 0.98 1.61 -1.61 2.78 -2.54 1.12 -4.44 1.17 -6.59 0.05z"/>
  <path d="M140.23 204.59 c-2.34 -1.46 -3.52 -3.66 -3.52 -6.84 0 -4.74 2.73 -7.47 7.47 -7.52 2.59 0 4.30 1.03 6.10 3.66 1.51 2.20 1.37 6.30 -0.34 8.69 -2.10 2.93 -6.64 3.86 -9.72 2z m6.10 -2.69 c2.64 -1.86 2.25 -7.18 -0.68 -8.50 -1.71 -0.78 -2.78 -0.68 -4.20 0.44 -2.20 1.71 -2.34 5.81 -0.34 7.81 1.17 1.17 3.76 1.27 5.22 0.24z"/>
  <path d="M153.81 197.75 l0 -7.32 3.96 0 c6.64 0 9.47 2.20 9.47 7.32 0 5.18 -2.78 7.32 -9.52 7.32 l-3.91 0 0 -7.32z m7.57 4.20 c0.88 -0.39 1.86 -1.12 2.15 -1.66 0.88 -1.61 0.63 -4.25 -0.49 -5.66 -0.83 -1.07 -1.37 -1.27 -3.42 -1.27 l-2.39 0 0 4.64 c0 4.64 0 4.64 1.22 4.64 0.68 0 2 -0.29 2.93 -0.68z"/>
  <path d="M169.92 197.75 l0 -7.32 5.13 0 5.13 0 0 1.46 0 1.51 -3.52 -0.15 -3.56 -0.15 0 1.46 0 1.46 3.32 0.15 c3.32 0.15 3.32 0.15 3.17 1.46 -0.15 1.27 -0.29 1.32 -3.32 1.56 -3.13 0.24 -3.17 0.24 -3.17 1.71 l0 1.46 3.71 0.15 c3.66 0.15 3.71 0.15 3.47 1.32 -0.20 1.22 -0.29 1.22 -5.27 1.22 l-5.08 0 0 -7.32z"/>
 </g>
 <g fill="#8d7c7a">
  <path d="M80.13 249.95 c-1.81 -0.54 -3.66 -1.61 -5.27 -3.03 -1.03 -0.93 -1.07 -0.93 -4.15 0.20 -6.20 2.25 -13.28 1.27 -17.19 -2.39 -3.08 -2.88 -4.74 -9.23 -2.93 -11.04 1.03 -1.07 1.71 -0.98 3.61 0.44 3.17 2.34 6.35 2 8.45 -0.83 0.88 -1.17 0.98 -2.20 1.12 -10.25 0.15 -10.25 0.88 -14.65 3.22 -19.43 1.86 -3.81 6.01 -8.15 9.42 -9.77 1.32 -0.63 2.93 -1.81 3.56 -2.54 1.03 -1.17 1.51 -1.37 3.81 -1.37 2.15 0 2.93 0.24 3.81 1.12 0.59 0.63 2.29 1.71 3.76 2.44 3.08 1.51 2.44 2.05 6.05 -5.62 2.98 -6.35 3.22 -6.59 4.88 -5.86 0.68 0.29 1.22 0.78 1.22 1.03 0 0.24 -1.46 3.32 -3.22 6.84 l-3.22 6.45 1.71 1.86 c3.91 4.35 5.47 8.59 6.20 17.09 0.68 7.37 1.27 9.57 3.22 11.52 1.86 1.86 3.96 2.39 8.01 1.90 2.88 -0.29 2.93 -0.29 3.42 1.07 1.27 3.27 -1.42 10.55 -4.98 13.57 -3.47 2.98 -5.96 3.91 -10.40 3.86 -2.15 0 -4.44 -0.24 -5.08 -0.49 -0.93 -0.34 -1.90 -0.10 -4.98 1.46 -3.47 1.71 -4.35 1.95 -8.15 2.10 -2.34 0.10 -4.98 -0.05 -5.91 -0.34z m11.18 -3.42 l1.71 -0.78 -2.69 -1.37 c-3.42 -1.76 -7.42 -4.44 -10.74 -7.28 -1.46 -1.22 -2.78 -2.25 -3.03 -2.25 -0.73 0 -2 3.22 -2 5.22 0 2.59 1.71 4.98 4.64 6.45 1.76 0.93 2.73 1.03 6.25 0.88 2.29 -0.10 4.93 -0.49 5.86 -0.88z m-22.17 -1.76 l2.39 -0.88 -3.76 -0.34 c-6.15 -0.59 -9.81 -1.86 -13.04 -4.54 -1.22 -1.03 -1.51 -1.12 -1.51 -0.49 0 2.10 2.88 5.32 5.86 6.54 1.95 0.78 7.42 0.63 10.06 -0.29z m38.82 -0.73 c2.73 -0.93 5.71 -3.22 7.03 -5.47 0.68 -1.12 1.22 -2.25 1.22 -2.44 0 -0.15 -1.46 0.88 -3.22 2.34 -1.76 1.46 -4.69 3.42 -6.49 4.39 -2.93 1.56 -3.08 1.71 -1.71 1.76 0.83 0 2.25 -0.24 3.17 -0.59z m-20.56 -18.46 c0.54 -0.54 0.98 -1.51 0.98 -2.20 0 -1.71 -2.05 -3.66 -3.86 -3.66 -2.73 0 -4.49 3.91 -2.64 5.96 1.12 1.22 4.25 1.17 5.52 -0.10z"/>
  <path d="M174.32 246.14 c-2.29 -0.73 -4.30 -1.95 -8.06 -5.03 -3.03 -2.39 -4.25 -3.08 -6.20 -3.37 -4.93 -0.78 -9.08 -3.81 -11.23 -8.20 -0.83 -1.66 -1.17 -3.32 -1.27 -6.49 -0.15 -3.71 -0.05 -4.59 0.98 -6.84 2.59 -5.57 6.49 -8.25 12.65 -8.59 4.93 -0.29 8.15 0.78 11.23 3.66 3.22 3.03 4.54 6.20 4.54 11.13 0 5.81 -2.20 10.16 -6.59 12.99 -1.32 0.83 -2.39 1.56 -2.39 1.66 0 0.59 7.47 5.66 8.74 5.91 1.42 0.29 1.56 0.49 1.42 1.86 -0.10 1.22 -0.39 1.51 -1.37 1.61 -0.68 0.05 -1.76 -0.10 -2.44 -0.29z m-7.23 -13.48 c0.98 -0.68 2.44 -2.25 3.17 -3.52 1.22 -2.10 1.37 -2.78 1.37 -6.49 -0.05 -4.49 -0.93 -6.98 -3.27 -9.13 -1.51 -1.42 -4.39 -2.59 -6.40 -2.59 -2.39 0 -5.76 1.90 -7.37 4.25 -1.22 1.76 -1.46 2.64 -1.66 5.86 -0.24 4.88 0.49 7.57 2.73 10.01 3.27 3.47 7.67 4.10 11.43 1.61z"/>
  <path d="M189.94 237.35 c-3.66 -1.12 -6.05 -3.42 -7.32 -6.88 -0.34 -0.98 -0.68 -5.42 -0.83 -10.69 -0.24 -8.20 -0.34 -8.98 -1.17 -9.18 -0.63 -0.20 -0.93 -0.68 -0.93 -1.66 l0 -1.42 4.64 0 4.64 0 0 1.37 c0 1.03 -0.34 1.56 -1.27 2 l-1.27 0.54 0.34 8.45 c0.34 9.08 0.83 10.94 3.22 12.70 1.81 1.27 6.40 1.32 8.15 0 3.13 -2.34 3.27 -2.83 3.42 -12.60 l0.15 -8.98 -1.27 -0.34 c-1.03 -0.24 -1.27 -0.59 -1.12 -1.61 0.15 -1.27 0.20 -1.27 4.44 -1.42 l4.25 -0.15 0 1.42 c0 1.03 -0.34 1.56 -1.17 1.95 -1.17 0.54 -1.17 0.54 -1.37 9.72 -0.15 10.06 -0.49 11.43 -3.66 14.40 -2.54 2.39 -8.11 3.52 -11.87 2.39z"/>
  <path d="M283.94 237.01 c-2.34 -0.88 -4.39 -2.73 -5.76 -5.32 -0.98 -1.76 -1.07 -2.83 -1.22 -11.33 -0.15 -8.74 -0.24 -9.42 -1.12 -9.67 -0.63 -0.20 -0.93 -0.78 -0.93 -1.76 l0 -1.42 4.69 0 4.64 0 -0.15 1.61 c-0.10 1.17 -0.39 1.61 -1.22 1.71 -1.12 0.15 -1.12 0.24 -1.12 7.71 0 8.59 0.49 11.28 2.44 13.13 3.32 3.17 9.38 2.20 11.57 -1.86 0.68 -1.27 0.88 -3.17 1.03 -10.21 l0.20 -8.64 -1.27 -0.34 c-1.03 -0.24 -1.27 -0.59 -1.27 -1.71 l0 -1.46 4.30 0.15 c3.96 0.15 4.25 0.20 4.39 1.22 0.10 0.78 -0.20 1.27 -1.07 1.71 l-1.27 0.54 0 8.15 c0 9.03 -0.59 12.06 -2.78 14.70 -2.88 3.42 -9.28 4.83 -14.06 3.08z"/>
  <path d="M120.36 236.82 c-0.44 -0.73 0.20 -2.44 0.98 -2.44 0.34 0 0.78 -0.39 0.98 -0.83 0.20 -0.49 1.95 -5.18 3.91 -10.40 5.57 -14.79 5.71 -15.14 6.98 -15.48 0.63 -0.15 1.32 -0.10 1.56 0.15 0.44 0.49 3.52 8.11 7.47 18.75 2.20 5.86 2.88 7.18 3.91 7.71 0.88 0.44 1.32 1.03 1.32 1.86 0 1.17 -0.05 1.17 -4.88 1.17 l-4.88 0 0 -1.22 c0 -0.88 0.34 -1.37 1.22 -1.71 l1.22 -0.44 -0.98 -2.49 c-0.54 -1.37 -0.98 -2.59 -0.98 -2.69 0 -0.15 -2.29 -0.24 -5.08 -0.24 l-5.08 0 -0.78 2.29 c-1.03 2.98 -0.98 3.56 0.20 3.56 0.78 0 0.98 0.34 0.98 1.46 l0 1.46 -3.86 0 c-2.15 0 -4.05 -0.24 -4.20 -0.49z m14.60 -16.21 c-1.66 -4.44 -2 -5.13 -2.29 -4.74 -0.10 0.10 -0.78 1.95 -1.56 4.10 -0.73 2.15 -1.46 4.20 -1.61 4.54 -0.15 0.44 0.73 0.59 3.47 0.59 l3.66 0 -1.66 -4.49z"/>
  <path d="M207.52 235.94 c0 -0.88 0.34 -1.46 1.07 -1.81 0.78 -0.39 1.90 -2.69 4.54 -9.77 6.79 -17.82 6.20 -16.60 7.86 -16.75 l1.46 -0.15 5.08 13.28 c3.71 9.62 5.32 13.33 5.96 13.53 0.59 0.15 0.88 0.68 0.88 1.66 l0 1.42 -4.49 -0.15 c-4.30 -0.15 -4.54 -0.20 -4.69 -1.22 -0.15 -0.83 0.15 -1.27 1.03 -1.56 l1.22 -0.49 -0.98 -2.69 -1.03 -2.73 -4.98 0 -4.98 0 -0.83 2.10 c-1.07 2.78 -1.03 3.76 0.20 3.76 0.78 0 0.98 0.34 0.98 1.46 l0 1.46 -4.15 0 -4.15 0 0 -1.37z m14.79 -15.58 c-0.93 -2.64 -1.76 -4.83 -1.86 -4.93 -0.05 -0.10 -0.78 1.66 -1.61 3.91 -0.83 2.25 -1.61 4.44 -1.81 4.93 -0.29 0.73 0 0.83 3.32 0.83 l3.66 0 -1.71 -4.74z"/>
  <path d="M236.33 236.87 c0 -0.24 -0.15 -0.78 -0.29 -1.22 -0.20 -0.54 0.10 -0.93 0.98 -1.27 l1.27 -0.49 0 -11.18 c0 -10.74 -0.05 -11.28 -0.98 -11.77 -0.63 -0.34 -0.98 -1.03 -0.98 -2 l0 -1.51 7.23 0.20 c6.54 0.15 7.42 0.24 9.62 1.37 5.91 2.98 6.01 11.33 0.24 14.01 -1.07 0.49 -1.95 1.07 -1.95 1.27 0 0.93 6.45 10.06 7.32 10.35 0.63 0.20 0.98 0.73 0.98 1.51 0 1.12 -0.15 1.17 -2.93 1.17 -2.83 0 -2.88 0 -4.30 -2.05 -0.78 -1.17 -2.44 -3.91 -3.76 -6.10 -2.25 -3.76 -2.49 -4.05 -4 -4.05 l-1.61 0 0 4.39 c0 4.25 0.05 4.44 1.22 4.88 0.88 0.34 1.22 0.83 1.22 1.71 0 1.22 0 1.22 -4.64 1.22 -2.54 0 -4.64 -0.20 -4.64 -0.44z m12.89 -15.87 c5.18 -2.15 3.96 -8.94 -1.76 -9.81 -4.05 -0.63 -4.05 -0.68 -4.20 5.27 l-0.15 5.22 2.25 0 c1.22 0 2.98 -0.29 3.86 -0.68z"/>
  <path d="M262.21 235.89 c0 -1.12 0.24 -1.46 1.12 -1.61 l1.07 -0.15 0.15 -11.57 0.10 -11.62 -1.22 -0.29 c-0.93 -0.24 -1.22 -0.63 -1.22 -1.71 l0 -1.42 4.64 0 4.64 0 0 1.42 c0 1.03 -0.29 1.56 -0.98 1.76 -0.93 0.29 -0.98 0.73 -0.98 11.77 l0 11.43 1.22 0.49 c0.88 0.34 1.22 0.83 1.22 1.71 l0 1.22 -4.88 0 -4.88 0 0 -1.42z"/>
  <path d="M305.66 236.08 c0 -0.88 0.34 -1.37 1.22 -1.71 l1.22 -0.49 0 -11.33 c0 -10.99 -0.05 -11.43 -1.03 -12.01 -0.63 -0.39 -0.93 -1.03 -0.83 -1.71 0.15 -0.98 0.44 -1.07 3.81 -1.22 l3.66 -0.15 1.51 3.56 c0.83 1.95 2.88 6.88 4.59 10.99 1.71 4.10 3.27 7.32 3.42 7.23 0.20 -0.10 2.39 -5.08 4.88 -10.99 l4.59 -10.79 2.69 0.15 2.69 0.15 0 13.18 0.05 13.18 1.12 0.15 c0.83 0.15 1.07 0.49 1.07 1.61 l0 1.42 -4.64 0 -4.64 0 0 -1.46 c0 -1.12 0.20 -1.46 0.98 -1.46 1.22 0 1.12 0.49 1.17 -9.62 0.05 -7.71 -0.20 -9.91 -0.78 -7.57 -0.15 0.44 -2.10 5.18 -4.35 10.50 -4.05 9.47 -4.10 9.62 -5.57 9.62 -1.46 0 -1.56 -0.15 -4.88 -8.15 -1.86 -4.54 -3.86 -9.28 -4.44 -10.64 l-1.12 -2.44 0.10 9.03 c0.10 8.98 0.10 9.03 1.22 9.18 0.83 0.15 1.07 0.49 1.07 1.61 l0 1.42 -4.39 0 c-4.39 0 -4.39 0 -4.39 -1.22z"/>
 </g>
 <g fill="#e14a1b">
  <path d="M80.03 249.80 c-2.05 -0.73 -4.98 -2.44 -5.76 -3.42 -0.49 -0.54 -1.03 -0.49 -3.37 0.49 -7.57 3.08 -15.48 1.22 -19.14 -4.49 -2.29 -3.66 -2.49 -8.45 -0.29 -9.28 0.34 -0.15 1.71 0.44 3.03 1.22 2.93 1.86 4.98 1.95 6.98 0.24 2.10 -1.76 2.49 -3.76 2.49 -12.55 0 -5.13 0.24 -8.98 0.78 -11.47 1.51 -7.28 5.57 -13.28 10.89 -16.16 1.61 -0.83 3.61 -2.20 4.39 -2.98 1.22 -1.27 1.81 -1.46 3.96 -1.46 2.15 0 2.73 0.20 3.86 1.42 0.68 0.73 1.86 1.56 2.49 1.76 0.68 0.20 1.66 0.68 2.20 1.03 0.54 0.39 1.12 0.68 1.32 0.68 0.24 0 1.81 -2.98 3.56 -6.64 2.93 -6.15 3.22 -6.59 4.25 -6.25 2.29 0.68 2.34 0.44 -1.81 8.59 l-2.88 5.66 1.56 1.81 c4.15 4.74 5.71 8.84 6.45 17.48 0.98 11.52 3.03 14.06 10.74 13.28 l3.42 -0.34 0.54 1.37 c0.68 1.90 -0.15 6.54 -1.76 9.23 -1.90 3.27 -3.37 4.83 -6.01 6.25 -3.61 1.95 -7.08 2.49 -11.13 1.66 -3.27 -0.68 -3.37 -0.68 -5.08 0.44 -3.91 2.73 -11.62 3.91 -15.67 2.44z m11.43 -3.22 c1.71 -0.83 1.66 -1.12 -0.34 -1.86 -2.20 -0.83 -8.15 -4.79 -11.43 -7.62 -1.46 -1.22 -2.78 -2.25 -3.03 -2.25 -0.68 0 -1.56 1.42 -2 3.27 -0.83 3.66 1.07 6.93 4.93 8.69 2.05 0.93 9.72 0.78 11.87 -0.24z m-25.49 -0.98 c2.88 -0.54 5.32 -1.42 5.32 -1.90 0 -0.15 -1.46 -0.29 -3.32 -0.34 -4.30 -0.05 -9.67 -1.71 -12.50 -3.86 -1.27 -0.93 -2.34 -1.71 -2.49 -1.71 -0.49 0 1.32 3.66 2.34 4.79 1.61 1.71 4.20 2.88 7.71 3.47 0.20 0.05 1.51 -0.20 2.93 -0.44z m44.73 -2.73 c2.49 -1.56 5.52 -5.13 5.52 -6.49 0 -0.68 -0.49 -0.39 -2.05 1.07 -2.34 2.20 -6.30 4.83 -9.33 6.25 l-2.05 0.98 2.78 -0.20 c2 -0.10 3.47 -0.59 5.13 -1.61z m-23.29 -17.29 c2.15 -2.15 0.39 -5.86 -2.73 -5.86 -2.88 0 -4.69 3.86 -2.78 5.96 1.12 1.22 4.25 1.17 5.52 -0.10z"/>
  <path d="M126.12 204.64 c-5.13 -2.39 -5.42 -10.25 -0.54 -13.23 2.10 -1.27 5.52 -1.27 7.62 0 1.81 1.12 1.90 1.51 0.59 2.34 -0.83 0.49 -1.22 0.49 -2.10 -0.15 -2.05 -1.46 -4.88 -0.88 -5.96 1.27 -1.17 2.20 -0.93 5.18 0.49 6.54 1.42 1.46 4.59 1.66 5.86 0.39 0.63 -0.59 1.03 -0.68 1.66 -0.29 1.12 0.73 0.98 1.61 -0.44 2.64 -1.90 1.42 -4.79 1.61 -7.18 0.49z"/>
  <path d="M141.85 205.22 c-5.86 -1.61 -7.03 -11.04 -1.66 -13.92 2 -1.07 5.37 -1.12 7.28 -0.15 2.39 1.22 3.66 3.52 3.66 6.69 0 2.98 -0.83 4.59 -3.22 6.40 -1.32 0.93 -4.35 1.46 -6.05 0.98z m4.98 -3.71 c3.08 -2.78 1.12 -8.64 -2.83 -8.64 -2 0 -2.83 0.49 -3.61 2 -2.78 5.32 2.25 10.50 6.45 6.64z"/>
  <path d="M154.30 197.75 l0 -7.32 3.42 0 c4.05 0 6.15 0.78 7.96 2.88 1.12 1.32 1.32 2.05 1.32 4.44 0 4.98 -2.98 7.32 -9.28 7.32 l-3.42 0 0 -7.32z m8.64 3.27 c1.42 -1.37 1.66 -4.39 0.54 -6.15 -1.03 -1.66 -5.71 -2.73 -6.49 -1.51 -0.15 0.24 -0.15 2.44 0.05 4.93 l0.34 4.44 2.20 -0.24 c1.42 -0.15 2.59 -0.63 3.37 -1.46z"/>
  <path d="M169.92 197.75 l0 -7.32 5.13 0 5.13 0 0 1.22 c0 1.17 -0.10 1.22 -3.66 1.22 l-3.66 0 0 1.71 0 1.71 3.17 0 c3.03 0 3.17 0.05 3.17 1.22 0 1.12 -0.20 1.17 -3.03 1.32 l-3.08 0.15 -0.15 1.86 -0.15 1.81 3.66 0 c3.61 0 3.71 0.05 3.71 1.22 l0 1.22 -5.13 0 -5.13 0 0 -7.32z"/>
 </g>
 <g fill="#6d5b59">
  <path d="M80.03 249.80 c-2.05 -0.73 -4.98 -2.44 -5.76 -3.42 -0.49 -0.54 -1.03 -0.49 -3.37 0.49 -7.57 3.08 -15.48 1.22 -19.14 -4.49 -2.29 -3.66 -2.49 -8.45 -0.29 -9.28 0.34 -0.15 1.71 0.44 3.03 1.22 2.93 1.86 4.98 1.95 6.98 0.24 2.10 -1.76 2.49 -3.76 2.49 -12.55 0 -5.13 0.24 -8.98 0.78 -11.47 1.51 -7.28 5.57 -13.28 10.89 -16.16 1.61 -0.83 3.61 -2.20 4.39 -2.98 1.22 -1.27 1.81 -1.46 3.96 -1.46 2.15 0 2.73 0.20 3.86 1.42 0.68 0.73 1.86 1.56 2.49 1.76 0.68 0.20 1.66 0.68 2.20 1.03 0.54 0.39 1.12 0.68 1.32 0.68 0.24 0 1.81 -2.98 3.56 -6.64 2.93 -6.15 3.22 -6.59 4.25 -6.25 2.29 0.68 2.34 0.44 -1.81 8.59 l-2.88 5.66 1.56 1.81 c4.15 4.74 5.71 8.84 6.45 17.48 0.98 11.52 3.03 14.06 10.74 13.28 l3.42 -0.34 0.54 1.37 c0.68 1.90 -0.15 6.54 -1.76 9.23 -1.90 3.27 -3.37 4.83 -6.01 6.25 -3.61 1.95 -7.08 2.49 -11.13 1.66 -3.27 -0.68 -3.37 -0.68 -5.08 0.44 -3.91 2.73 -11.62 3.91 -15.67 2.44z m11.43 -3.22 c1.71 -0.83 1.66 -1.12 -0.34 -1.86 -2.20 -0.83 -8.15 -4.79 -11.43 -7.62 -1.46 -1.22 -2.78 -2.25 -3.03 -2.25 -0.68 0 -1.56 1.42 -2 3.27 -0.83 3.66 1.07 6.93 4.93 8.69 2.05 0.93 9.72 0.78 11.87 -0.24z m-25.49 -0.98 c2.88 -0.54 5.32 -1.42 5.32 -1.90 0 -0.15 -1.46 -0.29 -3.32 -0.34 -4.30 -0.05 -9.67 -1.71 -12.50 -3.86 -1.27 -0.93 -2.34 -1.71 -2.49 -1.71 -0.49 0 1.32 3.66 2.34 4.79 1.61 1.71 4.20 2.88 7.71 3.47 0.20 0.05 1.51 -0.20 2.93 -0.44z m44.73 -2.73 c2.49 -1.56 5.52 -5.13 5.52 -6.49 0 -0.68 -0.49 -0.39 -2.05 1.07 -2.34 2.20 -6.30 4.83 -9.33 6.25 l-2.05 0.98 2.78 -0.20 c2 -0.10 3.47 -0.59 5.13 -1.61z m-10.55 -0.68 c5.47 -2 9.72 -4.44 12.74 -7.42 l2.59 -2.54 -3.37 -0.59 c-7.08 -1.32 -9.18 -4.44 -10.11 -14.84 -0.98 -10.84 -3.47 -16.11 -9.08 -19.14 -3.66 -1.95 -4.44 -2.10 -4.64 -0.83 -0.20 1.56 -1.12 1.66 -2.44 0.20 -1.17 -1.27 -1.22 -1.27 -2.83 -0.39 -0.93 0.54 -1.66 0.68 -1.76 0.39 -0.68 -1.71 -1.03 -1.81 -3.08 -0.73 -2.59 1.32 -5.71 4.10 -7.18 6.45 -0.63 1.03 -1.76 3.56 -2.49 5.62 -1.17 3.52 -1.32 4.64 -1.56 14.06 -0.29 9.42 -0.39 10.40 -1.37 11.96 -1.07 1.71 -2.25 2.69 -4.54 3.71 l-1.22 0.59 1.46 0.59 c1.71 0.68 8.94 1.61 9.86 1.27 0.34 -0.15 0.63 -1.07 0.63 -2.10 0 -2.29 1.81 -5.57 3.52 -6.40 1.76 -0.83 2.88 -0.29 7.23 3.52 2.25 1.95 5.52 4.15 8.45 5.66 2.64 1.32 4.88 2.44 4.98 2.44 0.15 0 2 -0.63 4.20 -1.46z"/>
  <path d="M83.06 229.15 c-3.03 -0.59 -5.22 -3.52 -4.74 -6.25 0.39 -2.05 3.08 -5.03 4.98 -5.57 2 -0.54 4.98 0.49 6.40 2.25 0.83 0.98 1.12 2 1.12 3.76 0 2 -0.24 2.59 -1.66 4 -0.93 0.93 -2.10 1.66 -2.64 1.66 -0.54 0 -1.27 0.10 -1.66 0.20 -0.34 0.10 -1.17 0.05 -1.81 -0.05z m4.35 -3.56 c2.15 -2.15 0.39 -5.86 -2.73 -5.86 -2.88 0 -4.69 3.86 -2.78 5.96 1.12 1.22 4.25 1.17 5.52 -0.10z"/>
  <path d="M83.01 224.37 c-0.88 -1.07 -0.05 -2.44 1.51 -2.44 0.98 0 1.17 0.24 1.17 1.46 0 1.12 -0.24 1.51 -1.03 1.61 -0.54 0.10 -1.32 -0.20 -1.66 -0.63z"/>
  <path d="M173.68 245.80 c-1.71 -0.59 -4.20 -2.25 -9.81 -6.54 -1.03 -0.83 -2.39 -1.46 -2.98 -1.46 -4.25 0 -9.72 -3.71 -11.96 -8.11 -1.71 -3.42 -1.95 -9.13 -0.49 -12.99 4.15 -11.18 20.61 -12.50 26.56 -2.20 2.54 4.39 2.69 10.79 0.34 15.38 -1.07 2.10 -5.62 6.45 -6.69 6.45 -0.39 0 -0.68 0.20 -0.68 0.44 0 0.78 6.35 5.52 8.20 6.15 1.27 0.44 1.86 0.98 1.95 1.71 0.29 1.95 -1.27 2.34 -4.44 1.17z m-8.25 -12.16 c5.03 -2.10 7.52 -8.35 5.96 -14.79 -0.68 -2.88 -3.32 -6.25 -5.71 -7.23 -4.59 -1.95 -10.06 0.44 -12.11 5.27 -1.07 2.59 -0.98 8.84 0.20 11.38 2.20 4.88 7.23 7.18 11.67 5.37z"/>
  <path d="M189.84 237.30 c-2.54 -0.78 -4.79 -2.54 -6.15 -4.79 -1.27 -2.25 -1.32 -2.54 -1.56 -11.82 -0.24 -9.33 -0.24 -9.52 -1.37 -10.01 -0.78 -0.34 -1.07 -0.83 -0.98 -1.71 0.15 -1.17 0.24 -1.22 4.69 -1.37 l4.49 -0.15 0 1.37 c0 0.98 -0.34 1.51 -1.07 1.86 -1.12 0.49 -1.12 0.63 -1.07 9.08 0 9.42 0.34 10.64 3.27 12.84 1.81 1.32 5.81 1.37 8.06 0.05 2.98 -1.76 3.52 -3.86 3.52 -13.33 l0 -8.40 -1.22 -0.29 c-1.22 -0.29 -1.56 -1.37 -0.78 -2.54 0.24 -0.44 1.46 -0.59 4.25 -0.49 3.76 0.15 3.86 0.20 4 1.42 0.10 1.03 -0.10 1.37 -1.07 1.61 l-1.27 0.29 0 8.20 c0 10.11 -0.59 12.60 -3.66 15.53 -2.88 2.78 -7.96 3.91 -12.06 2.64z"/>
  <path d="M284.47 237.21 c-1.03 -0.29 -2.83 -1.42 -3.96 -2.54 -3.08 -2.93 -3.66 -5.42 -3.66 -15.48 0 -7.76 -0.05 -8.20 -0.98 -8.50 -0.68 -0.20 -0.98 -0.73 -0.98 -1.76 l0 -1.46 4.54 0.15 c4.49 0.15 4.49 0.15 4.64 1.46 0.15 1.07 -0.10 1.42 -1.12 1.66 l-1.32 0.34 0.20 8.84 c0.15 8.15 0.24 8.98 1.27 10.60 1.32 2.15 3.42 3.13 6.59 3.08 2.69 -0.05 4.44 -1.12 5.96 -3.66 0.88 -1.46 0.98 -2.73 1.12 -10.30 l0.20 -8.64 -1.27 -0.34 c-0.98 -0.24 -1.27 -0.59 -1.27 -1.71 l0 -1.42 4.10 0 c3.27 0 4.15 0.15 4.39 0.78 0.49 1.27 0.34 1.66 -0.88 2.20 -1.17 0.54 -1.17 0.59 -1.37 9.67 -0.24 9.57 -0.49 10.89 -2.83 13.87 -2.39 2.98 -8.64 4.49 -13.38 3.17z"/>
  <path d="M120.41 236.91 c-0.44 -0.73 0.24 -2.44 1.07 -2.69 0.59 -0.15 1.86 -2.98 3.91 -8.69 4.05 -11.23 6.54 -17.09 7.52 -17.68 1.76 -1.12 1.61 -1.46 9.86 20.17 1.71 4.54 2.39 5.76 3.42 6.25 0.93 0.49 1.27 0.98 1.17 1.71 -0.15 1.03 -0.44 1.07 -4.93 1.22 l-4.79 0.15 0.15 -1.37 c0.10 -0.98 0.44 -1.42 1.27 -1.51 1.32 -0.20 1.32 0.05 0.05 -3.27 l-1.03 -2.73 -5.13 0.15 -5.13 0.15 -0.93 2.69 c-0.49 1.46 -0.93 2.69 -0.93 2.73 0 0.10 0.49 0.20 1.12 0.29 0.78 0.10 1.12 0.54 1.22 1.51 l0.15 1.32 -3.91 0 c-2.15 0 -4 -0.20 -4.15 -0.39z m14.75 -15.82 c-0.83 -2.25 -1.61 -4.44 -1.71 -4.88 -0.44 -1.56 -0.88 -0.93 -2.29 3.42 -0.78 2.34 -1.51 4.54 -1.61 4.88 -0.20 0.44 0.68 0.59 3.42 0.59 l3.71 0 -1.51 -4z"/>
  <path d="M207.52 236.13 c0 -0.68 0.49 -1.46 1.12 -1.90 0.88 -0.54 2.10 -3.32 4.88 -10.69 6.01 -15.97 5.91 -15.77 7.52 -15.92 l1.37 -0.15 5.13 13.28 c3.71 9.62 5.32 13.33 5.96 13.53 0.59 0.15 0.88 0.68 0.88 1.66 l0 1.42 -4.49 -0.15 c-4.30 -0.15 -4.54 -0.20 -4.69 -1.22 -0.15 -0.83 0.15 -1.27 1.07 -1.61 l1.27 -0.49 -0.98 -2.54 c-0.54 -1.42 -0.98 -2.64 -0.98 -2.73 0 -0.05 -2.34 -0.05 -5.22 0 l-5.18 0.15 -0.59 1.71 c-1.32 3.86 -1.32 3.81 -0.15 4 0.83 0.10 1.17 0.54 1.27 1.51 l0.15 1.32 -4.15 0 c-4.10 0 -4.20 -0.05 -4.20 -1.17z m16.50 -11.43 c-0.05 -0.20 -0.88 -2.39 -1.81 -4.88 -1.07 -2.98 -1.81 -4.35 -2.05 -3.91 -0.34 0.63 -3.37 8.69 -3.37 9.03 0 0.10 1.66 0.15 3.71 0.15 2.05 0 3.61 -0.15 3.52 -0.39z"/>
  <path d="M236.33 235.89 c0 -0.98 0.29 -1.46 0.98 -1.66 0.93 -0.24 0.98 -0.68 0.98 -11.72 0 -11.08 -0.05 -11.52 -0.98 -11.82 -0.68 -0.24 -0.98 -0.73 -0.98 -1.81 l0 -1.46 7.23 0.20 c6.30 0.15 7.47 0.29 9.47 1.27 5.32 2.59 6.20 9.03 1.86 12.99 -1.07 0.98 -2.39 1.76 -2.93 1.76 -0.54 0 -0.98 0.10 -0.98 0.24 0 0.83 7.03 10.50 7.81 10.74 0.63 0.20 0.98 0.73 0.98 1.51 0 1.12 -0.15 1.17 -2.88 1.17 l-2.88 0 -2.39 -3.76 c-1.37 -2.10 -3.03 -4.83 -3.76 -6.10 -1.42 -2.39 -2.29 -3.03 -3.76 -2.59 -0.83 0.29 -0.93 0.83 -0.93 4.88 0 4.35 0.05 4.59 1.12 4.74 0.78 0.10 1.12 0.54 1.22 1.51 l0.15 1.32 -4.64 0 -4.69 0 0 -1.42z m13.18 -14.94 c3.22 -1.66 3.96 -5.42 1.56 -8.11 -1.17 -1.32 -1.76 -1.56 -4.64 -1.76 l-3.27 -0.29 0 5.47 0 5.42 2.44 0 c1.37 0 3.13 -0.34 3.91 -0.73z"/>
  <path d="M262.21 236.08 c0 -0.88 0.34 -1.37 1.22 -1.71 l1.22 -0.49 0 -11.47 0 -11.47 -1.27 -0.29 c-0.98 -0.24 -1.17 -0.59 -1.07 -1.61 0.15 -1.27 0.20 -1.27 4.69 -1.42 l4.49 -0.15 0 1.46 c0 1.03 -0.29 1.56 -0.98 1.76 -0.93 0.29 -0.98 0.73 -0.98 11.96 l0 11.67 1.12 0.15 c0.78 0.10 1.12 0.54 1.22 1.51 l0.15 1.32 -4.88 0 -4.93 0 0 -1.22z"/>
  <path d="M305.66 236.08 c0 -0.88 0.34 -1.37 1.22 -1.71 l1.22 -0.49 0 -11.43 c0 -11.08 -0.05 -11.43 -1.03 -12.11 -0.78 -0.49 -0.98 -0.98 -0.73 -1.76 0.34 -0.98 0.68 -1.07 3.91 -1.07 l3.52 0 4.54 10.99 c2.49 6.05 4.69 10.99 4.88 10.99 0.15 0 2.39 -4.98 4.93 -11.04 l4.64 -10.99 2.64 0.15 2.64 0.15 0.05 13.18 0.05 13.18 1.12 0.15 c0.83 0.15 1.07 0.49 1.07 1.61 l0 1.42 -4.64 0 -4.64 0 0 -1.42 c0 -1.12 0.24 -1.46 1.12 -1.61 1.07 -0.15 1.07 -0.24 1.22 -9.42 0.05 -5.37 -0.05 -9.03 -0.29 -8.79 -0.24 0.29 -2.39 5.18 -4.79 10.84 -4.30 10.25 -4.35 10.40 -5.81 10.40 -1.46 0 -1.51 -0.10 -5.22 -9.13 -2.05 -5.08 -4.05 -9.96 -4.49 -10.89 -0.68 -1.61 -0.68 -1.07 -0.63 7.57 0.10 9.23 0.10 9.28 1.22 9.42 0.83 0.15 1.07 0.49 1.07 1.61 l0 1.42 -4.39 0 c-4.39 0 -4.39 0 -4.39 -1.22z"/>
 </g>
 <g fill="#ab4325">
  <path d="M79.69 249.56 c-1.42 -0.49 -3.37 -1.56 -4.39 -2.34 l-1.81 -1.46 -2.05 0.88 c-9.47 4 -18.99 0.44 -21.19 -7.96 -0.68 -2.54 -0.29 -4.59 1.07 -5.42 0.59 -0.39 1.22 -0.15 2.59 0.88 1.07 0.83 2.59 1.42 3.91 1.56 1.90 0.24 2.34 0.10 4 -1.46 l1.90 -1.71 0.29 -10.45 c0.24 -7.32 0.59 -11.23 1.12 -13.28 1.81 -6.40 6.30 -12.45 10.89 -14.60 1.27 -0.59 3.03 -1.81 3.91 -2.69 1.32 -1.37 1.86 -1.56 4.05 -1.56 2.05 0 2.69 0.20 3.66 1.27 0.98 1.07 5.52 3.61 6.45 3.61 0.10 0 1.61 -2.98 3.37 -6.59 1.71 -3.61 3.27 -6.59 3.52 -6.59 0.20 0 0.83 0.34 1.46 0.73 l1.07 0.78 -3.17 6.30 c-3.32 6.59 -3.61 7.52 -2.49 7.96 1.22 0.49 4.69 6.30 5.66 9.57 0.54 1.76 1.17 5.76 1.46 8.84 0.54 6.45 1.07 8.64 2.49 10.45 1.81 2.25 3.61 2.88 7.52 2.59 2.39 -0.24 3.66 -0.15 4.05 0.24 1.12 1.12 0.68 5.81 -0.83 8.98 -2.83 6.01 -7.42 8.98 -13.82 8.98 -2.05 0 -4.35 -0.24 -5.08 -0.49 -1.12 -0.44 -1.81 -0.29 -4.25 1.03 -5.52 2.93 -10.64 3.61 -15.38 1.95z m10.89 -2.64 c1.03 -0.39 1.95 -0.88 2.05 -1.12 0.10 -0.24 -1.46 -1.27 -3.42 -2.29 -2 -0.98 -5.52 -3.37 -7.91 -5.27 -2.49 -2 -4.54 -3.32 -4.98 -3.17 -1.03 0.44 -2.20 3.61 -1.95 5.47 0.83 5.96 8.64 9.03 16.21 6.40z m-22.66 -1.61 c4.69 -1.37 4.54 -1.86 -0.59 -2.20 -5.27 -0.34 -9.13 -1.61 -12.40 -4.15 -2.34 -1.76 -2.59 -1.61 -1.51 0.93 1.46 3.52 5.66 6.10 10.11 6.15 0.93 0.05 2.93 -0.29 4.39 -0.73z m41.75 -1.76 c2.49 -1.12 5.27 -4 6.30 -6.35 0.39 -1.03 0.63 -1.86 0.44 -1.86 -0.15 0 -1.61 1.22 -3.27 2.73 -1.66 1.46 -4.69 3.52 -6.79 4.59 -2.05 1.03 -3.61 2 -3.42 2.15 0.49 0.54 4.59 -0.24 6.74 -1.27z m-9.52 -1.37 c5.47 -2 9.72 -4.44 12.74 -7.42 l2.59 -2.54 -3.37 -0.59 c-7.08 -1.32 -9.18 -4.44 -10.11 -14.84 -0.98 -10.84 -3.47 -16.11 -9.08 -19.14 -3.66 -1.95 -4.44 -2.10 -4.64 -0.83 -0.20 1.56 -1.12 1.66 -2.44 0.20 -1.17 -1.27 -1.22 -1.27 -2.83 -0.39 -0.93 0.54 -1.66 0.68 -1.76 0.39 -0.68 -1.71 -1.03 -1.81 -3.08 -0.73 -2.59 1.32 -5.71 4.10 -7.18 6.45 -0.63 1.03 -1.76 3.56 -2.49 5.62 -1.17 3.52 -1.32 4.64 -1.56 14.06 -0.29 9.42 -0.39 10.40 -1.37 11.96 -1.07 1.71 -2.25 2.69 -4.54 3.71 l-1.22 0.59 1.46 0.59 c1.71 0.68 8.94 1.61 9.86 1.27 0.34 -0.15 0.63 -1.07 0.63 -2.10 0 -2.29 1.81 -5.57 3.52 -6.40 1.76 -0.83 2.88 -0.29 7.23 3.52 2.25 1.95 5.52 4.15 8.45 5.66 2.64 1.32 4.88 2.44 4.98 2.44 0.15 0 2 -0.63 4.20 -1.46z"/>
  <path d="M83.06 229.15 c-3.03 -0.59 -5.22 -3.52 -4.74 -6.25 0.39 -2.05 3.08 -5.03 4.98 -5.57 2 -0.54 4.98 0.49 6.40 2.25 0.83 0.98 1.12 2 1.12 3.76 0 2 -0.24 2.59 -1.66 4 -0.93 0.93 -2.10 1.66 -2.64 1.66 -0.54 0 -1.27 0.10 -1.66 0.20 -0.34 0.10 -1.17 0.05 -1.81 -0.05z m4.49 -3.61 c1.32 -1.61 1.07 -3.56 -0.68 -5.03 -0.83 -0.68 -1.66 -1.27 -1.90 -1.27 -2.39 0 -4.93 3.61 -3.96 5.71 1.03 2.25 4.83 2.59 6.54 0.59z"/>
  <path d="M83.11 224.51 c-0.88 -0.88 -0.73 -1.76 0.34 -2.34 1.12 -0.59 2.49 -0.15 2.49 0.73 0 2 -1.56 2.88 -2.83 1.61z"/>
  <path d="M74.61 216.06 c-0.39 -0.93 -0.39 -1.51 0 -2.49 0.49 -1.03 0.88 -1.22 2.15 -1.07 1.17 0.10 1.66 0.44 2 1.51 0.88 2.73 -2.93 4.64 -4.15 2.05z"/>
  <path d="M90.33 216.31 c-1.22 -2.25 0.83 -4.64 3.17 -3.76 0.93 0.39 1.51 2.73 0.88 3.71 -0.78 1.27 -3.37 1.27 -4.05 0.05z"/>
 </g>
 <g fill="#702a17">
  <path d="M79.69 249.56 c-1.42 -0.49 -3.37 -1.56 -4.39 -2.34 l-1.81 -1.46 -2.05 0.88 c-9.47 4 -18.99 0.44 -21.19 -7.96 -0.68 -2.54 -0.29 -4.59 1.07 -5.42 0.59 -0.39 1.22 -0.15 2.59 0.88 1.07 0.83 2.59 1.42 3.91 1.56 1.90 0.24 2.34 0.10 4 -1.46 l1.90 -1.71 0.29 -10.45 c0.24 -7.32 0.59 -11.23 1.12 -13.28 1.81 -6.40 6.30 -12.45 10.89 -14.60 1.27 -0.59 3.03 -1.81 3.91 -2.69 1.32 -1.37 1.86 -1.56 4.05 -1.56 2.05 0 2.69 0.20 3.66 1.27 0.98 1.07 5.52 3.61 6.45 3.61 0.10 0 1.61 -2.98 3.37 -6.59 1.71 -3.61 3.27 -6.59 3.52 -6.59 0.20 0 0.83 0.34 1.46 0.73 l1.07 0.78 -3.17 6.30 c-3.32 6.59 -3.61 7.52 -2.49 7.96 1.22 0.49 4.69 6.30 5.66 9.57 0.54 1.76 1.17 5.76 1.46 8.84 0.54 6.45 1.07 8.64 2.49 10.45 1.81 2.25 3.61 2.88 7.52 2.59 2.39 -0.24 3.66 -0.15 4.05 0.24 1.12 1.12 0.68 5.81 -0.83 8.98 -2.83 6.01 -7.42 8.98 -13.82 8.98 -2.05 0 -4.35 -0.24 -5.08 -0.49 -1.12 -0.44 -1.81 -0.29 -4.25 1.03 -5.52 2.93 -10.64 3.61 -15.38 1.95z m10.89 -2.64 c1.03 -0.39 1.95 -0.88 2.05 -1.12 0.10 -0.24 -1.46 -1.27 -3.42 -2.29 -2 -0.98 -5.52 -3.37 -7.91 -5.27 -2.49 -2 -4.54 -3.32 -4.98 -3.17 -0.88 0.34 -2.10 3.27 -2.10 5.03 0 3.03 3.61 6.69 7.37 7.47 2.59 0.54 6.40 0.24 8.98 -0.63z m-22.66 -1.61 c4.69 -1.37 4.54 -1.86 -0.59 -2.20 -5.27 -0.34 -9.13 -1.61 -12.40 -4.15 -2.34 -1.76 -2.59 -1.61 -1.51 0.93 1.46 3.52 5.66 6.10 10.11 6.15 0.93 0.05 2.93 -0.29 4.39 -0.73z m41.75 -1.76 c2.49 -1.12 5.27 -4 6.30 -6.35 0.39 -1.03 0.63 -1.86 0.44 -1.86 -0.15 0 -1.61 1.22 -3.27 2.73 -1.66 1.46 -4.69 3.52 -6.79 4.59 -2.05 1.03 -3.61 2 -3.42 2.15 0.49 0.54 4.59 -0.24 6.74 -1.27z m-9.13 -1.32 c2.10 -0.78 5.37 -2.29 7.23 -3.37 3.17 -1.86 7.47 -5.81 7.47 -6.93 0 -0.24 -1.03 -0.49 -2.29 -0.49 -2.93 0 -5.91 -1.37 -7.62 -3.37 -1.76 -2.15 -2.69 -5.52 -3.27 -12.35 -0.73 -8.40 -2.39 -12.60 -6.40 -16.21 -1.90 -1.76 -5.37 -3.66 -6.64 -3.71 -0.34 0 -0.63 0.44 -0.63 0.98 0 0.63 -0.34 0.98 -0.98 0.98 -0.54 0 -1.22 -0.44 -1.56 -0.98 -0.68 -1.03 -2.10 -1.32 -2.59 -0.49 -0.49 0.78 -1.81 0.59 -2.49 -0.39 -0.59 -0.78 -0.73 -0.78 -2.93 0.34 -4.93 2.59 -8.30 7.37 -10.25 14.45 -0.54 2.10 -0.83 5.52 -0.93 12.26 -0.10 7.42 -0.29 9.62 -0.93 10.84 -0.88 1.66 -3.32 3.71 -5.13 4.25 -0.59 0.20 -0.93 0.54 -0.73 0.73 0.78 0.78 6.25 1.95 9.08 1.95 2.83 0 2.83 0 2.83 -1.46 0 -1.86 1.17 -4.79 2.54 -6.20 2 -2.10 3.42 -1.51 9.47 3.76 2.49 2.20 10.84 6.84 12.26 6.84 0.34 0 2.34 -0.63 4.49 -1.42z"/>
  <path d="M81.74 228.52 c-1.76 -0.68 -3.13 -2.88 -3.13 -5.03 0 -1.66 0.34 -2.25 2.20 -4.15 2.10 -2.10 2.29 -2.15 4.49 -1.90 4.35 0.49 6.79 4.79 4.79 8.59 -1.22 2.39 -5.47 3.66 -8.35 2.49z m5.76 -2.78 c1.42 -1.27 1.12 -3.76 -0.63 -5.22 -0.83 -0.68 -1.66 -1.27 -1.90 -1.27 -2.39 0 -4.93 3.61 -3.96 5.71 0.98 2.15 4.49 2.59 6.49 0.78z"/>
  <path d="M83.35 224.76 c-0.63 -0.59 -0.34 -2.49 0.39 -2.78 1.07 -0.39 2.20 0.20 2.20 1.12 0 1.46 -1.71 2.54 -2.59 1.66z"/>
  <path d="M75.24 216.60 c-1.51 -1.81 0.44 -5.03 2.29 -3.91 1.76 1.12 1.12 4.59 -0.88 4.59 -0.49 0 -1.12 -0.29 -1.42 -0.68z"/>
  <path d="M90.92 216.70 c-0.34 -0.34 -0.59 -1.17 -0.59 -1.86 0 -2.44 2.29 -3.32 3.61 -1.37 0.98 1.37 0.98 2.10 0 3.03 -0.88 0.93 -2.20 1.03 -3.03 0.20z"/>
 </g>
 <g fill="#40322f">
  <path d="M79.69 249.56 c-1.42 -0.49 -3.37 -1.56 -4.39 -2.34 l-1.81 -1.46 -2.05 0.88 c-9.47 4 -18.99 0.44 -21.19 -7.96 -0.68 -2.54 -0.29 -4.59 1.07 -5.42 0.59 -0.39 1.22 -0.15 2.59 0.88 1.07 0.83 2.59 1.42 3.91 1.56 1.90 0.24 2.34 0.10 4 -1.46 l1.90 -1.71 0.29 -10.45 c0.24 -7.32 0.59 -11.23 1.12 -13.28 1.81 -6.40 6.30 -12.45 10.89 -14.60 1.27 -0.59 3.03 -1.81 3.91 -2.69 1.32 -1.37 1.86 -1.56 4.05 -1.56 2.05 0 2.69 0.20 3.66 1.27 0.98 1.07 5.52 3.61 6.45 3.61 0.10 0 1.61 -2.98 3.37 -6.59 1.71 -3.61 3.27 -6.59 3.52 -6.59 0.20 0 0.83 0.34 1.46 0.73 l1.07 0.78 -3.17 6.30 c-3.32 6.59 -3.61 7.52 -2.49 7.96 1.22 0.49 4.69 6.30 5.66 9.57 0.54 1.76 1.17 5.76 1.46 8.84 0.54 6.45 1.07 8.64 2.49 10.45 1.81 2.25 3.61 2.88 7.52 2.59 2.39 -0.24 3.66 -0.15 4.05 0.24 1.12 1.12 0.68 5.81 -0.83 8.98 -2.83 6.01 -7.42 8.98 -13.82 8.98 -2.05 0 -4.35 -0.24 -5.08 -0.49 -1.12 -0.44 -1.81 -0.29 -4.25 1.03 -5.52 2.93 -10.64 3.61 -15.38 1.95z m10.84 -2.64 c1.07 -0.34 2 -0.88 2.10 -1.12 0.10 -0.24 -1.46 -1.27 -3.42 -2.29 -2 -0.98 -5.52 -3.37 -7.86 -5.27 -2.59 -2.10 -4.54 -3.32 -4.98 -3.17 -1.17 0.44 -2.29 3.71 -2 5.86 0.34 2.64 3.32 5.57 6.49 6.45 2.69 0.78 6.79 0.59 9.67 -0.44z m-22.75 -1.51 c1.42 -0.39 2.93 -0.98 3.37 -1.37 0.68 -0.54 0.10 -0.68 -3.81 -0.93 -5.27 -0.34 -9.13 -1.61 -12.40 -4.15 -2.44 -1.81 -2.69 -1.51 -1.22 1.51 2.20 4.59 7.86 6.54 14.06 4.93z m41.89 -1.86 c2.49 -1.12 5.27 -4 6.30 -6.35 0.39 -1.03 0.63 -1.86 0.44 -1.86 -0.15 0 -1.61 1.22 -3.27 2.73 -1.66 1.46 -4.69 3.52 -6.79 4.59 -2.05 1.03 -3.61 2 -3.42 2.15 0.49 0.54 4.59 -0.24 6.74 -1.27z m-8.74 -1.12 c4.98 -1.90 9.38 -4.54 12.26 -7.37 1.37 -1.42 2.54 -2.78 2.54 -3.08 0 -0.29 -0.73 -0.54 -1.61 -0.54 -3.22 0 -6.54 -1.37 -8.30 -3.42 -2.10 -2.49 -2.59 -4.20 -3.47 -12.21 -0.73 -6.84 -1.46 -9.57 -3.47 -12.99 -1.95 -3.32 -6.40 -6.64 -9.52 -7.08 -0.98 -0.15 -1.27 0.05 -1.37 0.88 -0.20 1.42 -0.49 1.42 -2.15 -0.15 -1.32 -1.27 -1.37 -1.32 -2.64 -0.44 -1.27 0.83 -1.32 0.83 -2.15 -0.24 l-0.83 -1.07 -2.05 1.07 c-2.59 1.32 -6.15 4.54 -7.67 6.93 -0.63 1.03 -1.76 3.56 -2.49 5.62 -1.17 3.47 -1.32 4.64 -1.56 13.82 -0.34 12.30 -0.39 12.35 -6.20 15.97 -0.83 0.49 -0.73 0.63 1.27 1.51 1.22 0.54 3.91 1.12 6.01 1.27 4.20 0.39 4.30 0.29 4.98 -3.71 0.15 -1.03 0.83 -2.49 1.51 -3.32 1.90 -2.20 3.47 -2 7.08 1.12 4.59 3.91 5.22 4.35 9.47 6.54 2.20 1.17 4.59 2.10 5.47 2.10 0.88 0 3.08 -0.54 4.88 -1.22z"/>
  <path d="M83.01 228.47 c-1.95 -0.39 -4.39 -2.88 -4.39 -4.39 0 -1.61 1.46 -4.30 2.88 -5.27 2.69 -1.86 4.93 -1.61 7.52 0.83 1.07 1.03 1.32 1.66 1.32 3.66 0 2 -0.24 2.59 -1.46 3.76 -1.61 1.51 -3.32 1.90 -5.86 1.42z m3.13 -1.90 c0.68 -0.24 1.56 -1.03 2.05 -1.71 1.03 -1.61 0.29 -3.61 -1.81 -4.83 -1.90 -1.12 -3.86 -0.39 -5.13 1.90 -0.73 1.37 -0.78 1.86 -0.29 2.93 0.88 1.86 2.93 2.59 5.18 1.71z"/>
  <path d="M83.59 224.66 c-1.03 -0.63 -0.49 -2.25 0.78 -2.39 1.32 -0.20 1.95 1.07 1.07 2.10 -0.68 0.83 -0.98 0.88 -1.86 0.29z"/>
  <path d="M75.20 216.06 c-0.34 -0.39 -0.49 -1.22 -0.29 -1.95 0.44 -1.71 2.54 -1.71 3.32 0 0.93 2.10 -1.56 3.71 -3.03 1.95z"/>
  <path d="M90.87 216.11 c-0.78 -0.93 -0.54 -2.25 0.59 -2.93 1.22 -0.78 2.54 0.20 2.54 1.95 0 1.17 -0.24 1.46 -1.27 1.56 -0.68 0.10 -1.51 -0.20 -1.86 -0.59z"/>
  <path d="M171.53 244.68 c-1.42 -0.78 -4 -2.64 -5.76 -4.10 -2.69 -2.20 -3.66 -2.73 -5.71 -2.98 -9.13 -1.22 -14.65 -10.55 -11.87 -20.07 1.12 -3.96 5.13 -7.96 9.23 -9.23 7.37 -2.29 15.53 1.03 18.21 7.47 1.71 4.05 1.61 10.40 -0.15 13.82 -1.12 2.20 -4.39 5.57 -6.05 6.25 -0.83 0.34 -1.46 0.78 -1.46 1.03 0 1.07 6.49 5.62 9.42 6.49 0.49 0.15 0.83 0.73 0.83 1.51 0 1.12 -0.20 1.22 -2.05 1.22 -1.37 0 -2.98 -0.49 -4.64 -1.42z m-5.71 -11.23 c4.10 -1.86 6.35 -6.25 5.96 -11.87 -0.34 -5.81 -3.52 -9.86 -8.15 -10.50 -6.49 -0.88 -10.94 3.76 -10.94 11.38 0 8.64 6.40 14.01 13.13 10.99z"/>
  <path d="M190.19 237.26 c-3.66 -0.88 -6.54 -3.71 -7.57 -7.32 -0.29 -0.93 -0.49 -5.57 -0.49 -10.35 l0 -8.64 -1.27 -0.49 c-0.93 -0.34 -1.22 -0.78 -1.07 -1.61 0.15 -1.03 0.39 -1.07 4.69 -1.22 l4.49 -0.15 0 1.46 c0 1.12 -0.24 1.46 -1.07 1.61 -1.07 0.15 -1.12 0.29 -1.27 7.18 -0.15 8.50 0.39 11.91 2.20 13.82 3.42 3.56 9.96 2.64 12.01 -1.71 0.68 -1.42 0.83 -3.27 0.83 -10.35 0 -8.20 -0.05 -8.64 -0.98 -8.89 -0.68 -0.20 -0.98 -0.68 -0.98 -1.66 l0 -1.42 3.86 0 c3.08 0 3.91 0.15 4.15 0.78 0.49 1.27 0.34 1.66 -0.93 2.25 l-1.22 0.54 0 7.71 c0 4.25 -0.24 8.84 -0.54 10.16 -0.63 3.13 -2.83 6.10 -5.32 7.37 -2.29 1.17 -6.79 1.61 -9.52 0.93z"/>
  <path d="M285.40 237.35 c-4.15 -1.03 -7.13 -4.15 -8.01 -8.40 -0.29 -1.32 -0.54 -5.96 -0.54 -10.25 0 -7.42 -0.05 -7.86 -0.98 -8.11 -0.68 -0.20 -0.98 -0.68 -0.98 -1.66 l0 -1.42 4.35 0 c3.52 0 4.39 0.15 4.64 0.78 0.49 1.27 0.34 1.66 -0.93 2.25 l-1.22 0.54 0 8.35 c0 10.25 0.54 11.91 4.20 13.57 3.76 1.66 7.13 0.68 9.67 -2.73 0.93 -1.22 1.03 -2 1.03 -10.45 0 -9.08 0 -9.13 -1.07 -9.28 -0.88 -0.15 -1.12 -0.49 -1.12 -1.61 l0 -1.42 4.15 0 4.15 0 0 1.42 c0 0.98 -0.29 1.46 -0.93 1.66 -0.88 0.20 -0.93 0.88 -1.12 9.18 -0.15 8.50 -0.24 9.13 -1.42 11.72 -0.73 1.56 -1.95 3.22 -2.83 3.86 -2.98 2.10 -7.37 2.88 -11.04 2z"/>
  <path d="M120.61 235.89 c0 -0.93 0.29 -1.46 0.88 -1.61 0.59 -0.20 1.51 -2.05 2.98 -6.05 5.42 -14.89 7.52 -19.82 8.69 -20.36 0.68 -0.29 1.32 -0.34 1.56 -0.05 0.24 0.24 2 4.64 3.96 9.72 1.95 5.13 4.15 10.94 4.93 12.99 1.03 2.59 1.76 3.81 2.39 4 0.68 0.15 0.98 0.68 0.98 1.51 l0 1.32 -4.49 -0.15 c-4.25 -0.15 -4.54 -0.20 -4.69 -1.22 -0.15 -0.83 0.15 -1.17 1.07 -1.42 1.51 -0.34 1.51 -0.29 0.34 -3.37 l-0.93 -2.44 -5.22 0 -5.27 0 -0.59 1.71 c-1.32 3.86 -1.32 3.81 -0.15 4 0.83 0.10 1.17 0.54 1.27 1.51 l0.15 1.32 -3.91 0 -3.96 0 0 -1.42z m15.87 -11.62 c-0.20 -0.49 -1.03 -2.69 -1.81 -4.88 -0.83 -2.25 -1.61 -4.05 -1.81 -4.05 -0.24 0 -3.47 8.69 -3.47 9.42 0 0.20 1.66 0.34 3.71 0.34 3.37 0 3.66 -0.10 3.37 -0.83z"/>
  <path d="M207.52 236.04 c0 -0.83 0.29 -1.37 0.93 -1.51 1.07 -0.24 1.51 -1.17 3.81 -7.47 0.93 -2.54 2.98 -8.01 4.59 -12.06 2.83 -7.13 3.03 -7.47 4.30 -7.47 1.27 0 1.46 0.29 3.13 4.79 5.18 14.21 8.15 21.39 9.08 22.02 0.59 0.34 1.03 1.17 1.03 1.81 0 1.12 -0.10 1.17 -4.39 1.17 l-4.39 0 0 -1.46 c0 -1.17 0.20 -1.46 1.03 -1.46 1.07 0 1.07 0 -0.29 -3.91 l-0.59 -1.71 -5.27 0 -5.27 0 -0.59 1.71 c-1.32 3.86 -1.32 3.81 -0.15 4 0.83 0.10 1.12 0.49 1.12 1.37 0 1.17 -0.10 1.22 -4 1.37 l-4.05 0.15 0 -1.32z m16.50 -11.52 c-2.44 -6.64 -3.52 -9.18 -3.81 -8.84 -0.34 0.34 -3.42 8.69 -3.42 9.23 0 0.10 1.66 0.20 3.71 0.20 2.78 0 3.66 -0.15 3.52 -0.59z"/>
  <path d="M236.33 235.84 c0 -1.12 0.20 -1.46 0.98 -1.46 0.93 0 0.98 -0.34 0.98 -11.67 0 -11.28 -0.05 -11.72 -0.98 -12.01 -0.68 -0.24 -0.98 -0.73 -0.98 -1.81 l0 -1.51 6.98 0.24 c7.91 0.29 10.16 0.93 12.55 3.61 1.27 1.46 1.46 2.05 1.46 4.54 0 3.47 -1.32 5.66 -4.15 7.13 -1.07 0.54 -2.05 1.03 -2.10 1.07 -0.49 0.24 6.69 10.21 7.62 10.64 0.63 0.29 1.07 0.93 1.07 1.61 0 1.07 -0.15 1.12 -2.98 0.98 l-2.98 -0.15 -3.76 -6.10 c-3.42 -5.62 -3.86 -6.10 -5.32 -6.25 l-1.56 -0.15 0 4.83 c0 4.79 0 4.88 1.22 5.18 0.88 0.24 1.22 0.63 1.22 1.51 0 1.22 -0.05 1.22 -4.64 1.22 l-4.64 0 0 -1.46z m14.70 -16.02 c1.07 -1.22 1.42 -2.05 1.42 -3.66 0 -3.47 -2.29 -5.22 -6.88 -5.22 l-2.39 0 0 5.42 0 5.42 3.22 -0.20 c2.93 -0.20 3.42 -0.34 4.64 -1.76z"/>
  <path d="M262.55 237.01 c-0.78 -0.78 -0.29 -2.20 0.88 -2.64 l1.22 -0.49 0 -11.47 0 -11.47 -1.27 -0.49 c-0.93 -0.34 -1.22 -0.78 -1.07 -1.61 0.15 -1.03 0.39 -1.07 4.69 -1.22 l4.49 -0.15 0 1.42 c0 1.03 -0.29 1.51 -0.93 1.71 -1.27 0.29 -1.32 1.27 -1.17 12.16 0.10 5.27 0.15 10.01 0.15 10.55 0 0.63 0.44 1.07 1.27 1.27 0.93 0.24 1.22 0.59 1.07 1.42 -0.15 1.03 -0.44 1.07 -4.54 1.22 -2.44 0.05 -4.59 0 -4.79 -0.20z"/>
  <path d="M305.86 236.57 c-0.44 -1.12 0.15 -2.20 1.27 -2.20 0.93 0 0.98 -0.29 0.98 -9.38 0 -5.18 0.15 -10.21 0.29 -11.18 0.24 -1.42 0.10 -2 -0.73 -2.83 -0.54 -0.54 -1.03 -1.56 -1.03 -2.25 0 -1.27 0.05 -1.27 3.52 -1.12 l3.52 0.15 2.29 5.37 c1.27 2.98 3.32 7.86 4.59 10.89 1.27 2.98 2.44 5.47 2.64 5.47 0.15 0 2.39 -4.88 4.93 -10.84 l4.64 -10.89 2.59 -0.15 c1.81 -0.10 2.54 0.05 2.54 0.49 0.05 0.34 0.05 6.40 0 13.43 l-0.05 12.74 1.12 0.20 c0.83 0.10 1.17 0.54 1.27 1.51 l0.15 1.32 -4.64 0 -4.69 0 0 -1.42 c0 -1.12 0.24 -1.46 1.12 -1.61 1.07 -0.15 1.07 -0.24 1.22 -9.28 0.10 -6.01 -0.05 -9.18 -0.39 -9.18 -0.24 0 -0.49 0.29 -0.49 0.63 -0.05 0.29 -1.95 5.08 -4.30 10.60 -4.15 9.62 -4.35 10.01 -5.76 10.16 -1.42 0.10 -1.42 0.10 -5.76 -10.64 -2.44 -5.91 -4.44 -10.74 -4.54 -10.74 -0.10 0 -0.15 4.20 -0.15 9.28 l0 9.28 1.22 0 c1.03 0 1.22 0.24 1.22 1.46 l0 1.46 -4.15 0 c-3.27 0 -4.25 -0.15 -4.44 -0.73z"/>
 </g>
 <g fill="#181210">
  <path d="M81.79 250.15 c-2.10 -0.44 -4 -1.37 -6.15 -2.93 l-2.29 -1.61 -2.34 1.07 c-3.37 1.46 -9.67 1.81 -12.74 0.63 -5.32 -2.05 -9.52 -8.59 -8.01 -12.55 0.68 -1.86 1.61 -1.90 3.96 -0.34 3.61 2.44 7.67 1.61 9.08 -1.86 0.49 -1.07 0.68 -3.91 0.68 -9.28 0.05 -8.11 0.73 -13.38 2.29 -17.53 1.90 -4.88 6.01 -9.67 9.91 -11.52 1.22 -0.54 2.78 -1.66 3.47 -2.49 0.98 -1.17 1.76 -1.51 3.71 -1.66 2.15 -0.24 2.64 -0.10 4.10 1.17 2.39 2.05 6.15 3.81 6.93 3.17 0.29 -0.29 1.81 -3.17 3.27 -6.40 2.29 -5.03 2.83 -5.91 3.81 -5.91 0.59 0 1.22 0.34 1.42 0.78 0.15 0.39 -1.12 3.52 -2.93 7.18 l-3.22 6.45 1.86 1.95 c4.05 4.25 5.52 8.35 6.35 17.97 0.54 6.25 1.46 9.03 3.66 11.08 1.22 1.12 1.76 1.22 5.57 1.22 2.34 0 4.54 0.20 4.93 0.44 1.17 0.73 0.44 6.54 -1.22 9.52 -1.76 3.27 -5.42 6.59 -8.35 7.57 -2.59 0.88 -7.37 1.03 -9.91 0.29 -1.51 -0.44 -2.10 -0.29 -5.13 1.22 -4.49 2.25 -9.23 3.13 -12.70 2.34z m8.74 -2.98 c1.32 -0.44 2.49 -1.07 2.59 -1.37 0.10 -0.24 -1.22 -1.12 -2.88 -1.95 -3.27 -1.56 -7.71 -4.64 -10.99 -7.57 -1.17 -1.07 -2.29 -1.90 -2.59 -1.90 -0.98 0 -2.44 3.17 -2.44 5.27 0 3.56 2.29 6.49 6.10 7.81 2.25 0.78 7.52 0.63 10.21 -0.29z m-21.48 -1.95 c3.76 -1.27 3.37 -1.86 -1.51 -2.15 -4.98 -0.34 -8.94 -1.66 -12.11 -4.10 -1.22 -0.93 -2.29 -1.66 -2.44 -1.66 -0.15 0 -0.24 0.49 -0.24 1.12 0 2.39 3.27 5.91 6.59 7.08 2.25 0.78 7.03 0.63 9.72 -0.29z m38.38 -0.59 c2.88 -0.78 6.25 -3.27 7.81 -5.71 2.59 -4.05 1.86 -4.39 -2.05 -1.12 -1.95 1.66 -5.22 3.81 -7.32 4.79 -2.05 0.98 -3.76 1.95 -3.76 2.20 -0.05 0.49 3.32 0.44 5.32 -0.15z m-7.52 -1.76 c5.62 -2.10 10.06 -4.69 13.04 -7.52 1.51 -1.51 2.78 -2.98 2.78 -3.27 0 -0.29 -1.27 -0.63 -2.78 -0.83 -4.88 -0.54 -8.20 -3.22 -9.42 -7.57 -0.24 -0.98 -0.73 -4.39 -1.03 -7.62 -0.98 -10.94 -3.86 -16.21 -10.45 -19.34 -3.47 -1.66 -4.15 -1.76 -4.15 -0.44 0 1.27 -1.27 1.27 -1.95 0 -0.63 -1.17 -1.81 -1.27 -2.98 -0.20 -0.93 0.83 -1.90 0.54 -1.90 -0.59 0 -0.98 -0.63 -0.88 -3.37 0.49 -3.13 1.61 -6.54 4.98 -8.11 8.11 -2.49 4.88 -3.27 9.18 -3.27 18.07 0 4.44 -0.20 8.89 -0.44 9.86 -0.63 2.44 -2.44 4.49 -4.83 5.47 -1.07 0.44 -1.95 0.88 -1.95 1.03 0 0.20 0.98 0.73 2.20 1.27 1.56 0.68 3.42 0.98 6.45 1.07 l4.30 0.10 0.24 -2.20 c0.49 -3.66 2.29 -6.35 4.35 -6.35 0.88 0 2.64 1.12 5.42 3.42 4.20 3.47 8.74 6.35 12.11 7.57 2.39 0.88 1.95 0.93 5.76 -0.54z"/>
  <path d="M80.86 227.49 c-2.83 -2.25 -2.64 -5.52 0.49 -8.25 2.44 -2.15 5.08 -2.05 7.32 0.20 1.81 1.81 2.20 4 1.07 6.40 -1.22 2.73 -6.35 3.66 -8.89 1.66z m6.79 -1.66 c1.61 -1.61 1.56 -3.42 -0.20 -5.18 -1.95 -1.95 -3.96 -1.90 -5.62 0.10 -2.49 2.93 -1.03 6.30 2.73 6.30 1.37 0 2.25 -0.34 3.08 -1.22z"/>
  <path d="M83.20 223.88 c-0.39 -0.93 0.15 -1.71 1.22 -1.71 1.17 0 1.46 0.39 1.17 1.51 -0.29 1.07 -2 1.27 -2.39 0.20z"/>
  <path d="M75.29 216.21 c-1.32 -1.32 -0.15 -3.56 1.71 -3.22 1.32 0.24 1.22 3.52 -0.10 3.71 -0.54 0.05 -1.27 -0.15 -1.61 -0.49z"/>
  <path d="M90.82 215.87 c-1.22 -2.29 1.76 -4.05 3.13 -1.86 0.39 0.59 0.39 1.07 0 1.71 -0.78 1.22 -2.49 1.32 -3.13 0.15z"/>
  <path d="M172.07 244.87 c-1.32 -0.63 -3.91 -2.44 -5.71 -3.96 -2.83 -2.34 -3.86 -2.88 -6.59 -3.47 -4.15 -0.83 -6.93 -2.49 -9.13 -5.37 -5.91 -7.71 -3.22 -19.34 5.32 -23.14 7.18 -3.17 15.38 -0.63 18.99 5.86 1.27 2.29 1.56 3.32 1.71 6.93 0.20 3.76 0.05 4.59 -0.98 6.88 -1.46 3.22 -3.66 5.76 -5.96 6.98 -0.98 0.54 -1.76 1.17 -1.76 1.46 0.05 0.88 6.54 5.62 8.45 6.10 1.46 0.44 1.81 0.73 1.81 1.71 0 1.07 -0.20 1.22 -1.86 1.22 -1.03 0 -2.93 -0.54 -4.30 -1.22z m-6.69 -11.04 c1.95 -0.73 4.49 -3.27 5.57 -5.57 1.86 -4.05 0.88 -11.47 -1.90 -14.55 -2.78 -3.08 -8.25 -3.71 -11.91 -1.37 -6.79 4.30 -6.01 17.77 1.22 21.09 2.29 1.03 4.98 1.17 7.03 0.39z"/>
  <path d="M190.92 237.35 c-2.29 -0.49 -3.81 -1.32 -5.76 -3.13 -2.49 -2.39 -3.03 -5.03 -3.03 -14.89 0 -7.91 -0.05 -8.50 -0.93 -8.74 -0.49 -0.15 -1.03 -0.73 -1.12 -1.37 -0.24 -1.07 -0.05 -1.17 2.73 -1.46 4.64 -0.49 5.86 -0.24 6.05 1.32 0.15 1.03 -0.05 1.32 -0.98 1.46 l-1.12 0.15 0 9.03 c0 8.54 0.05 9.13 1.12 10.79 1.46 2.39 3.96 3.56 7.03 3.27 2.93 -0.29 4.69 -1.51 6.01 -4.10 0.78 -1.56 0.98 -3.22 1.12 -9.33 0.24 -8.40 0.05 -9.91 -1.37 -9.91 -0.78 0 -0.98 -0.34 -0.98 -1.46 l0 -1.46 3.91 0 3.91 0 0 1.42 c0 0.98 -0.29 1.46 -0.98 1.66 -0.93 0.24 -0.98 0.68 -0.98 7.86 0 8.64 -0.49 11.52 -2.39 14.60 -2.20 3.42 -7.52 5.32 -12.26 4.30z"/>
  <path d="M285.01 237.11 c-3.32 -0.93 -4.79 -2.10 -6.45 -5.42 -1.42 -2.78 -1.42 -3.03 -1.61 -11.82 -0.20 -8.15 -0.29 -9.03 -1.12 -9.47 -0.54 -0.24 -0.93 -0.93 -0.93 -1.42 0 -0.88 0.34 -0.98 3.61 -0.98 2 0 3.96 -0.15 4.39 -0.29 0.59 -0.24 0.78 0.05 0.78 1.17 0 1.03 -0.29 1.51 -0.98 1.71 -0.93 0.24 -0.98 0.68 -0.98 8.98 0 7.32 0.15 8.94 0.88 10.35 1.81 3.61 5.96 4.88 9.96 3.08 1.71 -0.73 2.44 -1.42 3.27 -3.13 0.98 -2.05 1.03 -2.83 0.93 -10.69 -0.15 -8.45 -0.15 -8.50 -1.27 -8.64 -0.93 -0.15 -1.12 -0.44 -0.98 -1.46 0.15 -1.32 0.20 -1.32 4.20 -1.46 l4 -0.15 0 1.42 c0 1.03 -0.29 1.51 -0.98 1.71 -0.93 0.24 -0.98 0.68 -0.98 7.28 0 11.04 -1.17 15.19 -4.93 17.72 -3.22 2.10 -6.79 2.59 -10.84 1.51z"/>
  <path d="M120.61 236.08 c0 -0.68 0.39 -1.42 0.93 -1.66 0.59 -0.34 2 -3.52 4.10 -9.18 5.81 -15.63 6.45 -16.99 8.01 -17.14 1.37 -0.10 1.42 0 5.47 10.74 5.47 14.50 5.86 15.43 6.93 15.77 0.59 0.20 0.93 0.78 0.93 1.51 0 1.17 -0.05 1.17 -4.39 1.17 -4.35 0 -4.39 0 -4.39 -1.17 0 -0.78 0.34 -1.32 1.03 -1.51 1.12 -0.39 1.07 -1.07 -0.29 -4.30 l-0.73 -1.81 -3.42 -0.10 c-7.62 -0.20 -6.79 -0.49 -7.86 2.54 -1.17 3.32 -1.17 3.32 0.29 3.71 0.88 0.20 1.22 0.63 1.22 1.46 0 1.12 -0.10 1.17 -3.91 1.17 -3.81 0 -3.91 -0.05 -3.91 -1.22z m14.89 -14.70 c-2 -5.32 -2.29 -6.05 -2.64 -6.05 -0.34 0 -3.47 8.59 -3.47 9.38 0 0.44 6.45 0.73 6.98 0.34 0.20 -0.15 -0.20 -1.81 -0.88 -3.66z"/>
  <path d="M207.86 237.01 c-0.73 -0.73 -0.29 -2.20 0.78 -2.59 0.88 -0.34 1.56 -1.61 2.98 -5.52 1.03 -2.73 3.32 -8.74 5.08 -13.23 3.03 -7.76 3.27 -8.20 4.44 -8.06 1.12 0.15 1.61 1.22 6.30 13.43 3.86 9.96 5.32 13.33 6.01 13.48 0.63 0.15 0.93 0.68 0.93 1.51 l0 1.27 -4.39 0 -4.39 0 0 -1.27 c0 -0.88 0.29 -1.37 1.03 -1.51 1.07 -0.29 1.03 -1.22 -0.29 -4.35 -0.63 -1.56 -0.73 -1.56 -4.74 -1.90 -6.01 -0.49 -6.15 -0.44 -7.28 2.69 -1.17 3.32 -1.17 3.27 0.34 3.61 0.93 0.24 1.22 0.59 1.07 1.42 -0.15 0.98 -0.44 1.07 -3.81 1.22 -2.05 0.05 -3.86 0 -4.05 -0.20z m15.97 -11.87 c0.39 -0.59 -2.88 -9.47 -3.56 -9.72 -0.29 -0.10 -0.54 0.10 -0.54 0.49 0 0.34 -0.63 2.39 -1.46 4.44 -0.78 2.10 -1.46 4.15 -1.46 4.54 0 0.54 0.78 0.68 3.37 0.68 1.90 0 3.52 -0.20 3.66 -0.44z"/>
  <path d="M236.33 236.04 c0 -0.83 0.29 -1.37 0.98 -1.51 0.93 -0.24 0.98 -0.68 0.98 -11.96 0 -11.43 -0.05 -11.72 -1.03 -11.96 -0.73 -0.20 -0.93 -0.59 -0.83 -1.56 l0.15 -1.27 7.03 0.10 c6.20 0.10 7.32 0.24 9.28 1.22 3.03 1.51 4.44 3.71 4.44 6.98 0 3.13 -1.42 5.42 -4.15 6.84 -1.07 0.54 -2.05 1.03 -2.15 1.07 -0.44 0.24 6.35 9.96 7.47 10.64 0.68 0.49 1.27 1.27 1.27 1.81 0 0.83 -0.29 0.93 -2.78 0.78 l-2.83 -0.15 -2.44 -3.76 c-1.32 -2.05 -3.08 -4.83 -3.91 -6.10 -1.22 -1.90 -1.76 -2.39 -3.03 -2.49 l-1.61 -0.15 0 4.88 c0 4.88 0 4.93 1.27 5.22 0.88 0.24 1.17 0.59 1.07 1.37 -0.15 0.93 -0.49 1.03 -4.64 1.17 l-4.54 0.15 0 -1.32z m13.62 -15.09 c0.78 -0.39 1.76 -1.51 2.25 -2.49 0.73 -1.51 0.73 -2.10 0.29 -3.71 -0.78 -2.59 -2.83 -3.81 -6.49 -3.81 l-2.83 0 0 5.37 0 5.37 2.69 0 c1.51 0 3.37 -0.34 4.10 -0.73z"/>
  <path d="M262.40 236.57 c-0.44 -1.12 0.15 -2.20 1.27 -2.20 0.98 0 0.98 -0.24 0.98 -11.77 0 -11.33 -0.05 -11.77 -0.98 -12.01 -0.68 -0.20 -0.98 -0.68 -0.98 -1.71 l0 -1.42 4.30 0.15 c4.20 0.15 4.25 0.15 4.39 1.46 0.15 1.03 -0.05 1.32 -0.98 1.46 l-1.12 0.15 -0.15 11.62 c-0.10 10.69 -0.05 11.62 0.73 11.91 1.51 0.54 2 1.12 1.76 2.10 -0.24 0.88 -0.68 0.98 -4.59 0.98 -3.42 0 -4.44 -0.15 -4.64 -0.73z"/>
  <path d="M306.15 236.08 c0 -0.73 0.34 -1.37 0.88 -1.56 0.44 -0.20 0.98 -0.54 1.17 -0.83 0.44 -0.63 0.54 -21.39 0.10 -22.46 -0.15 -0.44 -0.59 -0.78 -0.98 -0.78 -0.39 0 -0.68 -0.49 -0.68 -1.17 0 -1.07 0.24 -1.17 3.32 -1.42 1.81 -0.15 3.42 -0.10 3.61 0.05 0.15 0.20 1.95 4.30 3.96 9.13 5.86 14.06 5.47 13.33 6.05 12.21 0.44 -0.88 2.05 -4.54 7.67 -17.82 l1.56 -3.66 2.44 0 2.39 0 0.15 13.28 0.10 13.28 1.12 0.15 c0.78 0.10 1.07 0.49 1.07 1.37 0 1.22 -0.05 1.22 -4.54 1.37 l-4.54 0.15 0.15 -1.37 c0.10 -0.98 0.44 -1.42 1.27 -1.51 1.07 -0.15 1.07 -0.20 1.07 -9.42 0 -5.08 -0.15 -9.23 -0.34 -9.23 -0.24 0 -2.39 4.79 -4.83 10.64 -4.30 10.21 -4.49 10.60 -5.81 10.60 -1.32 0 -1.51 -0.39 -5.42 -9.77 -2.20 -5.37 -4.15 -10.21 -4.30 -10.74 -0.68 -2.54 -1.03 0.78 -0.88 8.89 0.15 8.74 0.15 8.89 1.22 9.03 0.78 0.10 1.12 0.54 1.22 1.51 l0.15 1.32 -4.15 0 c-4.15 0 -4.20 0 -4.20 -1.22z"/>
 </g>
</svg>