<svg width="841" height="250" viewBox="0 0 841 250" fill="none" xmlns="http://www.w3.org/2000/svg">
<g transform="translate(14,10) scale(0.958)">
  <!-- bubble ring, open at the surface (top-right) -->
  <path d="M 214.66 94.64 A 98 98 0 1 1 145.36 25.34"
        fill="none" stroke="#FFFFFF" stroke-width="13" stroke-linecap="round"/>
  <circle cx="170" cy="63" r="5.5" fill="#2DD4DF"/>
  <circle cx="190" cy="40" r="8"   fill="#2DD4DF"/>
  <circle cx="212" cy="16" r="11"  fill="#2DD4DF"/>
  <!-- the code inside the aquarium -->
  <path d="M96 92 L 62 124 L 96 156" stroke="#FFFFFF" stroke-width="14"
        stroke-linecap="round" stroke-linejoin="round" fill="none"/>
  <path d="M144 92 L 178 124 L 144 156" stroke="#FFFFFF" stroke-width="14"
        stroke-linecap="round" stroke-linejoin="round" fill="none"/>
  <path d="M133 82 L 107 166" stroke="#2DD4DF" stroke-width="12"
        stroke-linecap="round" fill="none"/>
</g>
  <path fill="#2DD4DF" d="M308.212 66.27427996647108Q305.5078600167645 66.27427996647108 303.20907669740154 65.37327996647107Q300.91029337803855 64.47227996647108 299.2182233864208 62.82592330259849Q297.52615339480303 61.1795666387259 296.5794400670578 58.96049664710813Q295.63272673931266 56.74142665549036 295.63272673931266 54.1Q295.63272673931266 51.45857334450964 296.5794400670578 49.23950335289187Q297.52615339480303 47.0204333612741 299.2325800502934 45.374076697401506Q300.93900670578375 43.72772003352892 303.2377900251467 42.826720033528915Q305.53657334450963 41.92572003352892 308.2407133277452 41.92572003352892Q310.9886999161777 41.92572003352892 313.32640653813917 42.860356663872594Q315.6641131601006 43.79499329421626 317.28025314333615 45.640839899413244L315.092026823135 47.782212908633696Q313.71844677284156 46.333066219614416 312.02451005867556 45.64399622799665Q310.3305733445096 44.95492623637888 308.38427996647107 44.95492623637888Q306.36697988264876 44.95492623637888 304.66096647108134 45.63528960603521Q302.95495305951385 46.315652975691535 301.69244300083824 47.54680637049455Q300.4299329421626 48.77795976529757 299.7352129086337 50.44732984073764Q299.0404928751048 52.1166999161777 299.0404928751048 54.1Q299.0404928751048 56.083300083822294 299.7352129086337 57.752670159262365Q300.4299329421626 59.42204023470243 301.69244300083824 60.65319362950545Q302.95495305951385 61.88434702430847 304.66096647108134 62.564710393964795Q306.36697988264876 63.24507376362112 308.38427996647107 63.24507376362112Q310.3305733445096 63.24507376362112 312.02451005867556 62.553360435875945Q313.71844677284156 61.86164710813076 315.092026823135 60.3837870913663L317.28025314333615 62.52516010058675Q315.6641131601006 64.37100670578374 313.32640653813917 65.32264333612741Q310.9886999161777 66.27427996647108 308.212 66.27427996647108Z M474.9643863913766 66.27427996647108Q472.2377794885369 66.27427996647108 469.91839309716033 65.3589233025985Q467.5990067057837 64.4435666387259 465.89258005029336 62.79720997485331Q464.186153394803 61.15085331098072 463.2394400670578 58.93882089969265Q462.2927267393126 56.72678848840458 462.2927267393126 54.1Q462.2927267393126 51.473211511595416 463.2394400670578 49.261179100307345Q464.186153394803 47.04914668901928 465.89623218408553 45.39864682684789Q467.606310973368 43.748146964676494 469.91579882281144 42.836933499102706Q472.2252866722548 41.92572003352892 474.9581399832355 41.92572003352892Q477.69099329421624 41.92572003352892 479.9922323587153 42.831826766315814Q482.2934714232143 43.73793349910271 483.9974423335686 45.379183430188405Q485.70141324392284 47.0204333612741 486.64812657166806 49.24237468566639Q487.5948398994132 51.464316010058674 487.5948398994132 54.10287133277451Q487.5948398994132 56.74142665549036 486.64812657166806 58.96049664710813Q485.70141324392284 61.1795666387259 483.9974423335686 62.8208165698116Q482.2934714232143 64.4620665008973 479.9922323587153 65.36817323368419Q477.69099329421624 66.27427996647108 474.9643863913766 66.27427996647108ZM474.9581399832355 63.24507376362112Q476.9467267393126 63.24507376362112 478.62615373630126 62.56307727702377Q480.30558073328984 61.881080790426424 481.55160721492655 60.639847184819246Q482.79763369656325 59.39861357921207 483.4923537300922 57.73493199323095Q484.1870737636211 56.071250407249835 484.1870737636211 54.09133182558636Q484.1870737636211 52.11141324392288 483.4955799466927 50.458865671570166Q482.8040861297644 48.80631809921744 481.55668551883485 47.56349306546457Q480.3092849079053 46.320668031711705 478.628005823609 45.63779713404529Q476.9467267393126 44.95492623637888 474.9581399832355 44.95492623637888Q472.96955322715837 44.95492623637888 471.2816066285542 45.63872840337106Q469.59366002994994 46.32253057036324 468.3413125535662 47.567050514289015Q467.0889650771824 48.81157045821479 466.3947289761436 50.46637170233588Q465.70049287510477 52.12117294645696 465.70049287510477 54.090523187394446Q465.70049287510477 56.05987342833193 466.39340577611824 57.72355501431305Q467.0863186771317 59.387236600294166 468.3362792044502 60.63843514842873Q469.5862397317686 61.88963369656329 471.2778964794635 62.56735373009221Q472.96955322715837 63.24507376362112 474.9581399832355 63.24507376362112Z M635.212460184409 66.0V42.2H645.2274266554903Q649.0588533109807 42.2 651.9526366303436 43.70393000838223Q654.8464199497065 45.20786001676446 656.4678466051969 47.87950335289187Q658.0892732606873 50.551146689019276 658.0892732606873 54.1Q658.0892732606873 57.64885331098072 656.4678466051969 60.32049664710813Q654.8464199497065 62.99213998323554 651.9526366303436 64.49606999161777Q649.0588533109807 66.0 645.2274266554903 66.0ZM638.5915129924559 63.056933780385584H645.0445733445096Q647.9934534786253 63.056933780385584 650.1482569153394 61.92513704945516Q652.3030603520535 60.79334031852473 653.4922837384743 58.77718021793797Q654.6815071248951 56.761020117351215 654.6815071248951 54.1Q654.6815071248951 51.4102665549036 653.4922837384743 49.40846311818944Q652.3030603520535 47.406659681475276 650.1482569153394 46.27486295054484Q647.9934534786253 45.14306621961442 645.0445733445096 45.14306621961442H638.5915129924559Z M805.714460184409 66.0V42.2H822.5128398994132V45.14306621961442H809.0935129924559V63.056933780385584H822.994126571668V66.0ZM808.8086596814751 55.35581978206203V52.47018021793797H821.0402665549035V55.35581978206203Z"/>
  <path fill="#FFFFFF" d="M291.19628311294167 152.0 318.03121005853023 91.80000000000001H331.80797940602645L358.69479904617384 152.0H344.1454931714719L322.06296574897027 98.8892579666161H327.58790179926297L305.5053743767613 152.0ZM304.66878994146975 139.12093605029264 308.32390179926296 128.54856622588338H339.3370342510297L343.04403880338174 139.12093605029264Z M396.69561085338535 153.01275113808802Q389.6044705686827 153.01275113808802 383.56575240985615 150.69075113808802Q377.52703425102965 148.36875113808802 373.09876598742676 144.16364383264687Q368.6704977238239 139.95853652720572 366.2113367656622 134.28709436673Q363.7521758075005 128.61565220625428 363.7521758075005 121.9Q363.7521758075005 115.15024048830458 366.2113367656622 109.49585198054943Q368.6704977238239 103.84146347279429 373.10536637401543 99.62886829531948Q377.54023502420694 95.41627311784467 383.5610638593829 93.10176098987833Q389.5818926945588 90.78724886191199 396.6843219163234 90.78724886191199Q403.8208584435291 90.78724886191199 409.8097258562757 93.09253175225544Q415.7985932690223 95.3978146425989 420.2224233416432 99.59369271041717Q424.64625341426404 103.78957077823543 427.10541437242574 109.46186735313245Q429.56457533058745 115.13416392802948 429.56457533058745 121.90518926945589Q429.56457533058745 128.64210730544116 427.10541437242574 134.32626826360286Q424.64625341426404 140.01042922176458 420.2224233416432 144.20630728958284Q415.7985932690223 148.4021853574011 409.8097258562757 150.70746824774454Q403.8208584435291 153.01275113808802 396.69561085338535 153.01275113808802ZM416.3783219163234 165.8208972469109Q412.8389269455885 165.8208972469109 409.69396119661826 165.05578994146975Q406.54899544764794 164.2906826360286 403.4892979622805 162.5543607197052Q400.42960047691304 160.81803880338174 397.1467420333839 157.92218035985258Q393.8638835898547 155.02632191632344 389.928595924561 150.7470342510297L404.5816871883806 147.04002969867764Q406.9051506611749 150.22202969867766 408.86013125948404 152.09770778235423Q410.81511185779317 153.97338586603078 412.70114610882285 154.7651712551485Q414.58718035985254 155.5569566442662 416.65086972343113 155.5569566442662Q422.16249772382395 155.5569566442662 426.39574658573594 151.01235161500108L432.62500455235204 158.47825341426403Q426.48636071970515 165.8208972469109 416.3783219163234 165.8208972469109ZM396.6843219163234 141.20520095382614Q400.71585389117706 141.20520095382614 404.1268687405159 139.80995209191417Q407.53788358985474 138.41470323000217 410.0907009401827 135.8201342465103Q412.64351829051066 133.2255652630184 414.06144752591865 129.68756456212623Q415.47937676132665 126.14956386123407 415.47937676132665 121.9Q415.47937676132665 117.59560958161717 414.06144752591865 114.07325513877925Q412.64351829051066 110.55090069594132 410.0907009401827 107.96809873296958Q407.53788358985474 105.38529676999784 404.1268687405159 103.99004790808586Q400.71585389117706 102.59479904617388 396.6843219163234 102.59479904617388Q392.65278994146973 102.59479904617388 389.2158287448515 103.99004790808586Q385.7788675482332 105.38529676999784 383.22605019790524 107.96809873296958Q380.6732328475773 110.55090069594132 379.2553036121693 114.07325513877925Q377.8373743767613 117.59560958161717 377.8373743767613 121.9Q377.8373743767613 126.14956386123407 379.2553036121693 129.68756456212623Q380.6732328475773 133.2255652630184 383.22605019790524 135.8201342465103Q385.7788675482332 138.41470323000217 389.2158287448515 139.80995209191417Q392.65278994146973 141.20520095382614 396.6843219163234 141.20520095382614Z M469.3276780836766 153.01275113808802Q456.51953197485363 153.01275113808802 449.29845892044216 145.894Q442.07738586603074 138.775248861912 442.07738586603074 125.48081964014742V91.80000000000001H456.0424771298504V125.03449772382397Q456.0424771298504 133.57506394970736 459.57433102102755 137.39013245176676Q463.10618491220464 141.20520095382614 469.4477853891177 141.20520095382614Q475.8234931714719 141.20520095382614 479.33829340992844 137.39013245176676Q482.85309364838497 133.57506394970736 482.85309364838497 125.03449772382397V91.80000000000001H496.57797030132235V125.48081964014742Q496.57797030132235 138.775248861912 489.3568972469109 145.894Q482.13582419249946 153.01275113808802 469.3276780836766 153.01275113808802Z M504.9242831129416 152.0 531.7592100585302 91.80000000000001H545.5359794060264L572.4227990461739 152.0H557.8734931714719L535.7909657489703 98.8892579666161H541.3159017992629L519.2333743767613 152.0ZM518.3967899414697 139.12093605029264 522.0519017992629 128.54856622588338H553.0650342510296L556.7720388033817 139.12093605029264Z M581.2373858660308 152.0V91.80000000000001H606.9204292217645Q619.521004552352 91.80000000000001 626.4855410795577 97.6205901799263Q633.4500776067634 103.4411803598526 633.4500776067634 113.62182419249946Q633.4500776067634 120.32836071970519 630.2777020377195 125.17773628874919Q627.1053264686755 130.0271118577932 621.2417362887492 132.6152728159549Q615.3781461088229 135.20343377411663 607.261502276176 135.20343377411663H588.9746826360285L595.2024771298503 129.14471233470627V152.0ZM619.5546644266203 152.0 604.4513082592672 130.12189269455885H619.3609360502926L634.5843995230869 152.0ZM595.2024771298503 130.6542146108823 588.9746826360285 124.09874203338391H606.5423219163233Q612.9358150877953 124.09874203338391 616.150347062649 121.32456622588337Q619.3648790375026 118.55039041838283 619.3648790375026 113.62182419249946Q619.3648790375026 108.64136527205724 616.150347062649 105.89313581183612Q612.9358150877953 103.144906351615 606.5423219163233 103.144906351615H588.9746826360285L595.2024771298503 96.53754107955777Z M646.9473858660308 152.0V91.80000000000001H660.9124771298503V152.0Z M704.3896780836765 153.01275113808802Q691.5815319748536 153.01275113808802 684.3604589204422 145.894Q677.1393858660307 138.775248861912 677.1393858660307 125.48081964014742V91.80000000000001H691.1044771298504V125.03449772382397Q691.1044771298504 133.57506394970736 694.6363310210274 137.39013245176676Q698.1681849122045 141.20520095382614 704.5097853891176 141.20520095382614Q710.8854931714718 141.20520095382614 714.4002934099284 137.39013245176676Q717.915093648385 133.57506394970736 717.915093648385 125.03449772382397V91.80000000000001H731.6399703013223V125.48081964014742Q731.6399703013223 138.775248861912 724.4188972469108 145.894Q717.1978241924994 153.01275113808802 704.3896780836765 153.01275113808802Z M747.9233858660308 152.0V91.80000000000001H759.4181164101452L785.0548972469109 134.31934706264903H778.9813173639714L804.1376689789724 91.80000000000001H815.6323995230869L815.752506828528 152.0H802.7112397572079L802.5911324517667 111.88009581617169H805.0480982007371L784.9006826360286 145.59603880338176H778.6551027530891L758.0791506611749 111.88009581617169H760.9646529373509V152.0Z"/>
  <path fill="#FFFFFF" d="M301.10854233025987 202.18554233025984Q299.26342372170996 202.18554233025984 297.58466953059514 201.61923721709974Q295.9059153394803 201.05293210393964 294.9455255658005 200.16105071248953L295.79196605196984 198.36642414082147Q296.7063558256496 199.1663055322716 298.1341439647946 199.6998987845767Q299.5619321039396 200.2334920368818 301.1049660519698 200.2334920368818Q302.5033390611903 200.2334920368818 303.37604253981556 199.9058818105616Q304.2487460184409 199.5782715842414 304.6629918273261 199.01427996647107Q305.07723763621124 198.45028834870075 305.07723763621124 197.75264417435037Q305.07723763621124 196.91342372171 304.5446613579212 196.40616093880973Q304.01208507963116 195.89889815590948 303.1503562447611 195.59351676445937Q302.28862740989103 195.28813537300923 301.246474853311 195.0527709555742Q300.20432229673094 194.81740653813915 299.16038160100584 194.5122709555742Q298.1164409052808 194.2071353730092 297.25471207041073 193.71978792958924Q296.39298323554067 193.2324404861693 295.86040695725063 192.42130490360435Q295.3278306789606 191.6101693210394 295.3278306789606 190.32574559932942Q295.3278306789606 189.07350838222968 295.98844928751043 188.02725419111482Q296.64906789606033 186.981 298.0180932523051 186.34772883487005Q299.3871186085499 185.71445766974014 301.50620326906954 185.71445766974014Q302.9107455993294 185.71445766974014 304.29049979044424 186.0878220871752Q305.6702539815591 186.46118650461023 306.68022003352894 187.1476102263202L305.9222032690696 188.97238935456832Q304.87850838222965 188.29823679798827 303.72493210393964 187.98237238055322Q302.5713558256496 187.6665079631182 301.4903558256496 187.6665079631182Q300.1415590947192 187.6665079631182 299.2706437552389 188.0153300502934Q298.3997284157586 188.36415213746858 297.9969826068734 188.93785561609388Q297.5942367979883 189.5115590947192 297.5942367979883 190.23220326906957Q297.5942367979883 191.075 298.12681307627827 191.58226278290024Q298.6593893545683 192.0895255658005 299.5211181894384 192.38519509639565Q300.3828470243085 192.68086462699077 301.42678772003353 192.9259409052808Q302.4707284157586 193.17101718357083 303.5128809723386 193.4682290444258Q304.55503352891867 193.7654409052808 305.41676236378873 194.24307648784577Q306.27849119865886 194.72071207041074 306.8110674769489 195.5282713746857Q307.3436437552389 196.3358306789606 307.3436437552389 197.59725440067058Q307.3436437552389 198.83006789606034 306.671525146689 199.8763220871752Q305.99940653813917 200.92257627829002 304.6153049036044 201.55405930427492Q303.23120326906957 202.18554233025984 301.10854233025987 202.18554233025984Z M328.5060681050909 202.18554233025984Q326.6615987296405 202.18554233025984 325.092602053121 201.56633046940487Q323.52360537660155 200.94711860854989 322.36925793318164 199.83340674769488Q321.2149104897617 198.7196948868399 320.5744867680517 197.22332002038033Q319.93406304634175 195.72694515392075 319.93406304634175 193.95Q319.93406304634175 192.17305484607925 320.5744867680517 190.67667997961968Q321.2149104897617 189.1803051131601 322.37172849427634 188.06379050051476Q323.52854649879094 186.9472758878694 325.09084710282616 186.33086677880476Q326.65314770686143 185.71445766974014 328.5018425937013 185.71445766974014Q330.3505374805412 185.71445766974014 331.90725802417296 186.32741222427245Q333.46397856780465 186.9403667788048 334.6166647718678 188.05062408512745Q335.769350975931 189.16088139145012 336.40977469764096 190.66395934618606Q337.0501984193509 192.16703730092203 337.0501984193509 193.951942372171Q337.0501984193509 195.73684744341995 336.40977469764096 197.23798302598493Q335.769350975931 198.7391186085499 334.6166647718678 199.84937591487255Q333.46397856780465 200.95963322119522 331.90725802417296 201.57258777572753Q330.3505374805412 202.18554233025984 328.5060681050909 202.18554233025984ZM328.5018425937013 200.13637342833195Q329.8470630463417 200.13637342833195 330.98314601489284 199.67502286386903Q332.119228983444 199.2136722994061 332.96212925043346 198.37401427208363Q333.805029517423 197.5343562447611 334.27498718716316 196.40892458365624Q334.7449448569033 195.28349292255137 334.7449448569033 193.94413623495547Q334.7449448569033 192.6047795473596 334.2771696278047 191.48687971900335Q333.80939439870616 190.3689798906471 332.9655645736656 189.52824530899073Q332.12173474862504 188.6875107273344 330.9843988974834 188.2255686495012Q329.8470630463417 187.76362657166806 328.5018425937013 187.76362657166806Q327.1566221410609 187.76362657166806 326.01477591259334 188.22619862580984Q324.8729296841258 188.6887706799516 324.02575345010143 189.53065181848962Q323.17857721607714 190.37253295702766 322.70894691243325 191.49195732805074Q322.23931660878935 192.61138169907383 322.23931660878935 193.94358921500213Q322.23931660878935 195.27579673093044 322.7080518065338 196.4012283920353Q323.1767870042782 197.52666005314018 324.02234853746415 198.3730590709959Q324.86791007065017 199.21945808885164 326.01226610585553 199.67791575859178Q327.1566221410609 200.13637342833195 328.5018425937013 200.13637342833195Z M351.11416004071367 202.0V185.9H362.4777698479224V187.890897736798H353.3999898814513V202.0ZM353.1878712729014 195.4926098072087V193.50171207041072H361.48161729134233V195.4926098072087Z M379.45354496467485 202.0V187.890897736798H373.9397142857142V185.9H387.2532054843731V187.890897736798H381.73937480541247V202.0Z M404.0229638366662 202.0 398.638929888636 185.9H401.0096071727936L405.9448615734642 200.75793252305112H404.7595229313854L409.87162477547594 185.9H412.00206484253374L416.99762435636444 200.75793252305112H415.85470943599563L420.8676587235061 185.9H423.0599462339839L417.6759122859537 202.0H415.25411639324625L410.56064153993526 188.23182984073765H411.19650574781457L406.4641834510836 202.0Z M434.31377248233736 202.0 441.6139589869476 185.9H443.8803651059753L451.1999753322954 202.0H448.7868743264279L442.27282319482686 187.18091492036882H443.20207717638596L436.688026044785 202.0ZM437.41575529876656 197.98222003352893 438.053653454676 196.12728834870074H447.10689109088725L447.7642129685067 197.98222003352893Z M464.14044575499935 202.0V185.9H470.4266657885283Q473.5490555622081 185.9 475.34459789246796 187.38861860854988Q477.1401402227278 188.87723721709975 477.1401402227278 191.52020326906958Q477.1401402227278 193.25389815590947 476.33258091845283 194.50638118189437Q475.5250216141779 195.7588642078793 474.02311486648296 196.43021165129926Q472.5212081187881 197.1015590947192 470.4266657885283 197.1015590947192H465.40347928391805L466.42627559573697 196.0399153394803V202.0ZM474.9110392168602 202.0 470.7991578254101 196.158H473.2776825529876L477.4089876661477 202.0ZM466.42627559573697 196.26584744341994 465.40347928391805 195.14950880134117H470.3561234582684Q472.56356436354923 195.14950880134117 473.6992255119147 194.19350020955574Q474.8348866602801 193.23749161777033 474.8348866602801 191.52020326906958Q474.8348866602801 189.7799149203688 473.6992255119147 188.83540632858342Q472.56356436354923 187.890897736798 470.3561234582684 187.890897736798H465.40347928391805L466.42627559573697 186.7551353730092Z M491.4080171835708 202.0V185.9H502.7716269907795V187.890897736798H493.6938470243084V200.009102263202H503.09720326906955V202.0ZM493.5011521374685 194.799525146689V192.84747485331098H501.77547443419945V194.799525146689Z M534.757583343312 197.26410142497903Q534.1196851874026 197.26410142497903 533.663753083463 196.8178811818944Q533.2078209795233 196.37166093880973 533.2078209795233 195.67549161777032Q533.2078209795233 194.9757460184409 533.663753083463 194.54102577535625Q534.1196851874026 194.1063055322716 534.757583343312 194.1063055322716Q535.4184814992216 194.1063055322716 535.8532017423063 194.54102577535625Q536.2879219853909 194.9757460184409 536.2879219853909 195.67549161777032Q536.2879219853909 196.37166093880973 535.8532017423063 196.8178811818944Q535.4184814992216 197.26410142497903 534.757583343312 197.26410142497903Z M565.0752010537659 202.0 572.3753875583761 185.9H574.6417936774038L581.961403903724 202.0H579.5483028978564L573.0342517662555 187.18091492036882H573.9635057478146L567.4494546162135 202.0ZM568.1771838701951 197.98222003352893 568.8150820261045 196.12728834870074H577.8683196623158L578.5256415399352 197.98222003352893Z M594.9018743264278 202.0V185.9H597.1877041671655V202.0Z M629.9714404861691 197.26410142497903Q629.3335423302597 197.26410142497903 628.87761022632 196.8178811818944Q628.4216781223803 196.37166093880973 628.4216781223803 195.67549161777032Q628.4216781223803 194.9757460184409 628.87761022632 194.54102577535625Q629.3335423302597 194.1063055322716 629.9714404861691 194.1063055322716Q630.6323386420786 194.1063055322716 631.0670588851633 194.54102577535625Q631.5017791282479 194.9757460184409 631.5017791282479 195.67549161777032Q631.5017791282479 196.37166093880973 631.0670588851633 196.8178811818944Q630.6323386420786 197.26410142497903 629.9714404861691 197.26410142497903Z M669.9981428571426 202.18554233025984Q668.1458716920127 202.18554233025984 666.5793123877378 201.57604233025984Q665.0127530834628 200.96654233025984 663.8566175008979 199.85283046940486Q662.7004819183329 198.7391186085499 662.060058196623 197.23798302598493Q661.419634474913 195.73684744341995 661.419634474913 193.95Q661.419634474913 192.16315255658006 662.060058196623 190.6620169740151Q662.7004819183329 189.16088139145012 663.8663293617528 188.04716953059514Q665.0321768051728 186.93345766974016 666.5987361094477 186.32395766974014Q668.1652954137227 185.71445766974014 670.0369903005626 185.71445766974014Q671.9613461262122 185.71445766974014 673.544524039037 186.337Q675.1277019518618 186.95954233025984 676.2403968387017 188.1887795473596L674.7989735361033 189.63735540653815Q673.811515866363 188.65705029337803 672.6541175008979 188.21033843252303Q671.4967191354326 187.76362657166806 670.1341089091125 187.76362657166806Q668.7464647347621 187.76362657166806 667.5711849778468 188.22387238055322Q666.3959052209314 188.68411818943838 665.5303542988861 189.51695725062865Q664.6648033768408 190.34979631181895 664.1948457071007 191.4790760687343Q663.7248880373605 192.60835582564962 663.7248880373605 193.95Q663.7248880373605 195.2722204526404 664.1948457071007 196.40150020955573Q664.6648033768408 197.53077996647107 665.5303542988861 198.37333088851634Q666.3959052209314 199.2158818105616 667.5614731169917 199.6761276194468Q668.7270410130521 200.13637342833195 670.1146851874025 200.13637342833195Q671.3996005268828 200.13637342833195 672.5799988923479 199.73464459346187Q673.7603972578132 199.33291575859178 674.7795498143932 198.39145808885164L676.085007065022 200.13496605196983Q674.8946172913421 201.15054233025984 673.2920156568073 201.66804233025982Q671.6894140222726 202.18554233025984 669.9981428571426 202.18554233025984ZM676.085007065022 200.13496605196983 673.8804483894143 199.83645766974016V193.8584916177703H676.085007065022Z M691.0357314692849 202.0V185.9H697.3219515028138Q700.4443412764937 185.9 702.2398836067534 187.38861860854988Q704.0354259370133 188.87723721709975 704.0354259370133 191.52020326906958Q704.0354259370133 193.25389815590947 703.2278666327384 194.50638118189437Q702.4203073284634 195.7588642078793 700.9184005807685 196.43021165129926Q699.4164938330737 197.1015590947192 697.3219515028138 197.1015590947192H692.2987649982036L693.3215613100226 196.0399153394803V202.0ZM701.8063249311458 202.0 697.6944435396956 196.158H700.1729682672732L704.3042733804333 202.0ZM693.3215613100226 196.26584744341994 692.2987649982036 195.14950880134117H697.251409172554Q699.4588500778348 195.14950880134117 700.5945112262002 194.19350020955574Q701.7301723745658 193.23749161777033 701.7301723745658 191.52020326906958Q701.7301723745658 189.7799149203688 700.5945112262002 188.83540632858342Q699.4588500778348 187.890897736798 697.251409172554 187.890897736798H692.2987649982036L693.3215613100226 186.7551353730092Z M725.561782390805 202.18554233025984Q723.7173130153545 202.18554233025984 722.1483163388351 201.56633046940487Q720.5793196623157 200.94711860854989 719.4249722188957 199.83340674769488Q718.2706247754758 198.7196948868399 717.6302010537659 197.22332002038033Q716.9897773320558 195.72694515392075 716.9897773320558 193.95Q716.9897773320558 192.17305484607925 717.6302010537659 190.67667997961968Q718.2706247754758 189.1803051131601 719.4274427799904 188.06379050051476Q720.5842607845051 186.9472758878694 722.1465613885402 186.33086677880476Q723.7088619925755 185.71445766974014 725.5575568794154 185.71445766974014Q727.4062517662553 185.71445766974014 728.962972309887 186.32741222427245Q730.5196928535188 186.9403667788048 731.672379057582 188.05062408512745Q732.8250652616451 189.16088139145012 733.465488983355 190.66395934618606Q734.1059127050651 192.16703730092203 734.1059127050651 193.951942372171Q734.1059127050651 195.73684744341995 733.465488983355 197.23798302598493Q732.8250652616451 198.7391186085499 731.672379057582 199.84937591487255Q730.5196928535188 200.95963322119522 728.962972309887 201.57258777572753Q727.4062517662553 202.18554233025984 725.561782390805 202.18554233025984ZM725.5575568794154 200.13637342833195Q726.9027773320558 200.13637342833195 728.038860300607 199.67502286386903Q729.174943269158 199.2136722994061 730.0178435361476 198.37401427208363Q730.8607438031371 197.5343562447611 731.3307014728773 196.40892458365624Q731.8006591426174 195.28349292255137 731.8006591426174 193.94413623495547Q731.8006591426174 192.6047795473596 731.3328839135188 191.48687971900335Q730.8651086844203 190.3689798906471 730.0212788593797 189.52824530899073Q729.1774490343391 188.6875107273344 728.0401131831975 188.2255686495012Q726.9027773320558 187.76362657166806 725.5575568794154 187.76362657166806Q724.212336426775 187.76362657166806 723.0704901983074 188.22619862580984Q721.9286439698399 188.6887706799516 721.0814677358155 189.53065181848962Q720.2342915017913 190.37253295702766 719.7646611981473 191.49195732805074Q719.2950308945034 192.61138169907383 719.2950308945034 193.94358921500213Q719.2950308945034 195.27579673093044 719.7637660922478 196.4012283920353Q720.2325012899922 197.52666005314018 721.0780628231782 198.3730590709959Q721.9236243563643 199.21945808885164 723.0679803915696 199.67791575859178Q724.212336426775 200.13637342833195 725.5575568794154 200.13637342833195Z M751.8795352652375 202.0 746.4955013172073 185.9H748.8661786013649L753.8014330020354 200.75793252305112H752.6160943599567L757.7281962040472 185.9H759.8586362711051L764.8541957849357 200.75793252305112H763.7112808645669L768.7242301520773 185.9H770.9165176625552L765.532483714525 202.0H763.1106878218176L758.4172129685065 188.23182984073765H759.0530771763858L754.3207548796549 202.0Z M787.8022592503889 202.0V187.890897736798H782.2884285714283V185.9H795.6019197700872V187.890897736798H790.0880890911266V202.0Z M820.2110343671415 202.0V185.9H822.4968642078791V202.0ZM808.6620171835706 202.0V185.9H810.9478470243083V202.0ZM810.7357284157584 194.818948868399V192.828051131601H820.4037292539814V194.818948868399Z"/>
</svg>