<?xml version="1.0" encoding="UTF-8"?>
<svg version="1.1" xmlns="http://www.w3.org/2000/svg" width="223" height="83">
<path d="M0 0 C0.99 0.33 1.98 0.66 3 1 C3.31066406 1.63164063 3.62132812 2.26328125 3.94140625 2.9140625 C5.25117709 5.49493936 6.38286409 6.07227427 8.9375 7.375 C9.72898438 7.78878906 10.52046875 8.20257813 11.3359375 8.62890625 C12.21507812 9.08136719 13.09421875 9.53382812 14 10 C16.02311887 11.09997337 18.04396754 12.20413269 20.0625 13.3125 C21.70814132 14.20868601 23.35390507 15.10464743 25 16 C25 16.66 25 17.32 25 18 C25.66 18 26.32 18 27 18 C27 18.66 27 19.32 27 20 C27.66 20 28.32 20 29 20 C29 20.66 29 21.32 29 22 C29.66 22 30.32 22 31 22 C35.72169509 32.08725769 36.44831676 41.98085325 37 53 C35.80503906 52.98839844 34.61007813 52.97679687 33.37890625 52.96484375 C18.10148047 52.23236236 18.10148047 52.23236236 4 57 C3.505 57.99 3.505 57.99 3 59 C0.09943503 58.55375924 -1.23835221 57.81839832 -3.625 56 C-12.14392131 50.95175033 -24.3501624 52.89924764 -34 53 C-33.44099379 29.66149068 -33.44099379 29.66149068 -27 20 C-26.34 20 -25.68 20 -25 20 C-25 19.34 -25 18.68 -25 18 C-20.41079929 14.15248829 -15.08243138 11.51542813 -9.6875 9 C-4.81187704 6.6522478 -2.32495278 4.88240084 0 0 Z " fill="#F0F0F7" transform="translate(34,0)"/>
<path d="M0 0 C-0.33 1.32 -0.66 2.64 -1 4 C-1.66 4 -2.32 4 -3 4 C-3 4.66 -3 5.32 -3 6 C-1.96875 5.505 -0.9375 5.01 0.125 4.5 C3.52451578 3.02526098 6.27021549 2.72708894 10 3 C10 3.99 10 4.98 10 6 C9.39800781 6.09023438 8.79601563 6.18046875 8.17578125 6.2734375 C4.73430511 7.42265574 3.69352573 9.7703102 1.90625 12.7890625 C0.48852312 16.24782721 1.03708624 18.4446261 2 22 C0.5 20.625 0.5 20.625 -1 19 C-1 18.34 -1 17.68 -1 17 C-6.94 17 -12.88 17 -19 17 C-14.96895374 24.78662205 -14.96895374 24.78662205 -8.05175781 29.61669922 C-3.00864956 30.30056995 3.65899357 30.73987117 7.87109375 27.609375 C9.37070308 25.47152364 10.71133766 23.27050032 12 21 C12.495 21.99 12.495 21.99 13 23 C12.06553465 25.03144641 11.06775224 27.03533587 10 29 C14.83072474 29.68028698 19.1941299 29.94391958 24 29 C26.99649561 26.41002198 28.96429042 23.80731634 31.1328125 20.50390625 C33 18 33 18 35.2421875 17.15234375 C36.11230469 17.07693359 36.11230469 17.07693359 37 17 C37.48198463 18.24891614 37.96045677 19.49918808 38.4375 20.75 C38.70433594 21.44609375 38.97117187 22.1421875 39.24609375 22.859375 C40.68453866 26.94366419 41.11427996 30.40048344 41.0625 34.75 C41.05347656 35.73484375 41.04445313 36.7196875 41.03515625 37.734375 C41.02355469 38.48203125 41.01195313 39.2296875 41 40 C40.30962646 40.01458252 39.61925293 40.02916504 38.90795898 40.04418945 C35.7506034 40.11910617 32.59425499 40.21562217 29.4375 40.3125 C27.80844727 40.34633789 27.80844727 40.34633789 26.14648438 40.38085938 C18.42554068 40.63900643 13.48231342 41.67845772 7 46 C6.0925 45.360625 5.185 44.72125 4.25 44.0625 C-0.1049961 41.29875247 -3.32221791 40.88191375 -8.421875 40.68359375 C-9.95908203 40.62075195 -9.95908203 40.62075195 -11.52734375 40.55664062 C-12.59082031 40.51732422 -13.65429688 40.47800781 -14.75 40.4375 C-15.82894531 40.39431641 -16.90789063 40.35113281 -18.01953125 40.30664062 C-20.67956428 40.20071011 -23.33968812 40.09863579 -26 40 C-26.63710861 29.18685106 -25.90689567 18.37476472 -18.9375 9.5625 C-13.90773161 4.43474911 -7.27656629 0 0 0 Z " fill="#F1F1F7" transform="translate(28,11)"/>
<path d="M0 0 C4.95 0 9.9 0 15 0 C15 0.99 15 1.98 15 3 C14.01 3.33 13.02 3.66 12 4 C11.97095136 7.91665108 11.95318483 11.8332744 11.9375 15.75 C11.92912109 16.86117187 11.92074219 17.97234375 11.91210938 19.1171875 C11.90888672 20.18710937 11.90566406 21.25703125 11.90234375 22.359375 C11.89710693 23.34389648 11.89187012 24.32841797 11.88647461 25.34277344 C11.98840897 27.72869514 12.31696643 29.72164581 13 32 C14.58179615 32.10867302 16.16577153 32.18589827 17.75 32.25 C18.63171875 32.29640625 19.5134375 32.3428125 20.421875 32.390625 C23.86686585 31.86865669 24.83348667 30.68728813 27 28 C27.6363651 25.30762013 27.6363651 25.30762013 27.609375 22.359375 C27.65771484 20.75449219 27.65771484 20.75449219 27.70703125 19.1171875 C27.72121094 18.00601563 27.73539063 16.89484375 27.75 15.75 C27.77964844 14.62335937 27.80929688 13.49671875 27.83984375 12.3359375 C27.91048912 9.55721979 27.96321277 6.77933852 28 4 C25.525 3.505 25.525 3.505 23 3 C23.33 2.01 23.66 1.02 24 0 C32.25 0 40.5 0 49 0 C51.00581767 4.3307427 53.00675434 8.6634753 55 13 C55.42539063 13.92296875 55.85078125 14.8459375 56.2890625 15.796875 C56.82660156 16.98023438 56.82660156 16.98023438 57.375 18.1875 C57.69210938 18.88230469 58.00921875 19.57710937 58.3359375 20.29296875 C59 22 59 22 59 24 C59.66 24 60.32 24 61 24 C61.5259375 22.2365625 61.5259375 22.2365625 62.0625 20.4375 C64.39955405 13.35826832 67.77472581 6.70680304 71 0 C74.96 0 78.92 0 83 0 C83 0.99 83 1.98 83 3 C81.35 3.33 79.7 3.66 78 4 C78.33 13.24 78.66 22.48 79 32 C80.32 32.66 81.64 33.32 83 34 C83 34.66 83 35.32 83 36 C77.72 36 72.44 36 67 36 C67 35.34 67 34.68 67 34 C68.32 33.34 69.64 32.68 71 32 C71 25.4 71 18.8 71 12 C67.37 19.92 63.74 27.84 60 36 C55.1394382 33.5697191 54.34002645 31.02127983 52.4375 26.25 C51.85431481 24.83794185 51.26969907 23.42647359 50.68359375 22.015625 C50.40499512 21.33822266 50.12639648 20.66082031 49.83935547 19.96289062 C48.67810382 17.24722359 47.35659405 14.62247361 46 12 C45.97299325 14.91672884 45.95315763 17.83320677 45.9375 20.75 C45.92493164 21.9875 45.92493164 21.9875 45.91210938 23.25 C45.90888672 24.04921875 45.90566406 24.8484375 45.90234375 25.671875 C45.89710693 26.4050293 45.89187012 27.13818359 45.88647461 27.89355469 C46.0024891 30.0461849 46.40926729 31.9314135 47 34 C48.32 34 49.64 34 51 34 C51 34.66 51 35.32 51 36 C46.38 36 41.76 36 37 36 C37 35.34 37 34.68 37 34 C38.32 33.34 39.64 32.68 41 32 C41 22.76 41 13.52 41 4 C38.69 4 36.38 4 34 4 C32.41152792 5.58847208 32.81687712 7.27945672 32.75390625 9.48046875 C32.72103516 10.39763672 32.68816406 11.31480469 32.65429688 12.25976562 C32.59371449 14.19195692 32.53635511 16.1242523 32.48242188 18.05664062 C32.29891461 23.01826155 32.08669689 27.40490442 30 32 C25.37107038 36.2817599 22.46016367 37.29175425 16.3203125 37.22265625 C12.2524205 36.83230298 9.37988541 35.04680962 6.1875 32.625 C3.71281535 29.23858943 3.85006172 24.76579346 3.68359375 20.69921875 C3.62075195 19.23452148 3.62075195 19.23452148 3.55664062 17.74023438 C3.49766602 16.22913086 3.49766602 16.22913086 3.4375 14.6875 C3.39431641 13.66076172 3.35113281 12.63402344 3.30664062 11.57617188 C3.20093175 9.05090431 3.09883532 6.52554438 3 4 C1.68 3.67 0.36 3.34 -1 3 C-0.67 2.01 -0.34 1.02 0 0 Z " fill="#2B2E8F" transform="translate(113,16)"/>
<path d="M0 0 C0.99 0.33 1.98 0.66 3 1 C4.32 0.67 5.64 0.34 7 0 C7 3.96 7 7.92 7 12 C6.34 12 5.68 12 5 12 C4.7525 10.576875 4.7525 10.576875 4.5 9.125 C3.36946372 5.9561091 3.36946372 5.9561091 1.19140625 5.0859375 C-0.9444903 4.49807606 -2.78173301 4.03514086 -5 4 C-5.99 4.66 -6.98 5.32 -8 6 C-7.67539864 9.00090645 -7.12817102 9.89081728 -4.78515625 11.88671875 C-3.88667969 12.48097656 -2.98820313 13.07523438 -2.0625 13.6875 C-0.71865234 14.59048828 -0.71865234 14.59048828 0.65234375 15.51171875 C2.90039244 16.99235607 2.90039244 16.99235607 5 18 C5 18.66 5 19.32 5 20 C5.66 20 6.32 20 7 20 C8.820991 22.67792794 8.9974456 24.1404918 8.9375 27.4375 C7.82940237 31.64827101 6.31363542 33.25210722 3 36 C-1.02248275 38.01124138 -5.25733112 37.21604913 -9.4375 36 C-10.283125 35.67 -11.12875 35.34 -12 35 C-12 35.66 -12 36.32 -12 37 C-12.99 37 -13.98 37 -15 37 C-15.33 32.71 -15.66 28.42 -16 24 C-15.01 24 -14.02 24 -13 24 C-12.4225 25.11375 -11.845 26.2275 -11.25 27.375 C-9.96187548 29.60774917 -9.11907172 30.90781544 -7.0625 32.5 C-4.43928996 33.13592971 -2.57635055 32.71565293 0 32 C0.95020416 29.760165 0.95020416 29.760165 1 27 C-2.24969846 22.77539201 -6.4887956 20.27150385 -11.01171875 17.52734375 C-13.23401725 15.82023429 -14.06193001 14.62256127 -15 12 C-14.92370158 7.80358689 -14.37114292 5.54511616 -12 2.0625 C-7.96140186 -0.71403622 -4.764781 -0.62459676 0 0 Z " fill="#292C8F" transform="translate(214,16)"/>
<path d="M0 0 C3.21880117 3.7935871 5.6163187 7.65829477 8 12 C6.88147781 13.98283479 5.75498675 15.96117623 4.625 17.9375 C3.99851562 19.03964844 3.37203125 20.14179687 2.7265625 21.27734375 C1 24 1 24 -1 25 C-6.28436342 25.75752724 -11.77852817 26.40433321 -17 25 C-20.97574668 21.902675 -23.6093695 18.42266643 -26 14 C-26 13.34 -26 12.68 -26 12 C-23.02077407 11.97316013 -20.04178705 11.95323963 -17.0625 11.9375 C-15.78729492 11.92493164 -15.78729492 11.92493164 -14.48632812 11.91210938 C-13.67744141 11.90888672 -12.86855469 11.90566406 -12.03515625 11.90234375 C-11.2862915 11.89710693 -10.53742676 11.89187012 -9.76586914 11.88647461 C-8 12 -8 12 -7 13 C-6.89816406 12.43796875 -6.79632812 11.8759375 -6.69140625 11.296875 C-5.86351889 8.54660512 -4.56801382 6.60904126 -2.9375 4.25 C-2.38964844 3.45078125 -1.84179688 2.6515625 -1.27734375 1.828125 C-0.85582031 1.22484375 -0.43429688 0.6215625 0 0 Z " fill="#313393" transform="translate(35,16)"/>
<path d="M0 0 C4.95 0 9.9 0 15 0 C15.33 0.99 15.66 1.98 16 3 C14.68 3.33 13.36 3.66 12 4 C12 13.24 12 22.48 12 32 C19.67587705 32.42007547 19.67587705 32.42007547 26 30 C27.03647024 28.69481525 28.04422943 27.36538653 29 26 C29.66 26 30.32 26 31 26 C30.54177532 29.46941546 30.10868317 32.67395049 29 36 C19.43 36 9.86 36 0 36 C0 35.34 0 34.68 0 34 C1.485 33.505 1.485 33.505 3 33 C3 23.43 3 13.86 3 4 C2.01 3.67 1.02 3.34 0 3 C0 2.01 0 1.02 0 0 Z " fill="#2B2E90" transform="translate(81,16)"/>
<path d="M0 0 C0.99 0.33 1.98 0.66 3 1 C3.31066406 1.63164063 3.62132812 2.26328125 3.94140625 2.9140625 C5.25117709 5.49493936 6.38286409 6.07227427 8.9375 7.375 C9.72898438 7.78878906 10.52046875 8.20257813 11.3359375 8.62890625 C12.21507812 9.08136719 13.09421875 9.53382812 14 10 C16.02311887 11.09997337 18.04396754 12.20413269 20.0625 13.3125 C21.70814132 14.20868601 23.35390507 15.10464743 25 16 C25 16.66 25 17.32 25 18 C25.66 18 26.32 18 27 18 C27 18.66 27 19.32 27 20 C27.66 20 28.32 20 29 20 C29 20.66 29 21.32 29 22 C29.66 22 30.32 22 31 22 C35.72169509 32.08725769 36.44831676 41.98085325 37 53 C35.80503906 52.98839844 34.61007813 52.97679687 33.37890625 52.96484375 C18.10148047 52.23236236 18.10148047 52.23236236 4 57 C3.505 57.99 3.505 57.99 3 59 C0.09943503 58.55375924 -1.23835221 57.81839832 -3.625 56 C-12.14392131 50.95175033 -24.3501624 52.89924764 -34 53 C-33.44099379 29.66149068 -33.44099379 29.66149068 -27 20 C-26.34 20 -25.68 20 -25 20 C-25 19.34 -25 18.68 -25 18 C-20.41079929 14.15248829 -15.08243138 11.51542813 -9.6875 9 C-4.81187704 6.6522478 -2.32495278 4.88240084 0 0 Z M1 3 C0.34773438 3.73605469 -0.30453125 4.47210938 -0.9765625 5.23046875 C-4.29768988 8.55276472 -8.18498289 10.29472993 -12.375 12.3125 C-21.61953417 17.03902875 -26.8881651 21.13105112 -30.4375 31.1875 C-32.26565632 37.83109785 -32.40331934 44.15477453 -32 51 C-31.34515625 51.01458252 -30.6903125 51.02916504 -30.015625 51.04418945 C-27.00986327 51.11928043 -24.00513903 51.21573671 -21 51.3125 C-19.45505859 51.34633789 -19.45505859 51.34633789 -17.87890625 51.38085938 C-10.24544248 51.64827371 -4.46921384 52.68719077 2 57 C2.7425 56.360625 3.485 55.72125 4.25 55.0625 C8.31328559 52.01503581 11.63863189 51.86983817 16.640625 51.68359375 C18.24550781 51.62075195 18.24550781 51.62075195 19.8828125 51.55664062 C20.99398437 51.51732422 22.10515625 51.47800781 23.25 51.4375 C24.37664063 51.39431641 25.50328125 51.35113281 26.6640625 51.30664062 C29.44258954 51.20067985 32.22120391 51.09860858 35 51 C35.25004214 44.13376343 34.98763933 38.15691095 32.8125 31.625 C32.51762695 30.61759766 32.51762695 30.61759766 32.21679688 29.58984375 C28.95619627 19.37663939 19.11092114 14.60477062 10.1875 9.875 C9.29417969 9.41867188 8.40085938 8.96234375 7.48046875 8.4921875 C4.89466896 6.9366355 3.0370716 5.21276309 1 3 Z " fill="#383B94" transform="translate(34,0)"/>
<path d="M0 0 C-0.33 1.32 -0.66 2.64 -1 4 C-1.66 4 -2.32 4 -3 4 C-3 4.66 -3 5.32 -3 6 C-1.96875 5.505 -0.9375 5.01 0.125 4.5 C3.52451578 3.02526098 6.27021549 2.72708894 10 3 C10 3.99 10 4.98 10 6 C9.06994141 6.10828125 9.06994141 6.10828125 8.12109375 6.21875 C5.80994467 6.78924362 5.80994467 6.78924362 5.03515625 9.03125 C4.55369141 10.25328125 4.55369141 10.25328125 4.0625 11.5 C2.58984375 13.96484375 2.58984375 13.96484375 0 16 C-6.82396261 17.52454797 -14.04600816 17.19362967 -21 17 C-21.33 16.01 -21.66 15.02 -22 14 C-17.70226247 6.47895932 -8.71049473 0 0 0 Z " fill="#F9F9FC" transform="translate(28,11)"/>
<path d="M0 0 C5.94 0 11.88 0 18 0 C15.64436798 5.88908004 13.34275228 10.39190755 8 14 C2.63702225 14.80254874 -1.45884663 14.44527125 -7 14 C-4.69 9.38 -2.38 4.76 0 0 Z " fill="#373996" transform="translate(44,27)"/>
<path d="M0 0 C2.00875442 -0.27571139 4.01178687 -0.60235737 6 -1 C9 -1 9 -1 12 -0.4375 C15.04217056 0.23584278 15.04217056 0.23584278 18 -1 C19.66342837 0.66342837 19.36048097 2.7825709 19.5625 5.0625 C19.68818359 6.44115234 19.68818359 6.44115234 19.81640625 7.84765625 C19.87699219 8.55792969 19.93757813 9.26820312 20 10 C18.906875 9.979375 17.81375 9.95875 16.6875 9.9375 C13.05615809 9.81455548 13.05615809 9.81455548 10 11 C9.01 10.67 8.02 10.34 7 10 C7 7.69 7 5.38 7 3 C6.01 3 5.02 3 4 3 C4 4.98 4 6.96 4 9 C4.66 9.33 5.32 9.66 6 10 C3.33333333 10 0.66666667 10 -2 10 C-2.9590625 10.3403125 -2.9590625 10.3403125 -3.9375 10.6875 C-6 11 -6 11 -7.75 9.9375 C-9.54455588 7.15593839 -9.4053137 5.24250962 -9 2 C-6.65348503 -2.04122022 -4.12568076 -0.80895701 0 0 Z M-5 1 C-5.33 1.66 -5.66 2.32 -6 3 C-5.34 3 -4.68 3 -4 3 C-4.33 2.34 -4.66 1.68 -5 1 Z M10 1 C10 1.66 10 2.32 10 3 C10.66 2.67 11.32 2.34 12 2 C11.34 1.67 10.68 1.34 10 1 Z M14 2 C12.95550089 5.13349732 13.06576355 5.98968256 14 9 C14.66 9 15.32 9 16 9 C16 6.69 16 4.38 16 2 C15.34 2 14.68 2 14 2 Z M0 3 C-0.33 3.99 -0.66 4.98 -1 6 C-0.34 6.66 0.32 7.32 1 8 C1 6.35 1 4.7 1 3 C0.67 3 0.34 3 0 3 Z M-6 5 C-6 5.66 -6 6.32 -6 7 C-4.68 7 -3.36 7 -2 7 C-2 6.34 -2 5.68 -2 5 C-3.32 5 -4.64 5 -6 5 Z M9 6 C9.33 6.99 9.66 7.98 10 9 C10.66 8.34 11.32 7.68 12 7 C11.01 6.67 10.02 6.34 9 6 Z " fill="#272A8B" transform="translate(187,68)"/>
<path d="M0 0 C1.62418745 -0.08090971 3.24951745 -0.13914995 4.875 -0.1875 C5.77992187 -0.22230469 6.68484375 -0.25710937 7.6171875 -0.29296875 C8.79667969 -0.14794922 8.79667969 -0.14794922 10 0 C10.66 0.99 11.32 1.98 12 3 C15 3.16666667 15 3.16666667 18 3 C18.66 3.33 19.32 3.66 20 4 C20.804375 3.79375 21.60875 3.5875 22.4375 3.375 C25 3 25 3 26.8125 4.0625 C28.53965989 6.88049772 28.47219016 8.76212461 28 12 C26.3125 14 26.3125 14 24 15 C21.60736593 14.33228817 19.77902615 13.77902615 18 12 C17.95936168 10.33382885 17.957279 8.66611905 18 7 C17.34 7 16.68 7 16 7 C16.33 9.31 16.66 11.62 17 14 C15.02 14 13.04 14 11 14 C11 11.69 11 9.38 11 7 C10.67 7.33 10.34 7.66 10 8 C8.33382885 8.04063832 6.66611905 8.042721 5 8 C5.66 9.98 6.32 11.96 7 14 C4.69 14 2.38 14 0 14 C0.33 13.34 0.66 12.68 1 12 C1.2275015 10.12943209 1.40962811 8.25314042 1.5625 6.375 C1.64628906 5.37210937 1.73007813 4.36921875 1.81640625 3.3359375 C1.87699219 2.56507812 1.93757813 1.79421875 2 1 C1.34 0.67 0.68 0.34 0 0 Z M5 1 C5 2.65 5 4.3 5 6 C5.99 5.67 6.98 5.34 8 5 C7.34 3.68 6.68 2.36 6 1 C5.67 1 5.34 1 5 1 Z M22 6 C22 7.98 22 9.96 22 12 C22.99 12 23.98 12 25 12 C25 10.35 25 8.7 25 7 C24.01 6.67 23.02 6.34 22 6 Z " fill="#272A8C" transform="translate(86,64)"/>
<path d="M0 0 C3.21880117 3.7935871 5.6163187 7.65829477 8 12 C5.69 15.96 3.38 19.92 1 24 C-3 23 -3 23 -4.30078125 20.85546875 C-4.63464844 19.97503906 -4.96851563 19.09460938 -5.3125 18.1875 C-5.65925781 17.31480469 -6.00601562 16.44210938 -6.36328125 15.54296875 C-7.31793835 11.73019713 -6.57678747 9.96504054 -4.58984375 6.640625 C-4.04457031 5.85171875 -3.49929687 5.0628125 -2.9375 4.25 C-2.38964844 3.45078125 -1.84179688 2.6515625 -1.27734375 1.828125 C-0.85582031 1.22484375 -0.43429688 0.6215625 0 0 Z " fill="#3C3F99" transform="translate(35,16)"/>
<path d="M0 0 C0.33 1.32 0.66 2.64 1 4 C2.32 4 3.64 4 5 4 C5 2.68 5 1.36 5 0 C5.66 0 6.32 0 7 0 C7 1.32 7 2.64 7 4 C7.99 4 8.98 4 10 4 C10.33 2.68 10.66 1.36 11 0 C12.32 0 13.64 0 15 0 C15 0.66 15 1.32 15 2 C15.70125 1.67 16.4025 1.34 17.125 1 C20.26003116 -0.09044562 22.70563182 -0.15322643 26 0 C26.36067893 4.44837341 26.36067893 4.44837341 24.9375 6.625 C22.16547237 8.59224541 19.13568619 9.71212888 16 11 C15.01 11.66 14.02 12.32 13 13 C11.7315625 12.071875 11.7315625 12.071875 10.4375 11.125 C7.08627655 8.86952264 3.91143146 7.93874355 0 7 C0 4.69 0 2.38 0 0 Z " fill="#E3E3F0" transform="translate(22,44)"/>
<path d="M0 0 C0 0.99 0 1.98 0 3 C-1.9375 3.5625 -1.9375 3.5625 -4 4 C-4.33 3.67 -4.66 3.34 -5 3 C-5.33 3.66 -5.66 4.32 -6 5 C-4.741875 4.87625 -3.48375 4.7525 -2.1875 4.625 C-1.12595703 4.52058594 -1.12595703 4.52058594 -0.04296875 4.4140625 C2.29988142 4.07334609 2.29988142 4.07334609 5 2 C5 2.99 5 3.98 5 5 C5.66 5 6.32 5 7 5 C7 5.66 7 6.32 7 7 C6.34 7 5.68 7 5 7 C5 8.65 5 10.3 5 12 C5.99 12 6.98 12 8 12 C7.67 12.99 7.34 13.98 7 15 C5.68 15 4.36 15 3 15 C3 12.36 3 9.72 3 7 C2.34 7 1.68 7 1 7 C1.33 9.64 1.66 12.28 2 15 C-2.29 15 -6.58 15 -11 15 C-10.34 14.67 -9.68 14.34 -9 14 C-9 11.69 -9 9.38 -9 7 C-9.66 7 -10.32 7 -11 7 C-11 6.34 -11 5.68 -11 5 C-10.34 5 -9.68 5 -9 5 C-8.87625 4.360625 -8.7525 3.72125 -8.625 3.0625 C-8.41875 2.381875 -8.2125 1.70125 -8 1 C-5.29120665 -0.35439668 -2.99066732 -0.06501451 0 0 Z M-6 7 C-6 8.98 -6 10.96 -6 13 C-5.01 13.33 -4.02 13.66 -3 14 C-3 11.69 -3 9.38 -3 7 C-3.99 7 -4.98 7 -6 7 Z " fill="#2A2D91" transform="translate(125,63)"/>
<path d="M0 0 C0.66 0 1.32 0 2 0 C2 0.99 2 1.98 2 3 C3.98 3 5.96 3 8 3 C8.33 4.32 8.66 5.64 9 7 C9.33 5.68 9.66 4.36 10 3 C11.32 3 12.64 3 14 3 C12.73082115 8.53823498 10.79742302 13.66169774 7 18 C6.01 18 5.02 18 4 18 C4 16.68 4 15.36 4 14 C4.99 13.34 5.98 12.68 7 12 C5.31192092 7.76915097 5.31192092 7.76915097 2 5 C2 6.65 2 8.3 2 10 C2.66 10 3.32 10 4 10 C4 10.99 4 11.98 4 13 C2.35 12.67 0.7 12.34 -1 12 C-1.2226746 10.56465159 -1.42761906 9.12654475 -1.625 7.6875 C-1.74101562 6.88699219 -1.85703125 6.08648437 -1.9765625 5.26171875 C-2 3 -2 3 0 0 Z " fill="#282B8D" transform="translate(209,65)"/>
<path d="M0 0 C0.66 0 1.32 0 2 0 C2 0.99 2 1.98 2 3 C2.66 3 3.32 3 4 3 C4 3.66 4 4.32 4 5 C3.34 5 2.68 5 2 5 C2 6.65 2 8.3 2 10 C2.66 10 3.32 10 4 10 C3.67 10.99 3.34 11.98 3 13 C1.68 13 0.36 13 -1 13 C-1 10.36 -1 7.72 -1 5 C-1.66 5 -2.32 5 -3 5 C-2.814375 5.598125 -2.62875 6.19625 -2.4375 6.8125 C-2 9 -2 9 -3 12 C-5.3125 13.375 -5.3125 13.375 -8 14 C-10.3125 13 -10.3125 13 -12 11 C-12.5 8 -12.5 8 -12 5 C-10.4375 3.0625 -10.4375 3.0625 -8 2 C-4.25 2.3125 -4.25 2.3125 -1 3 C-0.67 2.01 -0.34 1.02 0 0 Z M-8 4 C-9.29633621 5.06645115 -9.29633621 5.06645115 -9.0625 7.5625 C-9.041875 8.366875 -9.02125 9.17125 -9 10 C-7.68 10 -6.36 10 -5 10 C-5.57344937 7.13275314 -5.8614515 6.1385485 -8 4 Z " fill="#242689" transform="translate(46,65)"/>
<path d="M0 0 C2.6875 -0.375 2.6875 -0.375 6 0 C8.06398076 1.823983 9.39041053 3.72763839 11 6 C11.33 4.35 11.66 2.7 12 1 C11.34 0.67 10.68 0.34 10 0 C11.98 0 13.96 0 16 0 C15.01 0.495 15.01 0.495 14 1 C14 5.29 14 9.58 14 14 C9.9915966 11.9957983 8.58590343 10.50944037 6 7 C5.84850702 10.62885324 5.84850702 10.62885324 7 14 C5.02 14 3.04 14 1 14 C1.33 13.34 1.66 12.68 2 12 C2.12082534 10.33654418 2.1753794 8.66779409 2.1875 7 C2.20167969 6.113125 2.21585938 5.22625 2.23046875 4.3125 C2.22713126 1.80480016 2.22713126 1.80480016 0 0 Z " fill="#2A2D8C" transform="translate(18,64)"/>
<path d="M0 0 C2.76223278 2.76223278 2.57856291 5.20706617 3 9 C3 6.69 3 4.38 3 2 C4.32 1.34 5.64 0.68 7 0 C7.06058594 0.62648438 7.12117187 1.25296875 7.18359375 1.8984375 C7.26738281 2.71570313 7.35117188 3.53296875 7.4375 4.375 C7.55931641 5.59316406 7.55931641 5.59316406 7.68359375 6.8359375 C7.89090114 9.04272805 7.89090114 9.04272805 9 11 C3.72 11 -1.56 11 -7 11 C-6.67 8.36 -6.34 5.72 -6 3 C-6.66 2.67 -7.32 2.34 -8 2 C-4.77626323 -0.14915785 -3.73296326 -0.38286803 0 0 Z M-2 3 C-3.35618499 4.12534105 -3.35618499 4.12534105 -3.0625 7.0625 C-3.041875 8.031875 -3.02125 9.00125 -3 10 C-2.01 9.67 -1.02 9.34 0 9 C0 7.35 0 5.7 0 4 C-0.66 3.67 -1.32 3.34 -2 3 Z " fill="#282A8D" transform="translate(159,67)"/>
<path d="M0 0 C2.31 0 4.62 0 7 0 C6.01 0.495 6.01 0.495 5 1 C5.33 4.3 5.66 7.6 6 11 C7.32 11 8.64 11 10 11 C10.33 7.7 10.66 4.4 11 1 C10.34 0.67 9.68 0.34 9 0 C10.98 0 12.96 0 15 0 C14.01 0.495 14.01 0.495 13 1 C13 4.96 13 8.92 13 13 C8.80184617 15.09907691 8.20805526 15.21812126 4 14 C3.34 13.67 2.68 13.34 2 13 C1.3671875 10.05859375 1.3671875 10.05859375 0.875 6.4375 C0.70742187 5.23996094 0.53984375 4.04242188 0.3671875 2.80859375 C0.24601563 1.88175781 0.12484375 0.95492187 0 0 Z " fill="#252890" transform="translate(137,64)"/>
<path d="M0 0 C0.66 0 1.32 0 2 0 C3.00484204 1.95585325 4.00373805 3.91476237 5 5.875 C5.556875 6.96554688 6.11375 8.05609375 6.6875 9.1796875 C8 12 8 12 8 14 C6.02 14 4.04 14 2 14 C2 12.35 2 10.7 2 9 C0.68 9 -0.64 9 -2 9 C-2 10.65 -2 12.3 -2 14 C-3.65 14 -5.3 14 -7 14 C-4.69 9.38 -2.38 4.76 0 0 Z " fill="#27298E" transform="translate(7,64)"/>
<path d="M0 0 C0.66 0 1.32 0 2 0 C2 0.66 2 1.32 2 2 C2.66 2 3.32 2 4 2 C8.74085813 12.12819692 9.40156552 21.92896216 10 33 C3.07 33 -3.86 33 -11 33 C-11 32.34 -11 31.68 -11 31 C-4.73 31 1.54 31 8 31 C6.78295513 20.04659619 5.19259657 9.8983872 0 0 Z " fill="#2E3190" transform="translate(61,20)"/>
<path d="M0 0 C4.875 1.875 4.875 1.875 6 3 C6.3125 5.875 6.3125 5.875 6 9 C4.3125 11 4.3125 11 2 12 C-0.6875 11.5625 -0.6875 11.5625 -3 10 C-4.0625 7.125 -4.0625 7.125 -4 4 C-2.0625 1.625 -2.0625 1.625 0 0 Z M0 3 C-1.01111093 6.04913228 -1.01111093 6.04913228 0 9 C0.99 9 1.98 9 3 9 C3 7.35 3 5.7 3 4 C2.01 3.67 1.02 3.34 0 3 Z " fill="#26288B" transform="translate(67,67)"/>
<path d="M0 0 C0 0.99 0 1.98 0 3 C-0.99 2.67 -1.98 2.34 -3 2 C-3.33 2.66 -3.66 3.32 -4 4 C-3.34 4 -2.68 4 -2 4 C-2 4.66 -2 5.32 -2 6 C-2.66 6 -3.32 6 -4 6 C-4 8.31 -4 10.62 -4 13 C-3.34 13.33 -2.68 13.66 -2 14 C-4.31 14 -6.62 14 -9 14 C-8.34 13.67 -7.68 13.34 -7 13 C-7 10.69 -7 8.38 -7 6 C-7.66 6 -8.32 6 -9 6 C-9 5.34 -9 4.68 -9 4 C-8.34 4 -7.68 4 -7 4 C-6.87625 3.360625 -6.7525 2.72125 -6.625 2.0625 C-6.41875 1.381875 -6.2125 0.70125 -6 0 C-3.50907189 -1.24546405 -2.58919267 -0.7767578 0 0 Z " fill="#2A2E90" transform="translate(65,64)"/>
<path d="M0 0 C1.98 0 3.96 0 6 0 C6.33 0.99 6.66 1.98 7 3 C7 2.01 7 1.02 7 0 C8.32 0.33 9.64 0.66 11 1 C9.68 4.3 8.36 7.6 7 11 C6.34 11 5.68 11 5 11 C3.35 7.37 1.7 3.74 0 0 Z " fill="#25288E" transform="translate(167,68)"/>
<path d="M0 0 C4.93133998 1.08656644 8.78316189 2.1009238 13 5 C13.639375 4.360625 14.27875 3.72125 14.9375 3.0625 C18.91930882 0.38087365 22.294792 0.20501996 27 0 C27 0.66 27 1.32 27 2 C25.7625 2.28875 24.525 2.5775 23.25 2.875 C20.28843656 3.61932214 17.59753049 4.33758049 15 6 C14.67 6.66 14.34 7.32 14 8 C9.99184592 7.38336091 7.29319995 5.26407497 4 3 C2.6808418 2.30570621 1.35350594 1.62469505 0 1 C0 0.67 0 0.34 0 0 Z " fill="#3C3E98" transform="translate(23,51)"/>
<path d="M0 0 C0.33 0.99 0.66 1.98 1 3 C1.66 3 2.32 3 3 3 C3 3.66 3 4.32 3 5 C2.34 5 1.68 5 1 5 C1 6.65 1 8.3 1 10 C1.99 10 2.98 10 4 10 C3.67 10.99 3.34 11.98 3 13 C1.68 13 0.36 13 -1 13 C-1 10.36 -1 7.72 -1 5 C-1.66 5 -2.32 5 -3 5 C-3 6.98 -3 8.96 -3 11 C-3.33 11 -3.66 11 -4 11 C-4.35233161 5.62694301 -4.35233161 5.62694301 -4 3 C-2 1 -2 1 0 0 Z " fill="#212384" transform="translate(129,65)"/>
<path d="M0 0 C2.625 0.375 2.625 0.375 5 1 C5 1.99 5 2.98 5 4 C4.01 4 3.02 4 2 4 C2.66 6.31 3.32 8.62 4 11 C2.02 11 0.04 11 -2 11 C-2.05399736 9.54207116 -2.09279177 8.08357288 -2.125 6.625 C-2.15980469 5.40683594 -2.15980469 5.40683594 -2.1953125 4.1640625 C-2 2 -2 2 0 0 Z " fill="#272A8B" transform="translate(75,67)"/>
<path d="M0 0 C4.455 0.99 4.455 0.99 9 2 C9 2.66 9 3.32 9 4 C8.39671875 4.13277344 7.7934375 4.26554688 7.171875 4.40234375 C6.37265625 4.57894531 5.5734375 4.75554688 4.75 4.9375 C3.56664062 5.19853516 3.56664062 5.19853516 2.359375 5.46484375 C0.23121297 5.947556 -1.88532842 6.46163178 -4 7 C-4 6.34 -4 5.68 -4 5 C-3.34 5 -2.68 5 -2 5 C-1.34 3.35 -0.68 1.7 0 0 Z " fill="#7A7BB9" transform="translate(29,10)"/>
<path d="M0 0 C2 2 2 2 2.0625 4.375 C2.041875 5.24125 2.02125 6.1075 2 7 C2.29044914 8.34332728 2.60955794 9.68225804 3 11 C0.5 9.875 0.5 9.875 -2 8 C-2.4375 4.9375 -2.4375 4.9375 -2 2 C-1.34 1.34 -0.68 0.68 0 0 Z " fill="#292D90" transform="translate(36,68)"/>
<path d="M0 0 C2.375 0.3125 2.375 0.3125 5 1 C5.66 1.99 6.32 2.98 7 4 C6.01 4.99 5.02 5.98 4 7 C2.68 6.34 1.36 5.68 0 5 C0 3.33333333 0 1.66666667 0 0 Z " fill="#1E2185" transform="translate(181,67)"/>
<path d="M0 0 C0.66 0 1.32 0 2 0 C2 0.66 2 1.32 2 2 C3.65 1.34 5.3 0.68 7 0 C7 1.65 7 3.3 7 5 C4.69 5 2.38 5 0 5 C0 3.35 0 1.7 0 0 Z " fill="#7577B6" transform="translate(35,44)"/>
<path d="M0 0 C3 1 3 1 4 2.875 C4.33 3.57625 4.66 4.2775 5 5 C6.5412312 6.70921589 6.5412312 6.70921589 8 8 C4.67187429 7.42618522 3.30157545 6.40619252 1 4 C0.34 4 -0.32 4 -1 4 C-0.67 2.68 -0.34 1.36 0 0 Z " fill="#2A2B94" transform="translate(34,0)"/>
<path d="M0 0 C8.57142857 1.71428571 8.57142857 1.71428571 12 6 C8.98782888 5.35550393 6.48344164 4.34977818 3.75 2.9375 C3.04359375 2.57527344 2.3371875 2.21304688 1.609375 1.83984375 C1.07828125 1.56269531 0.5471875 1.28554688 0 1 C0 0.67 0 0.34 0 0 Z " fill="#4B4C9F" transform="translate(23,51)"/>
<path d="M0 0 C1.98 0 3.96 0 6 0 C6 0.99 6 1.98 6 3 C3.69 3 1.38 3 -1 3 C-0.67 2.01 -0.34 1.02 0 0 Z " fill="#1B1C9B" transform="translate(50,71)"/>
<path d="M0 0 C1.98 0 3.96 0 6 0 C6 0.99 6 1.98 6 3 C4.02 3 2.04 3 0 3 C0 2.01 0 1.02 0 0 Z " fill="#1D1F8D" transform="translate(80,71)"/>
<path d="M0 0 C1.32 0 2.64 0 4 0 C4 1.65 4 3.3 4 5 C2.0625 4.6875 2.0625 4.6875 0 4 C-0.33 3.01 -0.66 2.02 -1 1 C-0.67 0.67 -0.34 0.34 0 0 Z " fill="#8384BE" transform="translate(44,44)"/>
<path d="M0 0 C0.99 0.33 1.98 0.66 3 1 C3 1.66 3 2.32 3 3 C2.01 3 1.02 3 0 3 C0 2.01 0 1.02 0 0 Z " fill="#292D8F" transform="translate(203,63)"/>
<path d="M0 0 C0.66 0 1.32 0 2 0 C2 0.99 2 1.98 2 3 C1.01 3 0.02 3 -1 3 C-0.67 2.01 -0.34 1.02 0 0 Z " fill="#262880" transform="translate(164,63)"/>
</svg>
