<?xml version="1.0" encoding="UTF-8"?>
<svg version="1.1" xmlns="http://www.w3.org/2000/svg" width="800" height="370">
<path d="M0 0 C1.18529297 1.07701172 1.18529297 1.07701172 2.39453125 2.17578125 C3.29816406 2.98660156 4.20179688 3.79742187 5.1328125 4.6328125 C21.33079209 19.93463831 31.77983693 41.08642611 32.70703125 63.421875 C33.49061939 94.25683212 24.3696673 121.52569435 4.39453125 145.17578125 C3.96269531 145.69269531 3.53085938 146.20960938 3.0859375 146.7421875 C-3.65904639 154.7280883 -11.12913079 161.08467671 -19.60546875 167.17578125 C-13.95378014 188.65219796 3.73473321 207.51067357 21.39453125 220.17578125 C21.08203125 222.11328125 21.08203125 222.11328125 20.39453125 224.17578125 C0.96449326 230.65246058 -23.31157451 221.8508411 -40.859375 213.65625 C-51.14814223 208.4676815 -60.68728361 201.49952534 -69.25 193.796875 C-72.18981928 191.77361629 -73.30692455 191.89476182 -76.79296875 192.42578125 C-105.9522391 195.56651899 -137.55233705 192.73264338 -161.36572266 173.77441406 C-165.29911705 170.42726246 -168.98154201 166.85243882 -172.60546875 163.17578125 C-173.62060547 162.17611328 -173.62060547 162.17611328 -174.65625 161.15625 C-191.03549241 143.87332525 -197.46688664 119.51496981 -196.91796875 96.25 C-195.73264343 70.70130057 -184.98948905 46.51937791 -168.60546875 27.17578125 C-167.95771484 26.40838623 -167.95771484 26.40838623 -167.296875 25.62548828 C-145.45732783 0.08391105 -113.98398801 -17.70675572 -80.37890625 -21.578125 C-51.77031558 -23.44390265 -22.53922855 -19.24992157 0 0 Z M-137.51953125 45.328125 C-151.96965349 62.26794759 -157.94831394 81.61022933 -156.8125 103.69775391 C-155.59024203 118.32737465 -148.18565715 130.68038718 -137.6875 140.6328125 C-122.1058194 153.48918014 -103.44272574 157.3644318 -83.60546875 156.17578125 C-59.9463922 153.38958261 -39.12824813 141.07146958 -23.60546875 123.17578125 C-11.83189029 107.7077994 -4.56475735 88.85730902 -6.60546875 69.17578125 C-9.38094841 52.45622509 -16.22317129 38.25632732 -29.98046875 27.80078125 C-40.56447736 20.59245227 -52.76690349 15.97971418 -65.60546875 15.17578125 C-66.76369141 15.09650391 -66.76369141 15.09650391 -67.9453125 15.015625 C-94.08682014 14.11148263 -120.13132189 26.00464418 -137.51953125 45.328125 Z " fill="#9E1F65" transform="translate(230.60546875,58.82421875)"/>
<path d="M0 0 C6.80736936 6.19820879 10.35242784 12.13116562 11.02883911 21.51046753 C11.19340614 26.37864494 11.1872216 31.2467846 11.1875 36.1171875 C11.19928384 37.915584 11.21265052 39.71397076 11.2275238 41.51234436 C11.26354747 46.22147902 11.28387019 50.93052717 11.29907227 55.63977051 C11.32400544 63.20123464 11.363428 70.7625081 11.42097282 78.32379341 C11.43732561 80.9640308 11.44108012 83.60408768 11.44398499 86.24436951 C11.45375505 87.85293903 11.4640173 89.46150567 11.47485352 91.07006836 C11.47230057 91.80614822 11.46974762 92.54222809 11.46711731 93.3006134 C11.38532887 97.39713922 11.38532887 97.39713922 13.74609375 100.58984375 C16.3356082 100.73532209 18.78794766 100.77633427 21.37109375 100.71484375 C23.80484375 100.67359375 26.23859375 100.63234375 28.74609375 100.58984375 C28.74609375 106.19984375 28.74609375 111.80984375 28.74609375 117.58984375 C15.41420207 120.12925169 1.32853571 122.06467519 -10.52734375 114.08203125 C-14.38160359 110.7509741 -16.14713817 106.50045554 -17.25390625 101.58984375 C-17.8365625 102.02554688 -18.41921875 102.46125 -19.01953125 102.91015625 C-39.96214388 118.12318618 -63.74579085 122.91618858 -89.2265625 120.16015625 C-100.94697032 118.01956316 -113.34423165 112.73701431 -121.08203125 103.37890625 C-126.79560961 94.68296557 -128.22211542 86.96178449 -127.25390625 76.58984375 C-124.81361783 65.92744719 -119.30979269 58.19209226 -110.2265625 52.19140625 C-97.92001213 45.56107031 -83.92037189 43.56705581 -70.18359375 42.40625 C-67.88278325 42.19889203 -65.58200286 41.99119974 -63.28125 41.78320312 C-59.69616207 41.4652227 -56.11083958 41.15079067 -52.52490234 40.8425293 C-49.03517516 40.5403089 -45.54692253 40.22415127 -42.05859375 39.90625 C-40.99381805 39.81863907 -39.92904236 39.73102814 -38.83200073 39.64076233 C-28.8436223 38.73210667 -28.8436223 38.73210667 -20.31640625 33.83984375 C-17.88523093 28.69147249 -17.88812579 23.79746893 -19.48046875 18.44140625 C-21.60055064 13.36605869 -25.41651366 11.355424 -30.25390625 9.33984375 C-38.12834966 6.3377122 -45.59421965 6.37431845 -53.94140625 6.33984375 C-55.17052734 6.31921875 -56.39964844 6.29859375 -57.66601562 6.27734375 C-68.08689171 6.23288135 -78.06342573 7.59380831 -86.25390625 14.58984375 C-89.96568144 19.10804629 -90.82206906 23.86249499 -92.25390625 29.58984375 C-101.16390625 29.58984375 -110.07390625 29.58984375 -119.25390625 29.58984375 C-118.12527554 17.17490599 -118.12527554 17.17490599 -115.44140625 12.21484375 C-114.68923828 10.78011719 -114.68923828 10.78011719 -113.921875 9.31640625 C-106.56371588 -2.71168524 -94.92175494 -7.7113958 -81.76953125 -11.3828125 C-56.70940091 -16.88069824 -20.80452098 -16.99828845 0 0 Z M-25.91601562 54.80883789 C-37.47246618 57.30043979 -49.09447669 58.80288779 -60.83251953 60.10644531 C-75.94987395 61.67672887 -75.94987395 61.67672887 -89.81640625 67.46484375 C-90.60144531 67.93664062 -91.38648438 68.4084375 -92.1953125 68.89453125 C-95.53373395 71.64381951 -97.06273975 74.197327 -97.65234375 78.4921875 C-97.5939049 86.06001882 -97.07694477 90.62909603 -91.69140625 96.27734375 C-84.99972316 101.41690105 -76.28268016 102.12488796 -68.12890625 102.02734375 C-67.21947266 102.01904541 -66.31003906 102.01074707 -65.37304688 102.00219727 C-49.61304686 101.61372709 -34.0672885 97.01348469 -22.62109375 85.65625 C-18.0176817 78.6985215 -17.85951128 72.1746627 -18.06640625 64.08984375 C-18.07994141 63.07664062 -18.09347656 62.0634375 -18.10742188 61.01953125 C-18.14247562 58.54239971 -18.19160861 56.06641448 -18.25390625 53.58984375 C-20.90002454 53.58984375 -23.34174421 54.24607041 -25.91601562 54.80883789 Z " fill="#9E1F65" transform="translate(647.25390625,82.41015625)"/>
<path d="M0 0 C5.55769885 4.75178019 8.88655709 9.50615036 10.875 16.5625 C11.06154042 19.31734071 11.15573038 21.97079754 11.14624023 24.72338867 C11.15146698 25.51923874 11.15669373 26.31508881 11.16207886 27.13505554 C11.1722792 28.85376717 11.17809231 30.57250935 11.17996025 32.29125023 C11.18363433 35.01050031 11.20038649 37.72938913 11.22071838 40.44856262 C11.27605116 48.17617089 11.30689216 55.90383039 11.33129883 63.6315918 C11.34714841 68.36538471 11.37733075 73.0989168 11.41606331 77.83257484 C11.42772696 79.63590038 11.43364378 81.43927247 11.43374443 83.24263573 C11.4339359 85.75863415 11.45215592 88.27390863 11.47436523 90.78979492 C11.46978806 91.53634338 11.46521088 92.28289185 11.460495 93.05206299 C11.50157356 95.97042069 11.5404449 98.0568102 13.176651 100.52998352 C16.07642955 102.29291278 19.28237687 101.86853339 22.5625 101.75 C26.1821875 101.6571875 26.1821875 101.6571875 29.875 101.5625 C29.545 107.1725 29.215 112.7825 28.875 118.5625 C16.64168575 121.13793458 3.11660319 122.75777963 -8.29296875 116.34375 C-13.03944546 112.70039901 -15.14170518 108.10587062 -17.125 102.5625 C-17.83849609 103.19865234 -17.83849609 103.19865234 -18.56640625 103.84765625 C-36.96436038 119.26398982 -61.78423002 123.17220827 -85.125 121.5625 C-99.15484438 119.69185408 -111.60162951 114.25096369 -121.125 103.5625 C-126.71065232 94.94061007 -128.30352765 86.21211172 -126.4375 76.125 C-124.04952137 66.49016956 -118.5439312 58.98003927 -110.1953125 53.71484375 C-104.07956021 50.38860896 -98.07358002 48.0146453 -91.27734375 46.515625 C-90.51588043 46.34752823 -89.75441711 46.17943146 -88.96987915 46.00624084 C-77.78283034 43.70088626 -66.36351394 42.96211518 -55 42 C-50.47530322 41.61583364 -45.95229029 41.21659175 -41.4296875 40.80859375 C-40.41188202 40.72725693 -39.39407654 40.6459201 -38.34542847 40.56211853 C-31.36113523 39.93096014 -23.93737271 39.24063244 -19.125 33.5625 C-17.40560077 28.40430232 -17.50041808 23.47298588 -19.1875 18.3125 C-24.45649436 10.83392736 -31.50604248 9.12581805 -40.125 7.5625 C-44.80134525 7.14651946 -49.43241056 7.09682397 -54.125 7.125 C-55.30578125 7.10501953 -56.4865625 7.08503906 -57.703125 7.06445312 C-67.45977882 7.06982573 -78.24085561 8.50653655 -85.65625 15.50390625 C-88.88077442 20.02338596 -90.36822496 25.34541048 -92.125 30.5625 C-100.705 30.5625 -109.285 30.5625 -118.125 30.5625 C-118.125 18.75410389 -115.27293629 10.41018318 -106.9375 1.8828125 C-81.18882209 -19.35984678 -26.69647597 -19.63625092 0 0 Z M-25.78613281 55.78100586 C-35.23187842 57.81859882 -44.67488733 59.16880989 -54.26754761 60.2588501 C-76.70612348 62.07394103 -76.70612348 62.07394103 -95.125 73.5625 C-97.68687417 77.84686295 -97.63684812 81.69168721 -97.125 86.5625 C-95.41739178 92.48890498 -92.4035781 96.4490336 -87.125 99.5625 C-80.78699908 102.31307647 -74.92642761 103.08068429 -68.0625 103 C-66.69266968 102.98864014 -66.69266968 102.98864014 -65.29516602 102.97705078 C-50.15521589 102.61471815 -35.33795048 98.32196564 -23.625 88.34765625 C-17.66578624 81.25557112 -17.60732206 75.67972113 -17.875 66.625 C-17.89304687 65.46419922 -17.91109375 64.30339844 -17.9296875 63.10742188 C-17.97658741 60.25825253 -18.04220941 57.41081469 -18.125 54.5625 C-20.77074144 54.5625 -23.21215957 55.21862277 -25.78613281 55.78100586 Z " fill="#9E1F65" transform="translate(399.125,81.4375)"/>
<path d="M0 0 C0.66 0 1.32 0 2 0 C2.18433594 0.55945313 2.36867188 1.11890625 2.55859375 1.6953125 C6.1649268 11.66481986 11.74624312 21.04799208 19.4375 28.375 C24.06347779 33.25645586 24.07357773 38.76343546 24.59765625 45.125 C25.80275986 56.73143473 32.77631897 65.97204532 41.57421875 73.30078125 C53.61973839 81.73846409 67.08383871 85.98602688 81.7890625 83.53515625 C91.73606572 81.16748929 100.08614079 76.46707518 106 68 C106.33 67.34 106.66 66.68 107 66 C109.43793207 65.51835976 111.78813018 65.15781367 114.25 64.875 C114.91902344 64.78863281 115.58804688 64.70226562 116.27734375 64.61328125 C118.18129015 64.3776258 120.09073251 64.18773132 122 64 C123.28197266 63.81824219 123.28197266 63.81824219 124.58984375 63.6328125 C128.31177699 64.19984933 130.60328918 66.56401458 133.3125 69 C133.86228516 69.47695313 134.41207031 69.95390625 134.97851562 70.4453125 C136.32858577 71.61928654 137.66562641 72.80821498 139 74 C137.38923348 84.91741751 129.3241948 94.26352628 121 101 C106.86536701 110.84120665 90.34415984 116.27829654 73 115 C71.48986328 114.72929687 71.48986328 114.72929687 69.94921875 114.453125 C63.28800899 113.38887592 63.28800899 113.38887592 57.14453125 115.69140625 C55.3045975 117.26052724 53.49911999 118.87077338 51.7265625 120.515625 C40.35132013 130.88045902 23.59495978 136.09839017 8.375 136.1875 C7.26898438 136.20167969 6.16296875 136.21585938 5.0234375 136.23046875 C2.0999573 136.00761948 0.46541471 135.52134128 -2 134 C-0.82929504 130.48788512 0.05064354 130.02150708 3 127.9375 C10.81352119 121.99377548 16.67159422 115.05555833 21.625 106.625 C22.15782593 105.73252563 22.15782593 105.73252563 22.70141602 104.82202148 C24.04643007 102.41818835 25.01741549 100.57983341 24.93359375 97.7890625 C23.75620724 95.53281554 22.41875759 94.34741316 20.4375 92.75 C19.71304688 92.13769531 18.98859375 91.52539062 18.2421875 90.89453125 C17.50226562 90.26933594 16.76234375 89.64414062 16 89 C2.97945225 77.63893383 -7.4917932 59.45210722 -9 42 C-9.92972272 26.2180541 -7.68209716 14.0216919 0 0 Z " fill="#58585B" transform="translate(29,197)"/>
<path d="M0 0 C9.57 0 19.14 0 29 0 C29 11.22 29 22.44 29 34 C41.87 34.495 41.87 34.495 55 35 C55 41.27 55 47.54 55 54 C46.42 54.33 37.84 54.66 29 55 C29.01771088 66.0311002 29.05635583 77.06157742 29.13209057 88.09243488 C29.16641375 93.21427097 29.19147881 98.33580711 29.19555664 103.45776367 C29.19982819 108.39877114 29.22819546 113.33910134 29.27343178 118.27989769 C29.28644349 120.16694383 29.29070152 122.05407087 29.28615379 123.94115639 C29.28127371 126.58041569 29.30722244 129.21767561 29.34057617 131.85668945 C29.32763771 133.03272987 29.32763771 133.03272987 29.31443787 134.23252869 C29.30992761 136.66179211 29.30992761 136.66179211 30 140 C33.15802778 142.61016551 35.82746116 143.39198061 39.86328125 143.73046875 C41.19262695 143.85131836 41.19262695 143.85131836 42.54882812 143.97460938 C43.46083984 144.04486328 44.37285156 144.11511719 45.3125 144.1875 C46.70952148 144.3102832 46.70952148 144.3102832 48.13476562 144.43554688 C50.42222267 144.63496621 52.71101103 144.81901017 55 145 C55 150.94 55 156.88 55 163 C17.86441027 166.16047572 17.86441027 166.16047572 7 157.3125 C2.65448309 153.45425613 0.43792523 148.54740428 -0.26939964 142.81773376 C-0.36610659 140.45257758 -0.37162778 138.10520522 -0.34057617 135.73828125 C-0.34123329 134.40516655 -0.34123329 134.40516655 -0.34190369 133.04512024 C-0.33982878 130.13401624 -0.31655945 127.22350227 -0.29296875 124.3125 C-0.28736817 122.28369461 -0.28310026 120.25488513 -0.28010559 118.22607422 C-0.2686932 112.90611418 -0.23925715 107.58640283 -0.20599365 102.26654053 C-0.17521486 96.83007165 -0.1615836 91.39356229 -0.14648438 85.95703125 C-0.11438387 75.30456108 -0.06164549 64.65234021 0 54 C-7.59 54 -15.18 54 -23 54 C-23 47.73 -23 41.46 -23 35 C-15.41 35 -7.82 35 0 35 C0 23.45 0 11.9 0 0 Z " fill="#9E2065" transform="translate(453,37)"/>
<path d="M0 0 C0.7209082 0.00249756 1.44181641 0.00499512 2.18457031 0.00756836 C3.53953613 0.02122437 3.53953613 0.02122437 4.921875 0.03515625 C9.253125 0.06609375 9.253125 0.06609375 13.671875 0.09765625 C13.671875 8.01765625 13.671875 15.93765625 13.671875 24.09765625 C10.289375 24.18015625 6.906875 24.26265625 3.421875 24.34765625 C-9.41621798 24.85343349 -20.64432942 26.98147213 -30.328125 36.09765625 C-35.38225531 42.87080848 -37.46863334 48.46583066 -37.53344727 56.8737793 C-37.54829666 58.05949524 -37.54829666 58.05949524 -37.56344604 59.26916504 C-37.59503893 61.88253787 -37.61980974 64.49592888 -37.64453125 67.109375 C-37.66510269 68.92113213 -37.68609921 70.73288448 -37.70750427 72.54463196 C-37.76270535 77.31377289 -37.81212331 82.08295699 -37.86035156 86.85217285 C-37.9105809 91.71854496 -37.96625949 96.58485435 -38.02148438 101.45117188 C-38.12904194 110.99994643 -38.23049228 120.54877543 -38.328125 130.09765625 C-42.29719974 130.26494689 -46.26648221 130.42553851 -50.23608398 130.57983398 C-51.58739579 130.63331427 -52.93863552 130.68864819 -54.28979492 130.74584961 C-56.22815489 130.82759196 -58.16681204 130.90218948 -60.10546875 130.9765625 C-61.27327881 131.02369385 -62.44108887 131.0708252 -63.64428711 131.11938477 C-66.328125 131.09765625 -66.328125 131.09765625 -67.328125 130.09765625 C-67.42421163 128.45275076 -67.45000287 126.80369934 -67.44837952 125.1559906 C-67.44975418 124.08601837 -67.45112885 123.01604614 -67.45254517 121.91365051 C-67.44894989 120.729702 -67.44535461 119.54575348 -67.44165039 118.32592773 C-67.44179642 117.08707825 -67.44194244 115.84822876 -67.4420929 114.57183838 C-67.44151392 111.16495792 -67.43648459 107.75813741 -67.42951894 104.35126758 C-67.42328493 100.79448799 -67.42268156 97.23770767 -67.42149353 93.68092346 C-67.41838035 86.94129043 -67.41016715 80.20167354 -67.40014404 73.46204764 C-67.38898248 65.79107227 -67.38347235 58.12009614 -67.37844861 50.44911468 C-67.36798452 34.66528425 -67.34963921 18.88147607 -67.328125 3.09765625 C-58.418125 3.09765625 -49.508125 3.09765625 -40.328125 3.09765625 C-39.998125 9.36765625 -39.668125 15.63765625 -39.328125 22.09765625 C-36.358125 18.63265625 -36.358125 18.63265625 -33.328125 15.09765625 C-24.31131355 6.98892084 -12.50566251 -0.08932616 0 0 Z " fill="#9E1F66" transform="translate(765.328125,68.90234375)"/>
<path d="M0 0 C0.75925781 -0.03738281 1.51851562 -0.07476562 2.30078125 -0.11328125 C5.918066 0.53202814 7.18182051 1.56818437 9.6875 4.3125 C11.3782247 8.02230856 12.55996603 11.85512786 13.75 15.75 C14.09289062 16.82572266 14.43578125 17.90144531 14.7890625 19.00976562 C15.77186104 22.10576787 16.73257108 25.20780757 17.6875 28.3125 C18.15414527 29.80363684 18.62147108 31.29456109 19.08984375 32.78515625 C19.9729088 35.62290621 20.8416943 38.46347029 21.6875 41.3125 C23.72295191 36.73600915 25.41553016 32.23660933 26.84375 27.42578125 C27.23024043 26.14511336 27.61696603 24.86451643 28.00390625 23.58398438 C28.59937547 21.5968706 29.19221919 19.6090499 29.78076172 17.61987305 C30.357117 15.67795142 30.94352943 13.73928841 31.53125 11.80078125 C31.87349609 10.65134033 32.21574219 9.50189941 32.56835938 8.31762695 C33.63607144 5.45059646 34.60450575 3.53534308 36.6875 1.3125 C41.6382603 -0.33775343 45.96825409 -0.5288331 50.625 1.75 C52.6875 3.3125 52.6875 3.3125 53.6875 4.3125 C53.80205273 6.03993624 53.84712216 7.77203079 53.86450195 9.50317383 C53.88375481 11.16543755 53.88375481 11.16543755 53.90339661 12.86128235 C53.91078354 14.06850449 53.91817047 15.27572662 53.92578125 16.51953125 C53.933853 17.75160812 53.94192474 18.983685 53.95024109 20.25309753 C53.96410235 22.86671533 53.97481531 25.48035138 53.98266602 28.09399414 C53.99152835 30.77619123 54.01240168 33.45787062 54.04418945 36.13989258 C54.08670262 39.99576578 54.10301422 43.85095325 54.11328125 47.70703125 C54.13078934 48.90818069 54.14829742 50.10933014 54.16633606 51.34687805 C54.16341049 52.46451035 54.16048492 53.58214264 54.1574707 54.73364258 C54.16333694 55.71657791 54.16920319 56.69951324 54.17524719 57.7122345 C53.54702811 61.06138018 52.34132755 62.23865484 49.6875 64.3125 C46.6875 64.875 46.6875 64.875 43.6875 64.3125 C39.74756468 60.4732559 39.17020097 57.67118195 39.078125 52.26171875 C39.06158875 51.60291214 39.04505249 50.94410553 39.02801514 50.26533508 C38.97972444 48.17679349 38.95820918 46.08897878 38.9375 44 C38.90932404 42.57743776 38.87939432 41.1549091 38.84765625 39.73242188 C38.77397437 36.25927175 38.72428285 32.78625928 38.6875 29.3125 C38.36998779 30.30169434 38.05247559 31.29088867 37.7253418 32.31005859 C36.54508989 35.97746846 35.3509665 39.64023508 34.15258789 43.30175781 C33.63576526 44.88743779 33.12271832 46.47435354 32.61352539 48.0625 C31.88114615 50.34449958 31.13532364 52.62171705 30.38671875 54.8984375 C30.16159103 55.60994965 29.93646332 56.32146179 29.70451355 57.05453491 C28.48178356 60.7256634 28.00686902 62.09958732 24.6875 64.3125 C21.75 64.75 21.75 64.75 18.6875 64.3125 C15.1314556 60.68162301 13.55915012 56.8167974 12.109375 52.04296875 C11.89307434 51.36196609 11.67677368 50.68096344 11.45391846 49.97932434 C10.77147775 47.82263274 10.10430361 45.66157111 9.4375 43.5 C8.97496221 42.02898084 8.51143039 40.55827386 8.046875 39.08789062 C6.91555471 35.49960187 5.79789273 31.90731714 4.6875 28.3125 C4.6781543 29.26092773 4.66880859 30.20935547 4.65917969 31.18652344 C4.61510769 34.71314758 4.55347217 38.23856203 4.47998047 41.76464844 C4.45179465 43.28927431 4.43056811 44.81404566 4.41650391 46.33886719 C4.39503951 48.53395936 4.34837831 50.72730711 4.296875 52.921875 C4.27592773 54.24155273 4.25498047 55.56123047 4.23339844 56.92089844 C3.60912345 60.79944413 2.83079893 62.02737157 -0.3125 64.3125 C-3.43956715 64.75922388 -5.34594895 65.00101186 -7.97183228 63.13049316 C-9.82521676 60.61723782 -9.69324489 58.89403945 -9.70068359 55.78710938 C-9.71014008 54.65583618 -9.71959656 53.52456299 -9.7293396 52.35900879 C-9.72326691 51.13709839 -9.71719421 49.91518799 -9.7109375 48.65625 C-9.71380768 47.4024353 -9.71667786 46.14862061 -9.71963501 44.85681152 C-9.72167827 42.2035425 -9.71763468 39.55110029 -9.70361328 36.89794922 C-9.68652086 33.49808366 -9.69636317 30.09892854 -9.71433067 26.69908905 C-9.72778089 23.45561722 -9.71836234 20.2122311 -9.7109375 16.96875 C-9.71701019 15.7468396 -9.72308289 14.5249292 -9.7293396 13.26599121 C-9.71515488 11.56908142 -9.71515488 11.56908142 -9.70068359 9.83789062 C-9.69829681 8.8410022 -9.69591003 7.84411377 -9.69345093 6.8170166 C-9.25175631 3.91314783 -8.61685714 3.06467776 -6.3125 1.3125 C-4.02702852 0.16976426 -2.54370095 0.08122743 0 0 Z M39.6875 23.3125 C40.6875 25.3125 40.6875 25.3125 40.6875 25.3125 Z " fill="#575759" transform="translate(725.3125,219.6875)"/>
<path d="M0 0 C4.73237847 1.69651304 7.3201273 7.59999923 9.8203125 11.70703125 C10.16030273 12.26282364 10.50029297 12.81861603 10.85058594 13.39125061 C11.92705746 15.15211622 12.99892821 16.91572288 14.0703125 18.6796875 C15.1424663 20.439597 16.2156192 22.19888573 17.29003906 23.95741272 C18.26562206 25.55497323 19.23836475 27.15426722 20.2109375 28.75366211 C22.10378722 31.79599055 24.06753868 34.77153557 26.0703125 37.7421875 C26.08489502 36.79899658 26.09947754 35.85580566 26.11450195 34.8840332 C26.17570856 31.37060089 26.24988758 27.85793304 26.33276367 24.3449707 C26.36593166 22.82717129 26.39398882 21.30925094 26.41674805 19.79125977 C26.45044528 17.60380731 26.50276454 15.41745486 26.55859375 13.23046875 C26.58477783 11.91602783 26.61096191 10.60158691 26.63793945 9.24731445 C27.09194933 5.56678377 27.76512708 3.62325027 30.0703125 0.7421875 C33.95084736 -0.47946236 36.03435753 -0.73566298 39.75537109 0.98071289 C43.5186787 5.46993166 42.78360346 10.31341542 42.734375 15.98828125 C42.73915863 17.19154556 42.74394226 18.39480988 42.74887085 19.63453674 C42.75227307 22.17897854 42.74304838 24.72346387 42.72216797 27.26782227 C42.69543418 31.16196317 42.72189698 35.05321512 42.75390625 38.94726562 C42.75060176 41.4192772 42.74419471 43.89128697 42.734375 46.36328125 C42.74449615 47.52798447 42.75461731 48.69268768 42.76504517 49.89268494 C42.63482579 58.8807759 42.63482579 58.8807759 39.65771484 61.97436523 C37.17413516 63.67125149 36.02893352 64.42683712 33.0703125 64.3671875 C32.11125 64.38652344 32.11125 64.38652344 31.1328125 64.40625 C24.01885792 62.1157722 20.22814355 52.89957093 16.6328125 46.9921875 C15.3437404 44.89243515 14.0533937 42.7934647 12.76171875 40.6953125 C11.83576904 39.19000977 11.83576904 39.19000977 10.89111328 37.65429688 C8.37127884 33.62418354 5.74407804 29.67144406 3.0703125 25.7421875 C3.0609668 26.78673096 3.05162109 27.83127441 3.04199219 28.9074707 C3.00212376 32.7824165 2.93637509 36.65656564 2.86279297 40.53100586 C2.83456482 42.2079851 2.8133594 43.88509785 2.79931641 45.56225586 C2.77791125 47.97318968 2.73127824 50.38251534 2.6796875 52.79296875 C2.67784454 53.91811638 2.67784454 53.91811638 2.67596436 55.06599426 C2.52995294 60.25301607 2.52995294 60.25301607 0.21972656 62.71166992 C-2.74268799 64.1319734 -4.68409102 64.21550365 -7.9296875 63.7421875 C-10.54552348 61.69411609 -11.77923991 60.49514859 -12.43762207 57.20007324 C-12.44080444 56.24395142 -12.44398682 55.28782959 -12.44726562 54.30273438 C-12.45987427 53.21480591 -12.47248291 52.12687744 -12.48547363 51.00598145 C-12.47737671 49.83611694 -12.46927979 48.66625244 -12.4609375 47.4609375 C-12.4647644 46.25530151 -12.46859131 45.04966553 -12.47253418 43.80749512 C-12.47525576 41.25886195 -12.46787755 38.71020096 -12.45117188 36.16162109 C-12.4297679 32.25685448 -12.45096753 28.35392802 -12.4765625 24.44921875 C-12.47391927 21.97395427 -12.4687944 19.49869093 -12.4609375 17.0234375 C-12.46903442 15.853573 -12.47713135 14.6837085 -12.48547363 13.47839355 C-12.47286499 12.39046509 -12.46025635 11.30253662 -12.44726562 10.18164062 C-12.44408325 9.2255188 -12.44090088 8.26939697 -12.43762207 7.28430176 C-11.78359031 4.01099932 -10.47118622 2.83418356 -7.9296875 0.7421875 C-5.24254938 -0.60138156 -2.93286975 -0.18957713 0 0 Z " fill="#575759" transform="translate(439.9296875,220.2578125)"/>
<path d="M0 0 C3.91381897 3.31440525 6.68998612 6.17436272 7.5625 11.3125 C7 14 7 14 5 17 C1.8125 18.125 1.8125 18.125 -2 18 C-4.03943372 16.4108871 -5.66192796 14.64665915 -7.39453125 12.73046875 C-9.5278271 10.43107687 -10.89777526 9.57715809 -14 9 C-19.0295564 9.10009067 -24.65323124 9.28326953 -29 12 C-30.30514736 14.21776622 -30.30514736 14.21776622 -31 17 C-31.37125 18.0725 -31.7425 19.145 -32.125 20.25 C-33.92275634 27.95467001 -33.40784756 34.79442401 -30 42 C-27.66274231 44.92157211 -26.55271587 45.81576138 -23 47 C-18.16888434 47.38888238 -13.59916947 47.56637252 -9 45.9375 C-6.21606249 43.24056054 -5.30472875 40.63950651 -4 37 C-4.83144531 37.03480469 -5.66289063 37.06960938 -6.51953125 37.10546875 C-8.14955078 37.14607422 -8.14955078 37.14607422 -9.8125 37.1875 C-10.89144531 37.22230469 -11.97039063 37.25710938 -13.08203125 37.29296875 C-16 37 -16 37 -17.86328125 35.64453125 C-19.48797756 33.29402559 -19.4189057 31.79270468 -19 29 C-17.81860352 27.36645508 -17.81860352 27.36645508 -16 26 C-13.48803711 25.62768555 -13.48803711 25.62768555 -10.52734375 25.63671875 C-9.46322266 25.63736328 -8.39910156 25.63800781 -7.30273438 25.63867188 C-5.63694336 25.6628418 -5.63694336 25.6628418 -3.9375 25.6875 C-2.2659082 25.68266602 -2.2659082 25.68266602 -0.56054688 25.67773438 C7.73305861 25.73305861 7.73305861 25.73305861 10 28 C10.39820611 32.27584873 10.32904395 36.56609349 10.31567383 40.85839844 C10.31251177 42.99205485 10.33597638 45.12432744 10.36132812 47.2578125 C10.36360088 48.60937325 10.36430472 49.96093773 10.36328125 51.3125 C10.36626221 52.54613281 10.36924316 53.77976562 10.37231445 55.05078125 C10.24945068 56.02402344 10.12658691 56.99726563 10 58 C6.76259258 60.15827162 5.75766697 60.73320331 2 60 C-0.3125 57 -0.3125 57 -2 54 C-2.721875 54.61875 -3.44375 55.2375 -4.1875 55.875 C-11.11963605 61.1126139 -18.68400479 60.69589918 -27 60 C-33.8840989 58.26914085 -40.25032068 54.06436974 -44.25 48.15234375 C-49.66976852 38.12975712 -50.36574524 27.25852093 -47.4375 16.375 C-44.62107992 8.03368617 -40.62585956 3.1245264 -32.8125 -0.9375 C-22.62210027 -5.67162271 -9.71138627 -6.17526871 0 0 Z " fill="#58585A" transform="translate(540,224)"/>
<path d="M0 0 C8.18434135 5.720748 13.01096768 12.2175774 15 22 C15.94500375 33.15414263 14.56014076 43.19329499 7.25 52 C1.36695039 58.06998763 -5.37149326 61.07862862 -13.85180664 61.29272461 C-24.82438677 61.38817934 -32.01146635 59.63656298 -40.2734375 52 C-47.32911544 43.826907 -47.65433073 33.2602008 -47.18359375 23.00048828 C-46.5019689 15.57331536 -43.34128405 9.09849841 -38 4 C-27.3294975 -4.05915589 -12.20093453 -6.20887621 0 0 Z M-28.875 14.9375 C-33.25776731 21.25384113 -32.45851 28.54712832 -32 36 C-31.15232746 40.36517985 -29.7366986 43.28171886 -26.5 46.4375 C-21.77807508 49.38870307 -17.4148299 49.5099583 -12 49 C-7.29186702 47.31217874 -4.68259856 45.21551203 -2 41 C0.82344329 33.94139177 1.195226 25.81898372 -1.1875 18.5625 C-3.53144628 13.95543317 -5.91502736 12.06921674 -10.4375 9.75 C-17.46150188 7.69419457 -23.99206308 9.3791136 -28.875 14.9375 Z " fill="#575759" transform="translate(692,223)"/>
<path d="M0 0 C3 2.5 3 2.5 5 5 C5.598125 5.61875 6.19625 6.2375 6.8125 6.875 C8.57333632 10.02597026 8.38586567 12.462898 8 16 C6.9375 17.9375 6.9375 17.9375 5 19 C1.75 19.6875 1.75 19.6875 -2 19 C-4.01397443 17.11029208 -5.66484488 15.07508346 -7.38671875 12.91796875 C-9.44880215 10.46643619 -10.82921269 9.54135393 -14 9 C-18.87095721 9.03984423 -23.32545735 9.63166924 -27 13 C-31.29319721 20.3336254 -32.29278536 28.06313184 -30.4921875 36.33203125 C-29.01424577 40.91025306 -27.0155062 43.42595756 -23 46 C-19.8017988 47.5991006 -16.4787562 47.36195151 -13 47 C-9.35870649 45.51037993 -8.18110755 44.28626677 -6.0625 40.9375 C-4 38 -4 38 -1.0625 36.4375 C2 36 2 36 4.8125 37.3125 C7 39 7 39 8 40 C8.27494243 44.0038492 7.90624603 47.61096219 5.6875 51.01171875 C-0.15926884 57.25097902 -6.28580243 60.08850336 -14.83447266 60.47070312 C-24.14265791 60.60037369 -31.81905946 59.19998301 -38.875 52.8125 C-45.96327091 45.03880667 -47.39605099 35.65955679 -47.26953125 25.48046875 C-46.56769714 16.41765431 -43.48523839 9.36166342 -37.15625 2.84375 C-26.58447087 -6.19588723 -12.06077733 -6.20096538 0 0 Z " fill="#575759" transform="translate(632,224)"/>
<path d="M0 0 C2.60824661 2.10421246 3.59630685 4.06137138 4.61328125 7.21875 C4.89236328 8.07082031 5.17144531 8.92289063 5.45898438 9.80078125 C5.74064453 10.69152344 6.02230469 11.58226562 6.3125 12.5 C6.58255859 13.32886719 6.85261719 14.15773437 7.13085938 15.01171875 C8.10090224 18.00360495 9.0517306 21.00113475 10 24 C10.24715759 24.78133301 10.49431519 25.56266602 10.7489624 26.36767578 C12.50206555 31.91091555 14.25190892 37.45517776 16 43 C16.34256836 41.87505127 16.68513672 40.75010254 17.03808594 39.59106445 C18.31649391 35.40361857 19.60965024 31.22084853 20.90722656 27.03930664 C21.46592696 25.23162276 22.02066271 23.42270842 22.57128906 21.61254883 C23.36515515 19.00525759 24.17334907 16.4027784 24.984375 13.80078125 C25.22621521 12.99538406 25.46805542 12.18998688 25.71722412 11.36018372 C27.1419608 6.84507919 28.61986502 3.46375592 32 0 C35.22222193 -1.3219372 36.49550897 -1.19491699 39.75 0.0625 C42 2 42 2 42.76733398 4.70678711 C43.04122848 8.58355823 42.30656818 10.98646984 40.97265625 14.62890625 C40.74864136 15.25234421 40.52462646 15.87578217 40.29382324 16.51811218 C39.56386494 18.53825519 38.81401949 20.55028918 38.0625 22.5625 C37.55303188 23.95311264 37.04449264 25.34406593 36.53686523 26.73535156 C35.51865741 29.51767141 34.49153789 32.29645465 33.45703125 35.07275391 C32.15352603 38.57443325 30.8852605 42.08796831 29.625 45.60546875 C28.93882523 47.48746287 28.25142475 49.3690108 27.5625 51.25 C27.25771729 52.10537354 26.95293457 52.96074707 26.63891602 53.84204102 C23.90801007 61.12772141 23.90801007 61.12772141 20 63 C17.81640625 63.46875 17.81640625 63.46875 15.5625 63.5 C14.82128906 63.5309375 14.08007812 63.561875 13.31640625 63.59375 C9.92222634 62.72374098 8.03957167 60.73432474 6 58 C4.47747955 54.85417641 3.39267019 51.59749887 2.30078125 48.28125 C1.97965866 47.34575317 1.65853607 46.41025635 1.3276825 45.44641113 C0.30880246 42.46876974 -0.68976233 39.48478414 -1.6875 36.5 C-2.70055037 33.5169289 -3.71763837 30.53525417 -4.7348175 27.55358887 C-5.36484453 25.70163657 -5.99160683 23.84856954 -6.6146698 21.9942627 C-7.73501869 18.66354618 -8.84785099 15.36933928 -10.18676758 12.11914062 C-11.39366684 8.97417346 -11.30799479 6.32634378 -11 3 C-7.84972978 -1.29582302 -4.96260731 -1.2153324 0 0 Z " fill="#575759" transform="translate(353,221)"/>
<path d="M0 0 C2.68016058 2.81703313 3.37301406 4.73566509 3.34057617 8.58496094 C3.34034958 9.48559265 3.34012299 10.38622437 3.33988953 11.31414795 C3.32440567 12.27782288 3.30892181 13.2414978 3.29296875 14.234375 C3.28872391 15.22753723 3.28447906 16.22069946 3.28010559 17.24395752 C3.26332634 20.41291528 3.225675 23.58123478 3.1875 26.75 C3.17245221 28.89973039 3.15876397 31.04947076 3.14648438 33.19921875 C3.11342536 38.46636323 3.06323334 43.73313601 3 49 C3.73114014 48.97905273 4.46228027 48.95810547 5.21557617 48.93652344 C8.53941001 48.85319686 11.86302384 48.80128668 15.1875 48.75 C16.33798828 48.71648437 17.48847656 48.68296875 18.67382812 48.6484375 C20.34155273 48.62910156 20.34155273 48.62910156 22.04296875 48.609375 C23.57473755 48.5779541 23.57473755 48.5779541 25.13745117 48.54589844 C28.75951602 49.12048612 30.41097878 50.45269484 33 53 C33.625 55.5 33.625 55.5 33 58 C30.12277366 60.99286606 28.44909879 61.93719727 24.29882812 62.51757812 C22.87653626 62.54378815 21.45369441 62.54715605 20.03125 62.53125 C19.27332153 62.5350769 18.51539307 62.53890381 17.73449707 62.54284668 C16.13760036 62.54555955 14.54065874 62.53824203 12.94384766 62.52148438 C10.50712506 62.50006264 8.07335024 62.52130389 5.63671875 62.546875 C4.0807227 62.54423161 2.52472847 62.53910639 0.96875 62.53125 C0.24465942 62.53934692 -0.47943115 62.54744385 -1.22546387 62.55578613 C-4.46792682 62.49603395 -6.97381587 62.0112088 -9.95654297 60.734375 C-13.35936545 56.18101636 -12.71188532 51.2464023 -12.6640625 45.71875 C-12.66884613 44.51311401 -12.67362976 43.30747803 -12.67855835 42.06530762 C-12.68196033 39.51666967 -12.67273736 36.96798826 -12.65185547 34.41943359 C-12.62509806 30.51431137 -12.65159739 26.61206388 -12.68359375 22.70703125 C-12.68028971 20.23176448 -12.67388361 17.75649949 -12.6640625 15.28125 C-12.67418365 14.1113855 -12.68430481 12.941521 -12.69473267 11.73620605 C-12.57818532 3.69123695 -12.57818532 3.69123695 -9.68505859 0.23242188 C-5.99166766 -1.46281702 -3.86147968 -1.14414213 0 0 Z " fill="#58585A" transform="translate(282,221)"/>
<path d="M0 0 C1.99301736 1.58066894 2.86543351 2.73086702 4 5 C4.10546854 6.6378677 4.14874002 8.27992941 4.16113281 9.92114258 C4.17074036 10.94593216 4.1803479 11.97072174 4.19024658 13.02656555 C4.19449646 14.13799423 4.19874634 15.24942291 4.203125 16.39453125 C4.20882507 17.53403732 4.21452515 18.6735434 4.22039795 19.84757996 C4.22985769 22.26271636 4.23638578 24.67786572 4.24023438 27.09301758 C4.24993266 30.7868507 4.28094464 34.48012586 4.3125 38.17382812 C4.31903061 40.51822586 4.32428085 42.86262757 4.328125 45.20703125 C4.3404718 46.31238724 4.3528186 47.41774323 4.36553955 48.55659485 C4.36253845 49.59084091 4.35953735 50.62508698 4.35644531 51.69067383 C4.36009094 52.59731277 4.36373657 53.50395172 4.36749268 54.43806458 C3.91924264 57.56299118 2.83175778 59.45056134 1 62 C-1.84083641 63.42041821 -3.85477278 63.31452272 -7 63 C-9.65032507 60.94808233 -10.85194976 59.74219573 -11.5146637 56.41992188 C-11.52086227 55.44603516 -11.52706085 54.47214844 -11.53344727 53.46875 C-11.5492836 52.36080078 -11.56511993 51.25285156 -11.58143616 50.11132812 C-11.57399635 48.3237207 -11.57399635 48.3237207 -11.56640625 46.5 C-11.57260483 45.27216797 -11.57880341 44.04433594 -11.58518982 42.77929688 C-11.59229309 40.18360182 -11.58910526 37.58786126 -11.57641602 34.9921875 C-11.5625515 31.01477479 -11.59661784 27.03971391 -11.63476562 23.0625 C-11.63571678 20.54166609 -11.63385817 18.02082923 -11.62890625 15.5 C-11.64216446 14.30826172 -11.65542267 13.11652344 -11.66908264 11.88867188 C-11.57627985 3.68474123 -11.57627985 3.68474123 -8.65600586 0.21484375 C-5.24372003 -1.34591866 -3.54247069 -1.15515349 0 0 Z " fill="#58585A" transform="translate(413,221)"/>
<path d="M0 0 C2.91543224 3.01421825 3.38276212 5.2034764 3.41992188 9.33178711 C3.43583374 10.39646713 3.45174561 11.46114716 3.46813965 12.55809021 C3.46834106 13.70294388 3.46854248 14.84779755 3.46875 16.02734375 C3.47636353 17.20841202 3.48397705 18.38948029 3.49182129 19.6063385 C3.50262514 22.10366705 3.50547426 24.6010408 3.50097656 27.09838867 C3.50000448 30.91987431 3.54162237 34.73935128 3.5859375 38.56054688 C3.59114458 40.98697498 3.59383269 43.41341006 3.59375 45.83984375 C3.6183429 47.55408791 3.6183429 47.55408791 3.64343262 49.30296326 C3.57471015 57.18912673 3.57471015 57.18912673 0.68945312 61.26000977 C-2 63 -2 63 -5.625 63 C-8.96277238 62.01103041 -9.99986648 61.69619486 -12 59 C-12.38095093 56.57814026 -12.38095093 56.57814026 -12.38818359 53.67407227 C-12.39764008 52.58606827 -12.40709656 51.49806427 -12.4168396 50.37709045 C-12.41076691 49.20206467 -12.40469421 48.02703888 -12.3984375 46.81640625 C-12.40130768 45.60935532 -12.40417786 44.40230438 -12.40713501 43.15867615 C-12.40917801 40.60407035 -12.40363178 38.04944899 -12.39111328 35.49487305 C-12.37507791 31.58151264 -12.39094792 27.66918733 -12.41015625 23.75585938 C-12.40817359 21.27603938 -12.40432944 18.79622004 -12.3984375 16.31640625 C-12.40451019 15.14340469 -12.41058289 13.97040314 -12.4168396 12.76185608 C-12.40738312 11.67069992 -12.39792664 10.57954376 -12.38818359 9.45532227 C-12.38579681 8.49618423 -12.38341003 7.5370462 -12.38095093 6.54884338 C-11.93047535 3.53482867 -11.10501551 2.17880557 -9 0 C-5.4314543 -1.18951523 -3.60804584 -0.97717908 0 0 Z " fill="#585859" transform="translate(333,221)"/>
<path d="M0 0 C3.95945946 1.97972973 3.95945946 1.97972973 5.5 4.25 C5.9375 7.1875 5.9375 7.1875 5.5 10.25 C3.70412315 12.62312298 2.23136969 13.89611144 -0.4375 15.1875 C-3.46984269 15.27938917 -5.07222838 13.97499563 -7.5 12.25 C-9.5 10.25 -9.5 10.25 -9.875 7.375 C-9.5 4.25 -9.5 4.25 -7.6875 1.9375 C-4.89192394 -0.21908725 -3.45345706 -1.03603712 0 0 Z " fill="#575759" transform="translate(570.5,268.75)"/>
</svg>
