<?xml version="1.0" encoding="UTF-8"?>
<svg version="1.1" xmlns="http://www.w3.org/2000/svg" width="398" height="69">
<path d="M0 0 C3.96 0 7.92 0 12 0 C12.33 9.24 12.66 18.48 13 28 C14.32 25.69 15.64 23.38 17 21 C22.38194756 15.7350513 26.89679756 13.94517657 34.3125 13.625 C40.77068712 13.77417008 46.04978168 15.26716619 50.85546875 19.71875 C55.97169844 25.45476049 56.35325176 30.17482435 56.27734375 37.765625 C55.78007247 43.5647886 53.36616079 46.95366203 49.0625 50.8125 C42.35568897 55.60307931 36.05394356 55.77029242 28 55 C21.77246948 53.31715599 17.54429287 49.28577933 14 44 C13.67 43.01 13.34 42.02 13 41 C12.67 45.62 12.34 50.24 12 55 C8.04 55 4.08 55 0 55 C0 54.01 0 53.02 0 52 C-0.763125 52.495 -1.52625 52.99 -2.3125 53.5 C-7.90337568 55.77425451 -13.48573164 56.05071875 -19.3125 54.30859375 C-25.27910365 51.60780157 -28.76323549 47.867045 -31.375 41.8125 C-32.64601578 34.05930376 -32.07610559 27.17884645 -27.46484375 20.65625 C-24.03938605 16.78319916 -19.91246297 14.26066794 -14.73046875 13.796875 C-13.89128906 13.78140625 -13.05210937 13.7659375 -12.1875 13.75 C-11.35605469 13.72421875 -10.52460938 13.6984375 -9.66796875 13.671875 C-7 14 -7 14 -1 17 C-0.67 11.39 -0.34 5.78 0 0 Z M-17 27 C-19.6790573 31.01858595 -19.69610694 34.27641721 -19 39 C-17.20606332 41.87029869 -16.01736724 43.49131638 -13 45 C-8.36445612 45.41204834 -5.69583902 44.87454146 -2 42 C0.37862787 38.21361278 0.15391463 35.42704657 -0.46875 31.125 C-1.25153388 27.99386449 -2.27537881 26.72081338 -5 25 C-10.08934705 23.61199626 -12.84137012 23.6730961 -17 27 Z M26 28 C24.47800557 32.56598329 24.25283266 36.39892714 26.3125 40.8125 C27.98392208 43.22038518 27.98392208 43.22038518 31 45 C33.19188508 45.13806634 33.19188508 45.13806634 35.5 44.8125 C36.2734375 44.73644531 37.046875 44.66039063 37.84375 44.58203125 C40.40630437 43.89032726 41.3758204 43.0747904 43 41 C44.51687471 36.44937587 44.71895824 32.61765604 42.75 28.1875 C40.29236815 25.11546019 38.47143607 24.23233201 34.625 23.625 C30.97291818 24.14672597 28.85858512 25.72612547 26 28 Z " fill="#235599" transform="translate(300,0)"/>
<path d="M0 0 C3.4375 2 3.4375 2 6 4 C9.20918748 4 9.92380921 3.58651972 12.5625 2 C17.36819772 -0.47352089 21.68278457 -0.86458788 27 0 C30.36847296 1.21587606 33.16251774 2.70724214 35.1640625 5.796875 C39.19829092 16.42914057 34.36224532 30.42262474 32 41 C28.04 41 24.08 41 20 41 C18.71506209 38.43012418 19.17809834 37.44758022 19.8125 34.67578125 C20.00070313 33.81146484 20.18890625 32.94714844 20.3828125 32.05664062 C20.79009064 30.24579955 21.20146456 28.43587416 21.6171875 26.62695312 C22.75759913 21.35059657 23.15796802 17.29046641 22 12 C16.54967623 11.33320605 16.54967623 11.33320605 11.95678711 13.68994141 C9.73145007 16.317033 9.20759875 17.99862684 8.55078125 21.3515625 C8.23850586 22.87523437 8.23850586 22.87523437 7.91992188 24.4296875 C7.71947266 25.48414062 7.51902344 26.53859375 7.3125 27.625 C6.89391306 29.72175162 6.47343494 31.81812685 6.05078125 33.9140625 C5.87200439 34.8417041 5.69322754 35.7693457 5.5090332 36.72509766 C5 39 5 39 4 41 C0.04 41 -3.92 41 -8 41 C-7.54024197 36.24916698 -6.96767673 31.66136704 -5.9375 27 C-4.93686298 22.22830553 -4.76810398 17.8698164 -5 13 C-6.15645826 11.62624631 -6.15645826 11.62624631 -9.3125 11.75 C-13.27995482 12.01897999 -14.25414629 12.28023262 -17 15 C-18.09494845 17.77400669 -18.09494845 17.77400669 -18.703125 20.98046875 C-18.9609375 22.14384766 -19.21875 23.30722656 -19.484375 24.50585938 C-19.73703125 25.72080078 -19.9896875 26.93574219 -20.25 28.1875 C-20.518125 29.41404297 -20.78625 30.64058594 -21.0625 31.90429688 C-21.72248339 34.93314922 -22.36309533 37.96621077 -23 41 C-26.96 41 -30.92 41 -35 41 C-34.39495917 32.07756247 -32.81746395 23.54485126 -30.9375 14.8125 C-30.65241706 13.46561695 -30.36790819 12.11861225 -30.08398438 10.77148438 C-29.39493263 7.51308716 -28.70016192 4.25602458 -28 1 C-23 1 -18 1 -13 1 C-8.66362824 -0.44545725 -4.53208913 -0.54356832 0 0 Z " fill="#A2C7EA" transform="translate(35,14)"/>
<path d="M0 0 C2.4375 1.5625 2.4375 1.5625 3.4375 2.5625 C3.7675 1.5725 4.0975 0.5825 4.4375 -0.4375 C8.0675 -0.4375 11.6975 -0.4375 15.4375 -0.4375 C15.53688156 5.11257795 15.6092096 10.66213018 15.65722656 16.21289062 C15.67725767 18.09839916 15.70449073 19.98384623 15.73925781 21.86914062 C15.78815272 24.58999862 15.81055382 27.31003056 15.828125 30.03125 C15.84877014 30.86491089 15.86941528 31.69857178 15.89068604 32.55749512 C15.89287983 38.3681182 14.68291656 42.70059174 11.4375 47.5625 C5.99948555 52.86107818 0.67342286 53.95226808 -6.75 53.9375 C-7.87631836 53.9372583 -7.87631836 53.9372583 -9.02539062 53.93701172 C-15.02960831 53.81418642 -20.4014714 52.83593018 -25.5625 49.5625 C-25.8925 48.9025 -26.2225 48.2425 -26.5625 47.5625 C-25.78515625 45.6171875 -25.78515625 45.6171875 -24.625 43.4375 C-24.24472656 42.71304688 -23.86445312 41.98859375 -23.47265625 41.2421875 C-23.17230469 40.68789063 -22.87195313 40.13359375 -22.5625 39.5625 C-22.04042969 39.7790625 -21.51835938 39.995625 -20.98046875 40.21875 C-13.6477552 42.99259611 -6.18055502 43.7644553 1.4375 41.5625 C1.7675 39.2525 2.0975 36.9425 2.4375 34.5625 C1.426875 35.0575 0.41625 35.5525 -0.625 36.0625 C-6.7337787 38.63332871 -12.30491494 37.87549138 -18.4140625 35.67578125 C-22.92145602 33.34013188 -25.44970695 29.48459709 -27.9375 25.1875 C-29.48265727 18.69783948 -29.13447909 13.20961485 -25.83203125 7.3515625 C-19.70932433 -1.27674448 -9.70789152 -3.91721938 0 0 Z M-15.5625 13.5625 C-16.51410582 16.49661795 -16.66079808 18.18718004 -15.875 21.1875 C-13.95086086 24.66927558 -11.93308281 26.0439011 -8.25 27.4375 C-4.41166364 27.61602727 -1.92284706 26.33777769 1.4375 24.5625 C3.9290904 20.8251144 3.89543285 18.98918417 3.4375 14.5625 C1.89912393 11.61394586 0.7767371 10.01543614 -2.43359375 8.9296875 C-8.24067224 7.89780588 -11.39963896 9.39963896 -15.5625 13.5625 Z " fill="#A2C7EA" transform="translate(137.5625,15.4375)"/>
<path d="M0 0 C3.96 0 7.92 0 12 0 C13.64481574 4.11203935 14.70840737 7.70405068 15.625 12 C15.88539062 13.19625 16.14578125 14.3925 16.4140625 15.625 C16.91618463 18.51722349 17.12174011 21.07823745 17 24 C19.61864214 21.64855644 21.08761113 19.22029031 22.71484375 16.11328125 C23.23755859 15.17548828 23.76027344 14.23769531 24.29882812 13.27148438 C25.38813421 11.30450139 26.44588247 9.31969704 27.47070312 7.31835938 C29.12568337 4.42563758 30.50464697 2.21790361 33 0 C37.13711556 -0.85334083 40.84230912 -0.63422403 45 0 C43.58243704 3.85431464 41.78010917 7.19377728 39.62109375 10.68359375 C38.95118408 11.76995117 38.28127441 12.85630859 37.59106445 13.97558594 C36.87347553 15.12972266 36.15561596 16.28369114 35.4375 17.4375 C34.70712822 18.61611975 33.97690405 19.79483098 33.24682617 20.97363281 C31.17154261 24.32014606 29.08696142 27.66075681 27 31 C26.48791992 31.82064941 25.97583984 32.64129883 25.44824219 33.48681641 C14.3748786 51.17738809 14.3748786 51.17738809 8 54 C4.84375 54.3984375 4.84375 54.3984375 1.5 54.375 C0.3965625 54.38273437 -0.706875 54.39046875 -1.84375 54.3984375 C-5.27859984 53.96483022 -7.19542914 52.97785034 -10 51 C-8.68 48.36 -7.36 45.72 -6 43 C-3.47839199 43 -0.95562272 43.05496723 1.5625 43.1875 C4.8820752 43.30636476 4.8820752 43.30636476 6.75341797 41.79101562 C8.21750062 40.05929456 8.21750062 40.05929456 7.96533203 37.77539062 C7.77310059 36.91107422 7.58086914 36.04675781 7.3828125 35.15625 C7.17301758 34.17785156 6.96322266 33.19945312 6.74707031 32.19140625 C6.50053711 31.13824219 6.25400391 30.08507812 6 29 C5.75604492 27.91589844 5.51208984 26.83179687 5.26074219 25.71484375 C4.2145274 21.1258559 3.12418467 16.5477346 2.03515625 11.96875 C1.77347656 10.855 1.51179688 9.74125 1.2421875 8.59375 C1.0035498 7.59021484 0.76491211 6.58667969 0.51904297 5.55273438 C0 3 0 3 0 0 Z " fill="#A2C7EA" transform="translate(70,15)"/>
<path d="M0 0 C3.91774429 3.582485 6.70552643 7.65661033 7.37109375 12.953125 C7.52002799 20.34727212 7.0499211 25.39666289 2 31 C-4.03199764 36.73039776 -9.6874227 37.46374302 -17.7734375 37.30859375 C-24.08108718 36.70531975 -28.08569729 34.25452734 -32.375 29.6875 C-36.21316598 24.75122114 -37.23611095 20.1226825 -36.875 13.9375 C-36.06836737 7.818218 -33.55227283 4.4847827 -29.125 0.25 C-20.38955086 -6.03952338 -8.97633645 -5.88789876 0 0 Z M-22 9 C-24.6790573 13.01858595 -24.69610694 16.27641721 -24 21 C-22.20606332 23.87029869 -21.01736724 25.49131638 -18 27 C-13.36445612 27.41204834 -10.69583902 26.87454146 -7 24 C-4.43367483 20.57823311 -4.63564949 17.15359579 -5 13 C-6.28580041 10.10694908 -7.28429075 8.50099647 -9.875 6.6875 C-14.82631064 5.08560538 -17.83648372 5.96175839 -22 9 Z " fill="#A2C7EA" transform="translate(260,18)"/>
<path d="M0 0 C3.91774429 3.582485 6.70552643 7.65661033 7.37109375 12.953125 C7.52002799 20.34727212 7.0499211 25.39666289 2 31 C-4.03199764 36.73039776 -9.6874227 37.46374302 -17.7734375 37.30859375 C-24.08108718 36.70531975 -28.08569729 34.25452734 -32.375 29.6875 C-36.07726007 24.93609811 -37.27330261 20.41791651 -36.8125 14.4375 C-35.79093499 7.66532748 -33.12037928 3.47631993 -27.80859375 -0.7421875 C-19.6129864 -6.44194034 -8.09626043 -5.31062555 0 0 Z M-23 10 C-24.72869779 13.45739557 -24.48966895 17.21975568 -24 21 C-22.20606332 23.87029869 -21.01736724 25.49131638 -18 27 C-14.87767344 27.13863612 -12.0073173 26.8599966 -9 26 C-5.89239907 22.81660392 -5.10279121 20.83701417 -4.5625 16.4375 C-5.03059902 12.75957911 -5.69532448 10.88084439 -8 8 C-13.65719488 4.03996358 -17.92263122 6.07657867 -23 10 Z " fill="#A2C7EA" transform="translate(191,18)"/>
<path d="M0 0 C2.17814482 1.90262769 3.39913439 3.52124034 5 6 C4 9 4 9 1.93359375 10.16796875 C1.10988281 10.50441406 0.28617187 10.84085938 -0.5625 11.1875 C-1.38878906 11.53167969 -2.21507812 11.87585937 -3.06640625 12.23046875 C-3.70449219 12.48441406 -4.34257812 12.73835938 -5 13 C-5.33 12.360625 -5.66 11.72125 -6 11.0625 C-8.59230563 8.38918482 -10.44266916 8.23745516 -14.06640625 7.96484375 C-16.59771226 8.0108675 -18.02108838 8.40164831 -20 10 C-22.54358968 13.43384607 -22.2960629 16.85511944 -22 21 C-21.14455592 23.63761924 -20.49752294 24.64462647 -18.25 26.25 C-15.26448836 27.24517055 -13.13343215 27.38368557 -10 27 C-8.321702 25.68133728 -6.65385233 24.34919532 -5 23 C-1.37847715 23.11682332 1.83221351 25.34411161 5 27 C3.64352598 31.43936951 1.83191061 33.4156882 -2 36 C-8.54993353 39.10844303 -16.39373584 39.09454774 -23.3125 37 C-27.98449944 34.96699606 -31.13823447 31.11430639 -34 27 C-35.91561899 21.25314302 -36.21646949 14.2203632 -34.05859375 8.5078125 C-31.10598734 3.60222818 -27.5752075 0.22628929 -22.375 -2.25 C-14.89410174 -3.91242184 -6.73034832 -4.10201816 0 0 Z " fill="#235599" transform="translate(393,17)"/>
<path d="M0 0 C3.96 0 7.92 0 12 0 C12 2.97 12 5.94 12 9 C15.3 9 18.6 9 22 9 C22 12.3 22 15.6 22 19 C18.7 19 15.4 19 12 19 C12.14017826 21.97953359 12.28686342 24.95849304 12.4375 27.9375 C12.47681641 28.78763672 12.51613281 29.63777344 12.55664062 30.51367188 C12.59853516 31.32255859 12.64042969 32.13144531 12.68359375 32.96484375 C12.72025146 33.7137085 12.75690918 34.46257324 12.79467773 35.23413086 C12.81771063 37.02461326 12.81771063 37.02461326 14 38 C16.67058851 38.14115161 19.32432238 38.04247107 22 38 C22.99 40.97 23.98 43.94 25 47 C19.59678687 49.70160656 14.95203072 49.64540092 9 49 C4.42488049 46.83283812 2.05870695 44.59067987 0 40 C-0.36245433 36.38772438 -0.2824631 32.81314237 -0.1875 29.1875 C-0.17396484 28.20845703 -0.16042969 27.22941406 -0.14648438 26.22070312 C-0.11125312 23.81323375 -0.06199265 21.40690436 0 19 C-1.98 19 -3.96 19 -6 19 C-6 15.7 -6 12.4 -6 9 C-4.02 9 -2.04 9 0 9 C0 6.03 0 3.06 0 0 Z " fill="#A2C7EA" transform="translate(203,6)"/>
</svg>
