<?xml version="1.0" encoding="UTF-8"?>
<svg version="1.1" xmlns="http://www.w3.org/2000/svg" width="93" height="38">
<path d="M0 0 C1.65 0 3.3 0 5 0 C4.67 1.65 4.34 3.3 4 5 C5.32 5 6.64 5 8 5 C8 3.35 8 1.7 8 0 C9.65 0 11.3 0 13 0 C12.85866501 1.77119803 12.71176792 3.54195287 12.5625 5.3125 C12.48128906 6.29863281 12.40007813 7.28476563 12.31640625 8.30078125 C12 11 12 11 11 14 C9.35 14 7.7 14 6 14 C6.33 12.35 6.66 10.7 7 9 C5.68 9 4.36 9 3 9 C2.67 10.65 2.34 12.3 2 14 C0.68 14 -0.64 14 -2 14 C-1.85923685 12.0412957 -1.7122324 10.08303907 -1.5625 8.125 C-1.48128906 7.03445312 -1.40007813 5.94390625 -1.31640625 4.8203125 C-1 2 -1 2 0 0 Z " fill="#060A0C" transform="translate(17,4)"/>
<path d="M0 0 C1.21816406 0.03480469 1.21816406 0.03480469 2.4609375 0.0703125 C3.68683594 0.09738281 3.68683594 0.09738281 4.9375 0.125 C5.87722656 0.15980469 5.87722656 0.15980469 6.8359375 0.1953125 C7.82538946 4.89520933 8.01617525 8.47436152 6.8359375 13.1953125 C5.2109375 14.6328125 5.2109375 14.6328125 2.8359375 15.1953125 C-0.9140625 14.8203125 -0.9140625 14.8203125 -4.1640625 14.1953125 C-4.54625017 12.53916593 -4.87801352 10.87074226 -5.1640625 9.1953125 C-4.8340625 8.8653125 -4.5040625 8.5353125 -4.1640625 8.1953125 C-4.1846875 7.2259375 -4.2053125 6.2565625 -4.2265625 5.2578125 C-4.15371355 1.68821377 -3.72430816 0.3361289 0 0 Z M1.8359375 3.1953125 C1.5059375 3.8553125 1.1759375 4.5153125 0.8359375 5.1953125 C1.8259375 4.8653125 2.8159375 4.5353125 3.8359375 4.1953125 C3.1759375 3.8653125 2.5159375 3.5353125 1.8359375 3.1953125 Z M-1.1640625 9.1953125 C-0.8340625 9.8553125 -0.5040625 10.5153125 -0.1640625 11.1953125 C0.8259375 10.8653125 1.8159375 10.5353125 2.8359375 10.1953125 C1.5159375 9.8653125 0.1959375 9.5353125 -1.1640625 9.1953125 Z " fill="#070B0B" transform="translate(85.1640625,19.8046875)"/>
<path d="M0 0 C0.93343144 4.43379933 1.10629989 7.57480042 0 12 C-2 14 -2 14 -4.1640625 14.1953125 C-5.38222656 14.16050781 -5.38222656 14.16050781 -6.625 14.125 C-7.44226563 14.10695313 -8.25953125 14.08890625 -9.1015625 14.0703125 C-9.72804688 14.04710937 -10.35453125 14.02390625 -11 14 C-11.66 12.35 -12.32 10.7 -13 9 C-12.34 8.67 -11.68 8.34 -11 8 C-11.3403125 7.13375 -11.3403125 7.13375 -11.6875 6.25 C-12 4 -12 4 -10.75 1.8125 C-7.34876819 -1.71020437 -4.45319431 -0.89063886 0 0 Z M-6 3 C-6 3.66 -6 4.32 -6 5 C-5.01 4.67 -4.02 4.34 -3 4 C-3.99 3.67 -4.98 3.34 -6 3 Z M-8 9 C-7.67 9.66 -7.34 10.32 -7 11 C-6.01 10.67 -5.02 10.34 -4 10 C-5.32 9.67 -6.64 9.34 -8 9 Z " fill="#060A0B" transform="translate(79,4)"/>
<path d="M0 0 C2 2 2 2 2 5 C1.01 5.495 1.01 5.495 0 6 C0.33 6.33 0.66 6.66 1 7 C1.375 9.375 1.375 9.375 1 12 C-1.86494048 14.52788866 -3.35969997 15.03766471 -7.1875 14.8125 C-10 14 -10 14 -12 12 C-12 11.01 -12 10.02 -12 9 C-11.34 8.67 -10.68 8.34 -10 8 C-10.226875 7.236875 -10.45375 6.47375 -10.6875 5.6875 C-11 3 -11 3 -10.0625 1.1875 C-6.68412725 -0.75762371 -3.86005349 -0.30635345 0 0 Z M-5 3 C-5.33 3.66 -5.66 4.32 -6 5 C-5.01 5 -4.02 5 -3 5 C-3 4.34 -3 3.68 -3 3 C-3.66 3 -4.32 3 -5 3 Z M-7 9 C-7 9.66 -7 10.32 -7 11 C-6.01 11 -5.02 11 -4 11 C-4 10.34 -4 9.68 -4 9 C-4.99 9 -5.98 9 -7 9 Z " fill="#080A0D" transform="translate(23,20)"/>
<path d="M0 0 C0.93343144 4.43379933 1.10629989 7.57480042 0 12 C-2 14 -2 14 -3.875 14.23046875 C-4.57625 14.21628906 -5.2775 14.20210937 -6 14.1875 C-6.70125 14.18105469 -7.4025 14.17460937 -8.125 14.16796875 C-10 14 -10 14 -12 13 C-12 11.68 -12 10.36 -12 9 C-11.34 8.67 -10.68 8.34 -10 8 C-10.33 7.67 -10.66 7.34 -11 7 C-11.375 4.625 -11.375 4.625 -11 2 C-7.25885456 -1.30101068 -4.70383458 -1.20330652 0 0 Z M-6 3 C-6 3.66 -6 4.32 -6 5 C-5.01 4.67 -4.02 4.34 -3 4 C-3.99 3.67 -4.98 3.34 -6 3 Z M-8 9 C-7.67 9.66 -7.34 10.32 -7 11 C-6.01 10.67 -5.02 10.34 -4 10 C-5.32 9.67 -6.64 9.34 -8 9 Z " fill="#080B0C" transform="translate(12,4)"/>
<path d="M0 0 C2.31 0 4.62 0 7 0 C7.33 4.62 7.66 9.24 8 14 C6.35 14 4.7 14 3 14 C3 13.34 3 12.68 3 12 C1.9171875 12.495 1.9171875 12.495 0.8125 13 C-2 14 -2 14 -7 14 C-4.69 9.38 -2.38 4.76 0 0 Z M2 6 C1.67 6.99 1.34 7.98 1 9 C1.66 9 2.32 9 3 9 C2.67 8.01 2.34 7.02 2 6 Z " fill="#070A0B" transform="translate(54,20)"/>
<path d="M0 0 C0.89589844 -0.01417969 1.79179688 -0.02835938 2.71484375 -0.04296875 C5.0625 0.1875 5.0625 0.1875 7.0625 2.1875 C6.60795455 7.64204545 6.60795455 7.64204545 4.0625 10.1875 C0.9375 10.3125 0.9375 10.3125 -1.9375 10.1875 C-2.2675 11.5075 -2.5975 12.8275 -2.9375 14.1875 C-4.5875 14.1875 -6.2375 14.1875 -7.9375 14.1875 C-7.62999629 12.04094499 -7.3163634 9.89526715 -7 7.75 C-6.82597656 6.55503906 -6.65195313 5.36007813 -6.47265625 4.12890625 C-5.62662925 -0.52115455 -4.41393574 0.03166381 0 0 Z M-0.9375 4.1875 C-0.6075 5.1775 -0.2775 6.1675 0.0625 7.1875 C0.7225 6.8575 1.3825 6.5275 2.0625 6.1875 C2.0625 5.5275 2.0625 4.8675 2.0625 4.1875 C1.0725 4.1875 0.0825 4.1875 -0.9375 4.1875 Z " fill="#080B0B" transform="translate(71.9375,19.8125)"/>
<path d="M0 0 C1.65 0 3.3 0 5 0 C5.33 1.65 5.66 3.3 6 5 C7.93798263 2.22739701 7.93798263 2.22739701 9 0 C10.65 0 12.3 0 14 0 C12.45730076 4.72065967 10.92205381 9.41664092 9 14 C5.44849408 13.69558521 4.02861198 13.02406007 1.25 10.6875 C-1.90587139 6.91798695 -1.90587139 6.91798695 -2 4 C-1.0625 1.75 -1.0625 1.75 0 0 Z " fill="#060A0B" transform="translate(36,20)"/>
<path d="M0 0 C1.03769531 -0.01675781 2.07539062 -0.03351562 3.14453125 -0.05078125 C6.1875 0.3125 6.1875 0.3125 8.6171875 1.7890625 C11.96911238 3.7757657 14.6314154 3.81922502 18.5 4 C20.38138672 4.09861328 20.38138672 4.09861328 22.30078125 4.19921875 C23.72970703 4.25529297 23.72970703 4.25529297 25.1875 4.3125 C24.8575 5.6325 24.5275 6.9525 24.1875 8.3125 C22.8675 8.3125 21.5475 8.3125 20.1875 8.3125 C19.5275 11.6125 18.8675 14.9125 18.1875 18.3125 C16.5375 18.3125 14.8875 18.3125 13.1875 18.3125 C13.8475 15.0125 14.5075 11.7125 15.1875 8.3125 C13.8675 7.9825 12.5475 7.6525 11.1875 7.3125 C9.5049387 5.99928142 7.83752828 4.66636936 6.1875 3.3125 C3.03819107 2.26273036 0.79935544 2.21118405 -2.5 2.25 C-3.49386719 2.25902344 -4.48773438 2.26804688 -5.51171875 2.27734375 C-6.27097656 2.28894531 -7.03023437 2.30054688 -7.8125 2.3125 C-5.14098149 -0.35901851 -3.72067468 0.01376328 0 0 Z " fill="#070A0C" transform="translate(41.8125,-0.3125)"/>
<path d="M0 0 C5.4 0.6 5.4 0.6 7.875 2.25 C9.37422891 4.58213386 9.22023906 6.28371825 9 9 C7.02 9 5.04 9 3 9 C2.67 10.65 2.34 12.3 2 14 C0.68 14 -0.64 14 -2 14 C-1.85923685 12.0412957 -1.7122324 10.08303907 -1.5625 8.125 C-1.48128906 7.03445312 -1.40007813 5.94390625 -1.31640625 4.8203125 C-1 2 -1 2 0 0 Z " fill="#070B0D" transform="translate(41,4)"/>
<path d="M0 0 C1.65 0 3.3 0 5 0 C4.67 3.3 4.34 6.6 4 10 C5.32 10.66 6.64 11.32 8 12 C8.59039062 12.35320313 9.18078125 12.70640625 9.7890625 13.0703125 C15.24371701 16.20383743 19.79194198 16.45797149 26 16 C25.67 16.66 25.34 17.32 25 18 C12.92619392 18.52749638 12.92619392 18.52749638 7 15 C4.03 14.505 4.03 14.505 1 14 C0.67 9.38 0.34 4.76 0 0 Z " fill="#080A0B" transform="translate(27,20)"/>
<path d="M0 0 C1.32 0 2.64 0 4 0 C3.03644647 10.55808656 3.03644647 10.55808656 2 15 C0.35 15 -1.3 15 -3 15 C-2.88529863 13.24929483 -2.75780972 11.49942464 -2.625 9.75 C-2.55539063 8.77546875 -2.48578125 7.8009375 -2.4140625 6.796875 C-2.01534751 4.10366811 -1.36492937 2.33036721 0 0 Z " fill="#080A0E" transform="translate(34,3)"/>
</svg>
